<svg xmlns="http://www.w3.org/2000/svg" xmlns:xlink="http://www.w3.org/1999/xlink" width="125" height="25"><g fill-rule="evenodd"><g fill="#FFF"><path d="M34.777 18.492h-3.789V7.863h3.789c2.625 0 4.762 2.523 4.762 5.313s-2.137 5.316-4.762 5.316m0-13.953h-7.594v17.277h7.594c4.723 0 8.57-3.734 8.57-8.641s-3.848-8.637-8.57-8.637m27.711 17.325H58.18l-5.098-9.246-5.094 9.246H43.41l7.383-13.395 2.156-3.906 2.289 4.148zm14.196-5.652c.012.137.004.309-.004.469l-.059.492c-.059.328-.148.66-.281.969a4.7 4.7 0 01-1.098 1.582 5.65 5.65 0 01-1.402.984 7.888 7.888 0 01-2.93.805l-.73.027-.793-.047a7 7 0 01-1.559-.363c-1.016-.367-1.977-.992-2.711-1.902a5.44 5.44 0 01-.883-1.547 5.114 5.114 0 01-.312-1.816h3.695c.016.332.137.648.395.953s.645.566 1.09.727a3.05 3.05 0 00.707.16c.121.02.246.02.371.023l.434-.02c.574-.043 1.129-.172 1.555-.383a2.03 2.03 0 00.516-.336 1.08 1.08 0 00.246-.316.72.72 0 00.047-.156.707.707 0 00.02-.207 1.653 1.653 0 00-.055-.496c-.039-.117-.074-.23-.187-.367s-.293-.289-.527-.434c-.473-.293-1.137-.543-1.855-.738l-2.352-.687a7.79 7.79 0 01-1.328-.578 4.97 4.97 0 01-1.363-1.074 4.18 4.18 0 01-.895-1.738 4.81 4.81 0 01-.129-.906 5.076 5.076 0 01.035-.906 4.235 4.235 0 01.695-1.832 4.54 4.54 0 011.359-1.309 6.34 6.34 0 011.301-.602 3.506 3.506 0 00-1.066 2.523 3.5 3.5 0 001.434 2.828 2.06 2.06 0 00.234.164l.133.074c.012.004.02.012.031.016l.234.113.094.043.313.125c.621.23 1.348.418 2.121.629.777.223 1.617.418 2.531.832a5.64 5.64 0 011.395.887 4.43 4.43 0 011.141 1.539c.262.601.375 1.23.395 1.797"/><use xlink:href="#B"/><use xlink:href="#B"/><path d="M95.305 4.539V21.84h-3.812v-7.316h-7.5v7.316H80.18V4.539h3.813v6.656h7.5V4.539zm7.511 0h-3.812V21.84h12.121v-3.328h-8.309zm18.289 0h3.813l-5.973 9.07v8.23h-3.812v-8.23l-5.973-9.07h3.813l4.066 6.176zM16.004 1.453a2.083 2.083 0 010 2.945L4.219 16.184a2.083 2.083 0 01-2.945-2.945L13.059 1.453a2.08 2.08 0 012.945 0zm0 0"/></g><path d="M17.477 8.816a2.083 2.083 0 010 2.945L5.691 23.547a2.08 2.08 0 01-2.945 0 2.085 2.085 0 010-2.945L14.531 8.816a2.085 2.085 0 012.945 0zm0 0" fill="#20BBC7"/></g><defs><path id="B" d="M67.695 4.641a8.276 8.276 0 011.68-.352l.715-.051.18-.004.199.004.402.023a6.39 6.39 0 011.586.34c1.031.359 2 1 2.723 1.918a5.272 5.272 0 011.164 3.344h-3.691c-.012-.352-.145-.676-.387-.992a2.471 2.471 0 00-1.051-.734 2.882 2.882 0 00-.687-.164l-.18-.012-.09-.004-.113-.004-.449.012c-.586.031-1.129.168-1.457.355a1.148 1.148 0 00-.352.262.7.7 0 00-.164.328 1.4 1.4 0 00-.012.523.73.73 0 00.137.34c.047.066.121.141.215.219a3.5 3.5 0 01-1.434-2.828c0-.992.41-1.887 1.066-2.523"/></defs></svg>