<svg width="7051.402" height="1080" xmlns="http://www.w3.org/2000/svg"><defs><clipPath clipPathUnits="userSpaceOnUse" id="a"><path d="M0 166.885h628.238V0H0z"/></clipPath></defs><g clip-path="url(#a)" transform="matrix(12.94405 0 0 -12.94405 -540.036 1620.023)"><path d="M558.933 88.51V77.152h7.982v-11.27c.025-1.006-.03-2.092-.203-2.961-.317-2.102-2.314-5.681-7.98-5.681-5.632 0-7.593 3.579-7.933 5.68-.143.87-.204 1.956-.204 2.963v35.593c0 1.259.085 2.637.352 3.68.387 1.897 2.068 5.638 7.743 5.638 5.957 0 7.444-3.944 7.785-5.638.224-1.122.237-3.004.237-3.004V97.83h19.613v2.555s.089 2.666-.15 5.154c-1.473 14.609-13.51 19.23-27.312 19.23-13.827 0-25.62-4.664-27.338-19.23-.155-1.332-.392-3.728-.392-5.154V67.643c0-1.426.046-2.53.31-5.136 1.28-14.207 13.593-19.243 27.365-19.243 13.857 0 26.085 5.036 27.387 19.243.23 2.606.255 3.71.286 5.136V88.51zm-135.235 34.165h-19.696V65.062c.03-1.004 0-2.132-.173-2.96-.411-1.933-2.05-5.655-7.484-5.655-5.364 0-7.046 3.722-7.426 5.656-.197.827-.222 1.955-.197 2.959v57.613h-19.69V66.85c-.025-1.44.088-4.38.173-5.15 1.359-14.546 12.824-19.27 27.14-19.27 14.344 0 25.802 4.724 27.186 19.27.109.77.252 3.71.167 5.15zm-180.97 0l-9.825-60.876-9.82 60.876h-31.77l-1.685-77.878h19.464l.527 72.094 13.392-72.094h19.748l13.404 72.094.529-72.094h19.513l-1.742 77.878zm-117.631 0L110.67 44.797h21.037l10.87 72.094 10.61-72.094h20.892l-14.366 77.878zm367.435-62.701l-18.34 62.7h-28.9V45.61h19.118l-1.11 64.707 19.696-64.707h27.717v77.066H491.47zm-176.838 42.433c-.346 1.538-.246 3.172-.067 4.026.557 2.493 2.232 5.212 7.058 5.212 4.498 0 7.135-2.804 7.135-7.012V99.87h19.2v5.428c0 16.78-15.044 19.416-25.936 19.416-13.718 0-24.921-4.522-26.967-17.148-.541-3.436-.675-6.486.186-10.378 3.336-15.743 30.743-20.31 34.72-30.266.703-1.886.502-4.291.144-5.708-.596-2.591-2.34-5.197-7.506-5.197-4.846 0-7.763 2.786-7.763 6.985l-.006 7.474h-20.666v-5.941c0-17.215 13.484-22.41 28.007-22.41 13.909 0 25.397 4.754 27.24 17.638.879 6.657.216 10.993-.137 12.626-3.22 16.147-32.431 21.004-34.642 30.017m-253.273.19c-.377 1.57-.29 3.228-.08 4.092.533 2.48 2.218 5.248 7.129 5.248 4.555 0 7.237-2.831 7.237-7.073v-4.82h19.425v5.47c0 16.942-15.274 19.642-26.285 19.642-13.833 0-25.136-4.592-27.204-17.31-.566-3.49-.663-6.561.155-10.496 3.372-15.922 31.05-20.526 35.077-30.601.754-1.873.526-4.278.152-5.75-.64-2.618-2.396-5.261-7.606-5.261-4.865 0-7.775 2.834-7.775 7.09l-.027 7.495H41.72v-5.955c0-17.412 13.675-22.648 28.31-22.648 14.072 0 25.627 4.795 27.512 17.828.937 6.718.234 11.09-.082 12.748-3.287 16.345-32.823 21.186-35.04 30.302" fill="#1428a0"/></g></svg>