<svg xmlns="http://www.w3.org/2000/svg" fill="none" viewBox="0 0 200 200" height="170" width="170"><path fill="#00bac7" d="M38.4 159.109a6.526 6.526 0 01-1.1.693c-3.209-1.552 2.188-5.395 3.378-7.63.766-1.438-.543-2.4-.586-3.681-.049-1.46 1.292-3.013 2.4-4.237.92-1.02 3.523-4.729 5.256-4.328 1.165.27 1.43 1.392.647 2.373-1.46 1.826-3.986 3.545-4.625 5.675-.77 2.568 4.015 1.938-5.37 11.135zm-16.128-4.48c-2.487-2.548 3.9-4.326 5.773-6.024 1.211-1.094.3-2.441.7-3.666.453-1.391 2.228-2.4 3.682-3.172 1.216-.648 4.92-3.246 6.412-2.282 1 .648.882 1.795-.19 2.449-1.993 1.217-4.956 1.988-6.275 3.765-.759 1.021-.093 1.94-.487 2.959-.709 1.833-3.554 3.3-5.515 4.313-.929.477-1.871.951-2.837 1.384-.409.14-.833.231-1.263.274z"/><path fill="#def6f8" d="M26.3 127.793a4.16 4.16 0 011.9 2.86c.137.364.174.758.107 1.141-.114.281-.747-.3-.86-.373-1.953-1.338-2.292-1.736-2.6-1.514-.4.447-.723.959-.951 1.514-.012.175.274.4.373.51.44.51.924.98 1.445 1.407.213.174.993.653.9 1.034-.062.251-.5.3-.684.32a4.5 4.5 0 01-2.115-.32 4.086 4.086 0 01-2.441-2.008 18.33 18.33 0 00-.586-1.825 7.79 7.79 0 00-2.153-2.138 17.856 17.856 0 00-4.122-2.586c-.852-.312-1.613.227-2.48.152-1.711-.147-4.039-2.662-3.491-4.738 0 0-.133-.1 1.308.935.924.664 1.586 1.3 2.7.936.213-.071.494-.115.632-.32.138-.205 0-.487-.069-.677a3.618 3.618 0 00-1.354-1.415c-.21-.152-.048-.042-1.08-.806-.092-.068-1.021-.648-.791-.837 1.163-.953 3.074-.366 4.107.48 1.059.866 1.2 2.266 2.062 3.248.83.789 1.746 1.483 2.731 2.069 1.186.851 2.342 1.856 3.6 2.586.684.395 1.233.114 1.94.038a3.65 3.65 0 011.972.327z"/><path fill="#fff" d="M85.131 83.8c5.973 5.139 13.3 6.509 20.233 9.789a32.778 32.778 0 016.626 4.2c3.931-3.716 3.261-3.483 3.354-3.583.877.201 1.733.487 2.556.852 4.046 2.191 6.245 6.123 9.1 9.5a40.645 40.645 0 01-8.474 8.991c-1.23.967-2.693 2.338-4.3 2.556a7.568 7.568 0 01-3.993-1.088 77.148 77.148 0 01-14.118-8.686C85.775 98.64 85 96.362 81.191 93.2c-1.225-1.019-2.64-.827-3.963-1.536-1.5-.8-2.586-2.313-4.016-3.256-1.874-1.236-5.191-2.55-6.655-3.963a9.7 9.7 0 01-2.057-2.922c-.611-1.326-.738-2.73.67-3.369l.418-.16a3.958 3.958 0 01-.167-2.716 2.25 2.25 0 012.1-1.49l.4-.16c-.677-1.719-.814-4.016 1-4.845l.031-.031a3.543 3.543 0 01-1.643-2.373c-.08-1.316 2.084-1.879 3.05-1.635 3 .993 4.3 3.035 6.891 5.111l.358.061c.729-.837.786-1.052 1.5-1.963.793.609 3.336 1.739 3.735 3.712.59 2.92-2.378 5.742-1.453 8.573.518 1.589 2.548 2.532 3.741 3.562z"/><path fill="#0e2238" fill-rule="evenodd" d="M78.711 67.649a.5.5 0 01.701-.092c.143.11.36.243.649.423l.076.048c.316.196.689.43 1.063.703.739.537 1.544 1.263 1.943 2.219.698 1.671.109 3.286-.46 4.704l-.116.286c-.553 1.37-1.037 2.568-.795 3.785.16.808.675 1.414 1.382 1.988.33.268.687.517 1.057.775l.083.058c.393.274.8.562 1.164.876 2.925 2.517 6.192 4.12 9.617 5.506 1.183.48 2.394.935 3.616 1.396 2.289.862 4.619 1.74 6.887 2.813h.001a33.258 33.258 0 016.727 4.265.5.5 0 11-.632.774 32.303 32.303 0 00-6.524-4.135c-2.236-1.058-4.493-1.908-6.754-2.759a160.66 160.66 0 01-3.696-1.427c-3.465-1.403-6.848-3.054-9.895-5.676a13.63 13.63 0 00-1.083-.813l-.09-.062a19.062 19.062 0 01-1.108-.814c-.779-.632-1.506-1.425-1.733-2.57-.303-1.526.298-3.001.827-4.3l.137-.339c.582-1.451.987-2.697.465-3.946-.29-.697-.912-1.29-1.608-1.795a16.43 16.43 0 00-1.003-.663l-.089-.055a9.54 9.54 0 01-.716-.472.5.5 0 01-.093-.701z" clip-rule="evenodd"/><path fill="#fff" d="M188.145 157.884c-.17-2.589.678-7.794-2.328-9.181l.031-.076c1.133 0 2.837-.168 3.8.525a2.95 2.95 0 01.829 1.871c.486 2.281.683 4.614.586 6.944a1.503 1.503 0 01-.274.86 7.312 7.312 0 01-2.4.745 11.165 11.165 0 01-.244-1.688z"/><path fill="#00bac7" d="M182.349 174.062c.137.922-1.514 1.049-2.1 1.149-8.737 1.5-6.385 1.6-7.941 1.362a2.946 2.946 0 001.1-1.423c.061-.365-.525-.494-.745-.639l.631-.023c-.023-.022.875-.365.913-.38.6-.2 1.217-.379 1.833-.548a12.008 12.008 0 014.792-.654c.619.094 1.412.457 1.517 1.156zm-10.444-3.62l.167.015a7.718 7.718 0 011.879-1.346 22.417 22.417 0 015.089-2.769c.5-.188 3.047-.572 2.594.776-.322.957-2.122 1.576-2.914 2-2.279 1.222-5.035 2.374-6.853 4.283l-.19.053c-.617-1.282.134-2.067.228-3.012z"/><path fill="#fff" d="M171.5 169.324a15.785 15.785 0 00-3.088-2.4c0-4.807-4.944-13.17-1.43-18.97 4.969.371 9.106 1.042 12.931.783 1.826-.124 4.5-.888 6.184.122 2.675 1.608 1.878 6.466 2.046 9.029.291 4.456 3.2 7.476 4.548 15.327.382 2.224.6 5.113-1.019 6.937-1.428 1.606-3.993 1.985-5.9 2.776-4.275 1.772-8.269 4.414-12.87 5.324-1.871.371-4.35.6-5.925-.73-3.149-2.662.687-6.836 2.723-8.686.51-.464 1.019-.921 1.529-1.385.251-.228.677-.532 1.08-.874 1.519.236-.761.132 7.941-1.362.586-.1 2.237-.227 2.1-1.149-.1-.7-.9-1.058-1.514-1.156a12.008 12.008 0 00-4.792.654c-.616.169-1.232.35-1.833.548-.038.015-.936.358-.913.38l-.631.023a2.69 2.69 0 01-.989-1.057l.19-.053c1.818-1.909 4.574-3.061 6.853-4.283.792-.424 2.592-1.043 2.914-2 .453-1.348-2.089-.964-2.594-.776a22.417 22.417 0 00-5.089 2.769 7.665 7.665 0 00-1.879 1.346l-.167-.015a1.274 1.274 0 00-.406-1.122z"/><path fill="#00bac7" d="M154.646 53.244c-5.842 0-11.388 3.134-17.114 6.51a81.425 81.425 0 00-9.135 6.185l-.175-.206c-1.765-2.213-1.164-3.43-.9-4.45a7.432 7.432 0 011.7-2.258c4.687-4.87 17.75-14.643 22.674-9.721a24.145 24.145 0 013.051 3.62l-.101.32z"/><path fill="#def6f8" d="M150.181 14.99c1.995 3.133 3.184 6.408 2.3 10.147-1.293 5.5-5.174 5.36-10.679 3.841-8.579-2.366-17.028-7.57-24.1-13.083a61.097 61.097 0 01-6.526-5.636c-.392-.4-1.574-1.354-1.4-2.57.275-1.925 4.793-1.144 7.257-.039 1.826.82 2.525 1.75 3.27 1.613 1.248-.229 2.626-1.6 3.735-2.19 9.282-4.932 20.762-.53 26.143 7.917z"/><path fill="#fff" d="M156.365 191.3c-.009.47-.055.938-.137 1.4a2.4 2.4 0 01-.762 1.168 2.403 2.403 0 01-1.284.544 25.615 25.615 0 01-9.173.121l-.2-.563c2.945-1.046 5.25-2.416 8.732-2.4.92.006 2.015.335 2.784-.327l.04.057z"/><path fill="#def6f8" d="M156.86 169.241a11.622 11.622 0 00-.038-3.134c-1.033-3.591-3.5-6.771-5.8-9.63a39.274 39.274 0 00-3.971-4.236c-2.008-1.849-4.986-3.338-5.6-6.177-.866-4.019-1.248-3.538-.882-3.712 0 .039.19.008.274.016 1.616.242 4.5.378 6.176.654l.084-.228a144.857 144.857 0 0010.907 3.529 29.21 29.21 0 009.166 1.05l.007.266c-3.661 5.29.759 13.378 1.217 18.955a3.985 3.985 0 01-.222 1.745 4.006 4.006 0 01-4.189 2.613c-1.915-.072-3.522-1.6-5.926-1.734-.245-.017-.998.16-1.203.023z"/><path fill="#def6f8" d="M157.019 170.352c.451 1.315 2.581 1.255 2.556 3.073-.024 1.73-1.938 2.749-3.59 3.293-6.509 2.143-14.429 1.933-21.146 1.232-2.67-.278-6.075-.605-8.162-2.3-3.585-2.906 2.145-6.786.251-9.713-.776-1.2-2.555-1.857-3.689-2.662a27.275 27.275 0 01-5.385-5.051c-5.535-6.825-9.731-15.168-13.41-23.131a72.99 72.99 0 00-4.655-8.238 48.136 48.136 0 01-5.21-10.55c-.685-2.39-3.119-6.427 1.232-9.584l.3-.395a77.237 77.237 0 0014.118 8.686 7.578 7.578 0 003.993 1.088c1.612-.218 3.075-1.589 4.3-2.556a41.14 41.14 0 006.321-6.138c.213.462 8.564 3.379 10.657 4.145 1.142.522 2.319.965 3.522 1.324.616-1.864 1.735-3.788 2.251-5.7.6-2.228.091-4.137.107-6.328-.121-.094.318-.461-3.34 3.8-1.22 1.419-2.692 3.514-4.586 4.077-2.1.623-3.981-1.527-5.279-2.86-3.426-3.519-5.664-8.312-10.276-10.81a16.164 16.164 0 00-2.556-.851c-1.96-.5-4.174-1.2-4.648-2.51-.507-1.408 1.248-3 2.077-3.88a33.133 33.133 0 006.306-8.4c2.144-4.532 3.465-8.793 9.318-13.47a77.952 77.952 0 019.135-6.184c5.412-3.192 11.114-6.561 17.221-6.511 5.732.046 10.594 2.993 14.231 7.309 9.036 10.722 12.95 24.963 17.35 37.94 1.287 3.801 5.4 7.121 5.819 11.061.479 4.5-3.927 7.385-4.739 11.478-.724 3.65 1.275 7.278.327 11.029-2.5 9.916-11.211 14.878-20.484 15.312h-.083a29.21 29.21 0 01-9.166-1.05 120.731 120.731 0 01-21.321-8.025l-.106.145a16.905 16.905 0 012.693 2.213c1.261 1.307 1.683 3.126 2.175 5.408.612 2.839 3.59 4.328 5.6 6.177a39.274 39.274 0 013.971 4.236c2.306 2.859 4.771 6.039 5.8 9.63.416 1.435-.241 2.952.2 4.241z"/><path fill="#fff" d="M109.472 26.72c.946-3.659 3.978-9.561 8.032-10.573l.2-.251c1.057.811 2.137 1.616 3.24 2.412-.228.322-.154.151-.159.47.057.658.169 1.309.334 1.948 1.513 6.1 4.247 12.86 9.98 15.4l.175.242c1.46-1.17 3.676-1.63 5.1-.114 2.049 2.189 1.061 5.48-.852 7.349-.562.547-1.918 1.116-2.259 1.81-.191.388.165 1.013.3 1.362a29.08 29.08 0 001.369 2.92c.167.313.381.822.738.965.449.184 1.345-.4 1.727-.561a112.48 112.48 0 004.45-2.046c1.178-.572 2.472-1.058 3.712-1.628l.015.038a8.508 8.508 0 011.164 1.59c-5.926.927-14.164 7.294-17.708 10.976l-.426-.32a7.495 7.495 0 00-4.244-2.86c-3.8-.594-8.277 2.055-11.836-.023-2.267-1.324-2.2-4.447-3.21-6.595-.313-.669-2.1-2.1-1.9-3.56l-.266-.091c.472-.608.9-1.192 1.156-1.133 1.375.313 1.667 2.96 3.583 2.243 1.75-.652.607-3.165 1.643-4 .615-.5 3.036 2.839 3.552.708.382-1.575-1.363-3.086-2.556-3.69-3.487-1.764-6 .434-8.975.587-1.028.052-2.637.03-3.012-1.195-.772-2.519 3.857-4.327 5.02-5.933 1.328-1.845 1.36-4.31 1.913-6.448z"/><path fill="#00bac7" d="M125.2 178.611a5.207 5.207 0 001.962-.9c.964 1.338 2.018 1.949 2.974 3.088.906 1.079 2.151 2.464 2.351 3.94.09.669-.517 1.947-1.354 1.407-2.283-1.832-2.131-3.388-5.842-7.066l-.091-.469z"/><path fill="#def6f8" d="M126.928 165.94a3.265 3.265 0 01.016 3.08l-.107-.038a19.355 19.355 0 01-5.134.069c-1.932-.35-3.667-1.261-5.644-1.438-8.086-.723-16.221 0-23.291-4.959-5.221-3.662-8.305-12.041-4.32-17.67 3.187-4.5 10.238-8.169 15.517-9.66l.479-.228c3.758 7.926 7.875 16.306 13.41 23.131a27.275 27.275 0 005.385 5.051c1.134.805 2.913 1.461 3.689 2.662z"/><path fill="#fff" d="M125.293 179.084c3.817 3.783 3.5 5.184 5.842 7.066.837.54 1.444-.738 1.354-1.407-.2-1.476-1.445-2.861-2.351-3.94-.924-1.1-2.024-1.769-2.974-3.088.225-.154.441-.321.647-.5l.19-.738a20.903 20.903 0 006.838 1.468c6.452.673 15.632.993 21.9-1.513l.1.243c1.384 3.986 3.058 11.143-.449 14.513a.22.22 0 01-.068.053c-1.135.978-2.429-.268-6.321.807-2.806.774-5.124 2.2-7.9 2.639-5.2.819-10.9-.169-16.149-.19-4.183-.017-8.443-.016-12.6-.426-1.932-.191-4.33-.4-5.865-1.734-2.443-2.121-1.588-5.8.593-7.736 3.159-2.812 7.584-2.373 11.128-4.123l1.316.054c1.856 1.734 3 4.215 4.29 6.366.342.571 1.048 2.112 1.94 1.514 1.8-1.207-.352-3.88-1.673-5.606-1.047-1.368-1.971-2.357-2.807-3.377-.055-.067-.13-.236-.19-.274l-.061-.251c1.065-.289 2.092-.092 3.187-.3l.083.48z"/><path fill="#00bac7" d="M125.073 182.81c1.323 1.729 3.471 4.4 1.673 5.606-.892.6-1.6-.943-1.94-1.514-1.287-2.151-2.434-4.632-4.29-6.366l-1.316-.054c1.5-.724 1.619-1.25 2.815-1.574l.061.251c.06.038.135.207.19.274.834 1.019 1.744 1.989 2.807 3.377z"/><path fill="#0e2238" d="M120.942 18.308c6.359 4.563 13.386 8.609 20.865 10.67 2.213.612 5.21 1.378 7.469.534l.951.023c5.621 3.194 2.2 12.035-1.75 15.167-2 1.584-4.085 2.11-6.632 3.347-1.469.713-2.948 1.4-4.45 2.046-.382.164-1.278.745-1.727.562-.357-.144-.571-.653-.738-.966a29.07 29.07 0 01-1.369-2.92c-.139-.35-.5-.974-.3-1.362.341-.693 1.7-1.262 2.259-1.81 1.913-1.868 2.9-5.16.852-7.348-1.42-1.516-3.636-1.057-5.1.114l-.175-.243c-4.488-1.986-6.944-6.337-8.588-10.81-.542-1.473-1.734-5.19-1.734-6.77l.167-.234zm-6.42 21.392c1.193.6 2.938 2.115 2.556 3.689-.516 2.131-2.937-1.2-3.552-.707-1.036.835.107 3.348-1.643 4-1.916.716-2.208-1.93-3.583-2.244-.521-.119-1.643 2.225-2.5 2.411-1.883.409-2.426-3.435-.069-6.168l-.045-.411c3.17-.3 5.47-2.27 8.836-.57z"/><path fill="#fff" d="M97.157 130.333a9.623 9.623 0 01-2.3 2.792c-.252.211-.608.669-.935.768-1.678-1.056-2.019-1.847-.685-3.339 1.231-1.383 2.475-1.065 3.92-.221z"/><path fill="#def6f8" d="M97.081 35.292l-2.54 1.057a9.69 9.69 0 01-.3 1.75l2.016 1.863a11.882 11.882 0 01-1.719 2.982l-2.624-.822a9.299 9.299 0 01-1.362 1.141l.342 2.723a11.438 11.438 0 01-3.232 1.18l-1.484-2.3a9.788 9.788 0 01-1.779 0l-1.484 2.3a11.425 11.425 0 01-3.24-1.18l.35-2.723a8.548 8.548 0 01-1.362-1.14l-2.624.821a11.671 11.671 0 01-1.726-2.982l2.018-1.862a9.023 9.023 0 01-.312-1.749l-2.533-1.057a11.73 11.73 0 01.593-3.393l2.746-.129a9.666 9.666 0 01.89-1.537l-1.262-2.44c.77-.864 1.662-1.61 2.647-2.217l2.183 1.666a9.112 9.112 0 011.673-.608l.6-2.678a11.914 11.914 0 013.446 0l.608 2.678a9.33 9.33 0 011.666.608l2.191-1.666c.98.609 1.87 1.354 2.639 2.214l-1.263 2.441c.344.484.642.998.89 1.537l2.746.13c.364 1.095.566 2.238.602 3.392zm-6.321.327a5.48 5.48 0 10-10.962 0 5.48 5.48 0 0010.962 0z"/><path fill="#fff" d="M85.945 123.754l-.243.007c.054 2.275-1.179 3.134-2.389 2.86-3.168-.717-2.921-6.076-1.331-8.5 1.656-2.519 5.767-1.312 8.253-1.186 1.484.179 2.99.047 4.42-.388a46.74 46.74 0 005.134 10.306c-.35.45-.678.917-.981 1.4a5.255 5.255 0 00-.852-.784c-.254-.161.875.513-2.206-1.361a8.32 8.32 0 01-9.341-1.651c-.03-.027-.464-.528-.464-.703z"/><path fill="#00bac7" d="M92.654 55.328c.2.9-.661 2.084-1.027 2.845-.736 1.529-1.523 3.852-3.263 4.5-1.416.529-2.761-.244-4.153.015-.79.225-1.48.71-1.962 1.377-1.868 2.1-4.159 5.3-4.64 5.849l-.358-.061c-.989-.791-2.076-1.91-3.24-2.913l.555-.084c1.225-1.8 2.579-3.5 3.811-5.286a9.306 9.306 0 001.536-2.48c.229-.822-.491-1.692-.646-2.48a5.043 5.043 0 01.761-3.62c.966-1.551 3.04-4.95 5.111-2.96.694.668-.021 1.652-.388 2.3-.855 1.525-2.324 4.412-.19 5.592.355.195.741.33 1.141.4 2.875.5 3.231-2.413 4.921-3.887.646-.561 1.867.139 2.031.893z"/><path fill="#fff" d="M89.581 132.372c1.951 2.413-.47 6.236-3.316 5.241-.586-.205-2.6-2.092-1.392-2.739l.007-.03c1.734.255 4.009-.585 4.268-2.525l.433.053z"/><path fill="#00bac7" d="M95.75 126.113c3.045 1.852 1.973 1.213 2.206 1.361.31.231.596.493.852.784.916 1.029 1.939 2.647.274 2.928-.722.122-1.666-.767-1.925-.852-1.445-.844-2.689-1.162-3.925.221-1.33 1.488-1 2.292.685 3.339.807.5 2.092 1.148 1.818 1.947-.792 2.31-4.261.172-5.583-.524a3.199 3.199 0 00-.571-2.944l-.433-.053a3.278 3.278 0 00-.487-2.5l-.472-.061c.6-.783.856-1.748-.144-2.4a7.903 7.903 0 00-3.393-.632l.008-.312a2.22 2.22 0 00.9-1.331 5.25 5.25 0 00.145-1.316l.243-.007c0 .175.434.676.464.707a8.323 8.323 0 009.338 1.645z"/><path fill="#fff" d="M84.652 126.72a7.918 7.918 0 013.393.632c1 .655.746 1.62.144 2.4a4.255 4.255 0 01-1.407 1.194c-1.488.776-3.525 1.221-4.975.525-1.988-.954-1.711-4.427-.372-5.849l.19-.137a2.38 2.38 0 003.035.92l-.008.315z"/><path fill="#fff" d="M83.352 134.236c-.327-.22-1.872-1.81-1.476-2.4l.114-.289a6.125 6.125 0 004.792-.594 4.272 4.272 0 001.407-1.194l.472.061a3.257 3.257 0 01-.343 4.085 4.198 4.198 0 01-4.966.331z"/><path fill="#00bac7" d="M81.085 120.339c-.411 1.741-.381 3.848.54 5.149l-.19.137c-1.5-.62-7-4.239-9.265-5.469a9.369 9.369 0 00-2.632-1.263c-.836-.137-1.621.665-2.4.906a5.046 5.046 0 01-3.681-.366c-1.647-.794-5.239-2.485-3.484-4.761.586-.76 1.636-.161 2.328.137 1.6.69 4.632 1.843 5.583-.411a3.6 3.6 0 00.266-1.171c.18-2.914-2.742-2.964-4.389-4.481-.63-.579-.068-1.87.669-2.114.868-.288 2.146.433 2.936.715 1.6.569 3.995 1.1 4.831 2.761.677 1.346.053 2.769.456 4.13a3.667 3.667 0 001.574 1.8c1.545 1.095 4.99 3.248 6.6 4.237l.258.064z"/><path fill="#def6f8" d="M68.359 26.111l-3.194 1.346c-.061.748-.19 1.489-.388 2.213l2.548 2.366a14.96 14.96 0 01-2.176 3.78l-3.308-1.034c-.525.536-1.1 1.02-1.719 1.445l.441 3.461a14.883 14.883 0 01-4.085 1.491l-1.871-2.929c-.746.069-1.498.069-2.244 0l-1.871 2.929a14.699 14.699 0 01-4.085-1.491l.441-3.461a11.636 11.636 0 01-1.719-1.445l-3.308 1.034a14.96 14.96 0 01-2.176-3.78l2.548-2.366a12.213 12.213 0 01-.388-2.213l-3.194-1.346c.037-1.465.29-2.916.753-4.306l3.461-.159c.31-.685.685-1.34 1.118-1.955l-1.59-3.1a15.09 15.09 0 013.332-2.807l2.753 2.116a11.731 11.731 0 012.115-.776l.76-3.392a14.845 14.845 0 014.344 0l.76 3.392a11.45 11.45 0 012.107.776l2.761-2.115a14.88 14.88 0 013.324 2.815l-1.589 3.1a11.64 11.64 0 011.125 1.955l3.461.159a15.09 15.09 0 01.753 4.297zm-7.964.418a6.91 6.91 0 10-6.914 6.945 6.906 6.906 0 006.919-6.945h-.005z"/><path fill="#00bac7" d="M62.746 90.08a9.274 9.274 0 00-1.636 2.412c-.266.806.4 1.711.54 2.51a5.017 5.017 0 01-.92 3.575c-.989 1.536-3.24 4.815-5.225 2.738-.662-.692.083-1.65.479-2.282.928-1.483 2.515-4.3.433-5.583a3.57 3.57 0 00-1.118-.44c-2.854-.618-3.344 2.267-5.089 3.665-.671.538-1.859-.212-1.992-.973-.157-.9.754-2.053 1.156-2.8.8-1.489 1.681-3.78 3.445-4.358 1.438-.47 2.746.365 4.154.167.8-.189 1.51-.645 2.015-1.293 1.316-1.354 2.526-2.822 3.743-4.267.35-.485.734-.945 1.148-1.377l.616-.25a9.194 9.194 0 002.442 3.24c-1.819 2.364-3.237 4.057-4.191 5.316zm-6.93-25.808l-5.24 2.153a18.939 18.939 0 01-.639 3.559l4.176 3.78a23.882 23.882 0 01-3.568 6.07l-5.423-1.665a18.731 18.731 0 01-2.815 2.33l.723 5.539a24.634 24.634 0 01-6.694 2.4l-3.065-4.7a19.852 19.852 0 01-3.681 0l-3.066 4.7a24.636 24.636 0 01-6.693-2.4l.722-5.538a18.774 18.774 0 01-2.814-2.327l-5.424 1.666a23.91 23.91 0 01-3.567-6.07l4.176-3.781a18.94 18.94 0 01-.639-3.56l-5.241-2.156a23.77 23.77 0 011.24-6.9l5.674-.26a18.764 18.764 0 011.842-3.124l-2.61-4.96a23.958 23.958 0 015.462-4.5l4.518 3.386a18.818 18.818 0 013.453-1.24l1.248-5.446a24.762 24.762 0 017.119 0l1.248 5.446c1.189.3 2.345.715 3.453 1.24l4.518-3.385a23.953 23.953 0 015.461 4.5l-2.609 4.959c.713.98 1.329 2.027 1.839 3.126l5.675.259a23.732 23.732 0 011.241 6.899zm-13.06.67A11.327 11.327 0 1031.43 76.077a11.345 11.345 0 0011.326-11.135z"/><path fill="#0e2238" d="M140.46 70.236a77.654 77.654 0 016.931-3.569.5.5 0 10-.413-.91 86.933 86.933 0 00-9.507 5.08c-.4.263-1.319.445-1.419.953-5.532-3.25-7.591-2.949-8.415-3.119a.5.5 0 00-.615.728c.15.237.178.242 1.648.418 5.692.682 15.562 7.608 18.243 16.117a.5.5 0 10.954-.3c-1.594-5.058-5.608-9.918-10.9-13.284.302-.27 3.281-1.991 3.493-2.114zM171 121.001a.503.503 0 00.6-.367 64.589 64.589 0 001.741-7.648c.014-.306.055-.609.124-.907a.504.504 0 00-.193-.527.518.518 0 00-.376-.087.487.487 0 00-.326.207.497.497 0 00-.079.181c-.08.343-.129.693-.146 1.046a65.282 65.282 0 01-1.716 7.5.493.493 0 00.061.378.486.486 0 00.133.142.485.485 0 00.177.082zm5.173-.229a.503.503 0 00.652-.273 29.692 29.692 0 001.818-6.247c.355-2.139-1.338-1.441-.964-.688.009 1.614-1.165 5.052-1.78 6.556a.503.503 0 00.274.652zm6.357-.771a18.616 18.616 0 001.734-6.907c0-.479-1.061-2.228-1 0a16.71 16.71 0 01-1.645 6.494.498.498 0 00.09.548.5.5 0 00.821-.135zm-30.592 30.825c-2.3-3.961-2.126-3.6-2.147-3.706a.502.502 0 00-.959-.203.5.5 0 00-.041.191c-.012.52.517 1.13.664 1.4a141.99 141.99 0 008.693 13.654.49.49 0 00.325.219.504.504 0 00.384-.083.498.498 0 00.194-.534.512.512 0 00-.088-.18c-2.863-4.032-5.103-7.447-7.025-10.758zm4.049 5.066a.503.503 0 00.463.317.49.49 0 00.466-.312.495.495 0 00-.005-.387 38.56 38.56 0 01-2.124-7.333.5.5 0 00-.727-.408.504.504 0 00-.273.486 38.12 38.12 0 002.2 7.637z"/><path fill="#0e2238" d="M193.185 173.121a42.997 42.997 0 00-2.544-8.638 35.043 35.043 0 01-1.631-4.534 4.39 4.39 0 002.19-.834 1.94 1.94 0 00.363-1.1 26.824 26.824 0 00-.584-7.024 3.466 3.466 0 00-1.037-2.246 6.045 6.045 0 00-3.54-.627c-.614.014-.592.008-.645.017-1.8-.677-4.245-.011-5.877.1-3.8.259-8.267-.443-12.141-.729a.498.498 0 00-.481-.633h-.107a28.747 28.747 0 01-9.008-1.031 131.22 131.22 0 01-15.542-5.369c-6.868-2.9-7.1-3.245-7.978-4.873a.506.506 0 00.085-.129c1.213-2.7 1.478-5.73.752-8.6a8.463 8.463 0 00-.272-.863l-.941.337s.2.545.232.721c.614 2.41.481 4.949-.382 7.28-.8-2.411-1.209-5.242-2.137-6.982-.544-1.021-.878-.96-1.03-.935a.508.508 0 00-.384.695.499.499 0 00.192.229c1.205 1.53 1.464 4.673 2.56 7.747a7.732 7.732 0 003 3.759c.94.622 1.813 1.339 2.606 2.139a5.096 5.096 0 011.049 1.6 21.522 21.522 0 011.008 3.583c.646 2.986 3.642 4.491 5.745 6.427a39.058 39.058 0 013.921 4.183c2.451 3.041 4.732 6.053 5.712 9.453.367 1.28-.275 2.79.208 4.276.544 1.51 2.545 1.459 2.526 2.9-.019 1.261-1.385 2.087-2.523 2.555-6.139 2.458-15.1 2.166-21.661 1.481-2.578-.269-5.881-.559-7.9-2.188-3.2-2.607 2.457-6.35.355-9.6-.855-1.325-2.71-2.01-3.821-2.8a26.62 26.62 0 01-5.286-4.958c-5.391-6.644-9.417-14.672-13.342-23.021-2.892-6.152-8.182-12.769-9.842-18.726-.768-2.555-2.954-6.134 1.046-9.036a.453.453 0 00.105-.1 76.697 76.697 0 0013.975 8.522 7.413 7.413 0 004.1 1.049c1.713-.226 3.177-1.57 4.546-2.656a42.6 42.6 0 006.1-5.856c2.126 1.015 13.01 4.976 13.47 5.122-.549 1.962-.619 4.368 2.338 6.485.805.561 1.683 1.01 2.609 1.332a.497.497 0 00.637-.308.497.497 0 00-.308-.637 9.71 9.71 0 01-2.361-1.2c-4.632-3.317-.745-7.183.443-11.566.628-2.33.116-4.223.124-6.408 1.907-2.249 6.456-7.717 8.69-9.51a.503.503 0 00.074-.702.5.5 0 00-.701-.078 44.718 44.718 0 00-4.359 4.44c-1.429 1.622-8.3 9.714-8.491 9.95-1.086 1.317-2.316 2.808-3.782 3.243-1.681.5-3.333-1.224-4.54-2.482-3.87-4.033-5.943-8.607-10.67-11.164a16.494 16.494 0 00-2.623-.877c-5.653-1.44-5.085-2.677-2.341-5.565 5-5.266 5.65-6.867 7.278-10.458a32.055 32.055 0 013.807-6.854 29.602 29.602 0 014.483-4.514 75.471 75.471 0 019.084-6.149c5.291-3.2 10.957-6.438 16.962-6.438.6 0 .569-.87.416-1.1a24.62 24.62 0 00-3.1-3.687 5.728 5.728 0 00-5.024-1.46c-.354-.502-.74-.98-1.155-1.433a.5.5 0 10-.627.78 4.6 4.6 0 01.656.846c-6.175 1.351-13.814 7.523-16.942 10.673a7.899 7.899 0 00-4.538-3.017c-3.893-.6-8.306 1.994-11.66.04-2.045-1.2-1.982-4.2-3.009-6.374-.345-.744-2.02-2.095-1.859-3.282a.493.493 0 00-.04-.273c.132-.177.278-.344.435-.5.992.4 1.534 3.017 3.758 2.19 1.976-.739 1.122-3.229 1.7-3.99.7.33 1.978 1.761 3.024 1.383a1.325 1.325 0 00.786-1.037c.448-1.855-1.439-3.56-2.815-4.253-3.557-1.81-6.036.223-9.113.52-.948.088-2.348.077-2.623-.83-.64-2.072 3.744-3.833 4.947-5.492 1.414-1.955 1.444-4.487 2-6.61.949-3.684 3.957-9.287 7.669-10.213a.502.502 0 00.137-.914.506.506 0 00-.379-.057c-4.342 1.084-7.454 7.282-8.395 10.933-.555 2.135-.593 4.554-1.838 6.274-1.1 1.517-6 3.44-5.094 6.372.226.741.936 1.544 2.935 1.572a6.636 6.636 0 00-1.3 4.444 2.08 2.08 0 001.837 2.126 1.857 1.857 0 001.455-.819 6.335 6.335 0 001.368 2.213c.186.206.354.428.5.664 1.008 2.136.919 5.358 3.41 6.814 3.774 2.2 8.3-.486 12.009.084a7.048 7.048 0 013.947 2.7.646.646 0 00.037.037 7.923 7.923 0 00-1.423 2.085l-.079.284a4.32 4.32 0 00.933 4.43c-5.635 4.718-6.748 8.435-9.068 13.325a33.207 33.207 0 01-6.5 8.568c-.979 1.016-2.464 2.546-1.9 4.1.5 1.4 2.487 2.1 4.319 2.633a9.264 9.264 0 01-2.284 2.336c-.619.226-.867 1.117-.491 1.415 1.8 1.421 3.52 2.963 5.132 4.421a.503.503 0 00.807-.203.503.503 0 00-.136-.539c-1.526-1.38-3.153-2.835-4.852-4.2a5.976 5.976 0 001.052-.8 27.823 27.823 0 001.834-2.14c.703.182 1.39.42 2.055.711 3.794 2.055 5.888 5.66 8.638 9.006-1.659 1.842-1.311 3.144-8.6 9.067-3.084 2.507-3.961 2.559-7.091 1.077a61.942 61.942 0 01-6.5-3.462A118.635 118.635 0 0188 99.086c-2.223-1.983-4.175-4.344-6.493-6.27-1.361-1.134-2.766-.91-4.046-1.594-1.379-.742-2.546-2.288-3.978-3.233-3.35-2.207-6.587-2.54-8.536-6.67-.885-1.962-.037-2.493.35-2.678.147.351.31.695.488 1.027a.499.499 0 10.881-.473 10.982 10.982 0 01-.629-1.4 3.45 3.45 0 01-.155-2.346 1.76 1.76 0 011.634-1.16.504.504 0 00.124-.017c.17.37.376.722.615 1.051a.5.5 0 00.809-.587c-1.076-1.484-1.78-4.4-.15-5.385.407.333.725.76.927 1.245a.502.502 0 00.66.288.5.5 0 00.263-.67 4.14 4.14 0 00-1.5-1.849c-.726-.6-1.411-1.174-1.459-2.016-.054-.819 1.658-1.315 2.393-1.129 2.878.955 4.336 3.11 6.737 5.028a.5.5 0 10.624-.78c-2.518-2.015-3.817-4.127-7.081-5.208a3.89 3.89 0 00-3 .711 1.7 1.7 0 00-.673 1.44 3.313 3.313 0 001.3 2.28c-1.361 1.044-1.352 2.987-.839 4.611a2.778 2.778 0 00-2.336 1.836 4.46 4.46 0 00.007 2.57c-.848.39-2.074 1.43-.9 4.03 2.132 4.523 5.571 4.9 8.894 7.088 1.407.93 2.466 2.424 4.056 3.28 1.375.735 2.774.56 3.879 1.48 2.257 1.876 4.23 4.254 6.468 6.25a126.464 126.464 0 008.048 6.581c-3.871 2.908-2.547 6.533-1.667 8.941.126.346.245.671.339.964-1.26.167-2.532.207-3.8.119-2.638-.114-6.851-1.391-8.7 1.42a6.785 6.785 0 00-.812 1.779c-1.708-1.053-4.8-2.989-6.268-4.03a3.16 3.16 0 01-1.343-1.512c-.372-1.253.261-2.718-.49-4.213-1.026-2.034-3.881-2.479-5.665-3.231a4.155 4.155 0 00-2.7-.5c-1.1.364-1.772 2.116-.853 2.956 1.707 1.581 4.394 1.566 4.23 4.085-.02.344-.096.682-.226 1-.775 1.787-3.38.843-5.159.047-.722-.323-1.926-.869-2.689.12a2.338 2.338 0 00-.513 2.054c.392 1.575 2.464 2.638 4.164 3.458a5.545 5.545 0 004.07.394c.7-.216 1.573-.978 2.093-.9a9.08 9.08 0 012.537 1.223c1.828.992 6.748 4.156 8.721 5.232-1.141 1.806-1.154 4.885.694 5.971-.329 1.145 1.7 2.836 1.725 2.852.3.203.624.368.965.489-.318 1.118 1.327 2.688 2.063 2.946a3.485 3.485 0 004.324-2.065c2.029 1.382 5 2.2 5.785-.021.315-.945-.545-1.616-1.391-2.142a12.175 12.175 0 002.512-2.825 2.67 2.67 0 001.834.646 1.408 1.408 0 001.239-.889c.274-.791-.327-1.777-.879-2.464.071-.129.192-.366.269-.532 1.833 2.9 3.6 6.209 3.988 7.063-5.3 1.508-12.474 5.222-15.742 9.838-4.055 5.728-1.167 14.427 4.442 18.369 5.759 4.03 12.308 4.383 18.642 4.724 5.436.295 5.545.286 7.986 1.071 1.562.599 3.228.882 4.9.831.722 0 1.444-.039 2.162-.119-.073.167-.149.335-.225.5-.828 1.834-1.86 4.117.414 5.968.363.293.753.549 1.167.764-2.447 2.1-3.615 1.068-5.647 1.62-1.26.342-1.535.945-2.905 1.609-3.5 1.727-7.957 1.271-11.239 4.2-2.5 2.219-3.2 6.216-.588 8.487 1.626 1.409 4.036 1.647 6.142 1.854 4 .393 8.393.419 12.651.428 5.971.013 13.4 1.342 18.569-.4a.499.499 0 00.412.423c3.085.522 6.239.482 9.309-.119a2.886 2.886 0 001.57-.677c.444-.378.763-.881.916-1.444.079-.449.126-.903.141-1.359 3.677-3.747 1.648-11.388.511-14.724 1.75-.825 2.682-1.95 2.7-3.272a2.589 2.589 0 00-1.587-2.322c-.75-.466-.981-.634-1.092-1.325.148-.012.627-.067.627-.067 2.611.2 3.893 1.739 6.166 1.739a4.503 4.503 0 004.676-3.731c.7.63 1.577 1.239 2.3 1.97.781.708-.557 1.854-.144 3.444a3.097 3.097 0 001.37 1.792c.136.09.334.161.473.235-.285.621-.669.874-1.438 1.475-.49.384-.275.2-2.064 1.821-3.054 2.767-5.851 6.784-2.71 9.439 1.668 1.41 4.2 1.268 6.345.839 4.68-.921 8.722-3.595 12.965-5.353 1.92-.8 4.536-1.168 6.085-2.906 1.749-1.955 1.532-4.951 1.146-7.353zM105.694 46.364a.575.575 0 01-.489-.089 1.574 1.574 0 01-.513-1.1 5.676 5.676 0 011.416-4.164.49.49 0 00.121-.3c3-.446 5.07-2.087 8.069-.56 1.129.567 2.587 1.912 2.294 3.123-.06.248-.134.325-.155.333-.227.084-.971-.472-1.331-.737-.7-.516-1.359-1.006-1.895-.573-1.272 1.028-.14 3.411-1.5 3.921-1.451.54-1.694-1.909-3.293-2.263-.548-.127-.974.417-1.559 1.175-.514.664-.942 1.184-1.165 1.234zm22.028 15.352l.051-.214a7.001 7.001 0 011.615-2.132c4.526-4.7 17.369-14.3 21.97-9.7.976.953 1.87 1.986 2.671 3.09-5.755.2-11.212 3.221-16.747 6.565a76.346 76.346 0 00-8.808 5.922 3.344 3.344 0 01-.752-3.531zm-.748 43.579c.485.556.707.774 1.076 1.159 1.536 1.6 3.385 3.389 5.547 2.749 1.758-.523 3.15-2.21 4.269-3.565.191-.232 2.222-2.617 3.049-3.6a14.875 14.875 0 01-.123 5.007c-.46 1.694-1.447 3.482-2.082 5.208a26.857 26.857 0 01-3.037-1.173c-.885-.325-5.668-2.038-7.157-2.607-1.92-.738-2.909-1.189-2.93-1.2.497-.632.96-1.291 1.388-1.973v-.005zm-45.4 15.147c.785-3.716 3.155-3.615 6.869-3.173 1.563.211 3.142.262 4.715.152.535-.049.96-.089 1.151-.312a46.887 46.887 0 004.824 9.633s-.173.482-.326.794a8.453 8.453 0 00-2.073-1.35c.2-.108.394-.223.581-.346a.491.491 0 00.217-.315.498.498 0 00-.384-.594.494.494 0 00-.377.069 8.243 8.243 0 01-9.284-.2c-1.757-1.381-1.084-2.262-2.089-4.53a.503.503 0 00-.671-.289.512.512 0 00-.271.292.5.5 0 00.028.397c.673 1.522 1.24 4.435-.09 5.308a1.901 1.901 0 01-2.361-.786c-.874-1.228-.811-3.254-.459-4.75zm-9.119-.7a9.822 9.822 0 00-2.836-1.344c-1.085-.174-1.969.716-2.613.918a4.545 4.545 0 01-3.339-.34c-1.97-.95-4.624-2.278-3.294-4 .238-.307.686-.177 1.485.18 2.471 1.106 5.419 1.9 6.493-.569a4.14 4.14 0 00.3-1.329c.215-3.3-2.988-3.435-4.55-4.881-.308-.282.07-1.133.49-1.272.643-.216 1.884.453 2.61.712 1.55.555 3.815 1.058 4.551 2.515.585 1.164-.005 2.609.44 4.093.343.85.958 1.561 1.748 2.023 1.538 1.091 4.925 3.208 6.564 4.214a8.261 8.261 0 00.164 4.027c-1.757-1.005-6.728-4.145-8.213-4.945v-.002zm9.131 6.486a2.993 2.993 0 002.73.864.507.507 0 00.336.126 7.502 7.502 0 013.116.548.9.9 0 01.439.579 1.55 1.55 0 01-.414 1.1 3.855 3.855 0 01-1.236 1.053 5.626 5.626 0 01-4.382.575c-1.733-.673-1.548-3.488-.589-4.843v-.002zm.742 5.945a7.046 7.046 0 004.69-.785 4.84 4.84 0 001.359-1.078 2.777 2.777 0 01-.374 3.2 3.729 3.729 0 01-4.372.309 5.067 5.067 0 01-1.303-1.644v-.002zm4.1 4.966c-.454-.159-1.7-1.5-1.4-1.775a4.951 4.951 0 003.621-1.1c.358-.324.635-.728.81-1.178 1.106 2.029-.798 4.831-3.029 4.055l-.002-.002zm8.1-4.4c-.186.157-.389.394-.594.565-.886-.594-1.157-1.014-.963-1.468.156-.353.372-.678.638-.959.775-.893 1.546-1.012 2.857-.357a8.823 8.823 0 01-1.937 2.224l-.001-.005zm4.929-2.281c-.048.14-.309.2-.46.229-.888.143-3.666-3.314-6.134-.476a4.335 4.335 0 00-.811 1.232c-.6 1.412.724 2.339 1.92 3.065.307.186 1.4.821 1.29 1.161a.921.921 0 01-.54.6 3.808 3.808 0 01-2.642-.441c-1.191-.574-1.233-.795-1.333-.884a3.692 3.692 0 00-.778-2.89.502.502 0 00-.261-.168 3.614 3.614 0 00-.731-2.46c.2-.383.274-.819.215-1.247-.249-1.495-2.142-1.812-3.652-1.924.308-.403.505-.881.571-1.385a8.876 8.876 0 009.466 1.847c.714.349 1.409.735 2.082 1.156.285.21.546.451.778.718.794.873 1.114 1.602 1.021 1.872l-.001-.005zm22.334 38.1c-1.906-.345-3.63-1.261-5.688-1.444-8.215-.743-16.1-.01-23.048-4.87-5.141-3.611-7.941-11.69-4.2-16.972 3.137-4.432 10.1-8.015 15.245-9.468a.508.508 0 00.105-.044c3.915 8.241 7.9 16.172 13.259 22.781a27.64 27.64 0 005.484 5.143c1.1.781 2.871 1.46 3.56 2.526a2.524 2.524 0 01.085 2.3 18.727 18.727 0 01-4.801.048h-.001zm32.294 25.361c-2.74.538-5.551.614-8.316.223 2.95-1.139 4.567-2.015 7.761-2.07a7.988 7.988 0 002.285-.01c-.019.173-.041.34-.068.5a1.908 1.908 0 01-1.661 1.357h-.001zm1.971-3.1a.564.564 0 00-.063.046 2.297 2.297 0 01-1.728.251c-3.818-.331-6.791 1.372-9.638 2.383-5.1 1.912-12.441.512-19.132.5-4.242-.008-8.1-.031-12.208-.433-1.824-.179-4.093-.4-5.481-1.6-2.141-1.861-1.441-5.173.6-6.985 3.486-3.107 8.712-2.061 12.563-5 2.108-1.642 3.935.41 7.17-2.382a.501.501 0 00.17-.429c1.99.704 4.07 1.124 6.177 1.247 6.829.707 15.48 1.069 21.963-1.33 1.084 3.202 2.991 10.391-.392 13.733l-.001-.001zm33.934-39.694c.49 2.246.682 4.545.574 6.84.002.181-.045.358-.134.514a4.907 4.907 0 01-1.651.5c-.5-2.859.578-7.456-1.607-9.867a4.077 4.077 0 012.119.392c.42.44.669 1.015.7 1.622l-.001-.001zM139.625 140.3c-.246-.255-.081.064 4.543 1.909-2.7-.223-3.073-.351-3.4-.342a.645.645 0 00-.062-.021 6.288 6.288 0 00-1.081-1.546zm24.38 30.152c-1.834-.067-3.317-1.593-5.927-1.734-.234.01-.468.032-.7.067a8.492 8.492 0 00-.072-2.818c-1.032-3.579-3.377-6.68-5.895-9.8a40.08 40.08 0 00-4.021-4.291c-2.043-1.881-4.895-3.351-5.446-5.9a26.854 26.854 0 00-.812-3.065c4.569.473 4.6.409 5.807.609a.5.5 0 00.4-.1c3.364 1.228 7 2.4 10.542 3.393a29.565 29.565 0 008.563 1.092c-2.256 3.962-.932 8.829.238 13.131a33.015 33.015 0 011.24 5.908 3.49 3.49 0 01-3.917 3.508zm27.3 9.363c-1.317 1.478-3.811 1.856-5.721 2.647-4.267 1.769-8.269 4.409-12.776 5.3-2.6.518-4.4.315-5.5-.622a2.592 2.592 0 01-1.019-2c-.046-2.688 3.467-5.67 5.284-7.319.932-.845 1.831-1.137 2.34-2.584.11-.653-.536-.943-.811-1.066a2.102 2.102 0 01-.966-.93c-.5-1.035.147-1.667.273-2.725a1.795 1.795 0 00-.542-1.539c-.819-.831-2.112-1.731-2.611-2.275a.926.926 0 00-.365-.278c-.6-5.663-4.549-12.71-1.6-17.981a.49.49 0 00.18.047c3.906.276 8.508 1.016 12.49.746 1.673-.113 4.159-.784 5.66-.075 2.124.987 2.046 4.511 2.018 6.854a14.155 14.155 0 00.279 3.691c1.12 4.579 3.009 6.567 4.295 13.588.335 2.17.548 4.876-.913 6.521h.005z"/><path fill="#0e2238" d="M113.156 22.11a2.15 2.15 0 00-.235.077.51.51 0 00-.368.764.497.497 0 00.618.198c.175-.054.065-.07.746-.082a5.245 5.245 0 015.043 3.358.502.502 0 00.924.03.499.499 0 00.013-.382 6.309 6.309 0 00-6.741-3.963zm.068 5.943c-1.018.265-.893 2.326-.564 3.343.518 1.268 1.925.633 1.876-1.622-.019-.873-.462-1.936-1.312-1.72zm8.816-2.567c1.352 3.678 3.74 8.83 8.854 11.093a.499.499 0 10.405-.914c-3.629-1.606-6.272-4.95-8.321-10.525a33.477 33.477 0 01-1.676-6.148.499.499 0 00-.861-.28.49.49 0 00-.112.375 33.168 33.168 0 001.711 6.399zm9.541 17.261a.501.501 0 00.9-.374c.101-.404.284-.783.536-1.114.024.01.048.022.073.035 1.018.5 1.022.7 1.33.7a.502.502 0 00.473-.662.5.5 0 00-.187-.248 8.873 8.873 0 00-1.089-.65 3.622 3.622 0 011.66-1.04.502.502 0 00.287-.6.504.504 0 00-.564-.353c-2.518.739-3.883 3.688-3.419 4.306z"/></svg>