<svg xmlns="http://www.w3.org/2000/svg" fill="none" viewBox="0 0 200 200" height="700" width="700"><path fill="#fff" d="M119.884 63.063a43.81 43.81 0 01-.992-7.668l.555-.11a4.393 4.393 0 01-.19-.8c-.685.47-3.391-.86-3.809-3.75a5.46 5.46 0 011.576-4.276c-.007-.116-.292-.116-.358-.124a2.519 2.519 0 01-2.291-2.511 6.676 6.676 0 01.971-3.56c.652-1.133 1.056-1.44.934-1.547-.122-.107-.441.064-1.554.082a5.153 5.153 0 01-5.136-2.89c-.183-.312-.453-1.093-.89-1.115-.437-.022-.9.452-1.233.656a3.304 3.304 0 01-2.773.664 2.62 2.62 0 01-1.459-1.875c-.065-.226-.087-1.072-.328-1.19-.241-.116-.956.286-1.218.329a2.912 2.912 0 01-1.124-.027l-.051.328a13.916 13.916 0 00-2.364 3.21c-1.982 5.04-.066 7.68-1.262 12.986a10.473 10.473 0 001.864 8.015 7.558 7.558 0 003.892 2.724l-.007.03c-.231-.025.222 1.932 1.518 3.647 1.714 2.335 3.881 4.276 6.938 4.115 2.823-.14 5.326-1.816 7.463-3.531.424-.343 1.007-1.028 1.627-1.583l-.299-.23z"/><path fill="#def6f8" d="M190.134 171.285l-12.644 4.83-.058-.1c10.905-6.885 10.088-6.424 10.156-6.311l2.546 1.581z"/><path fill="#00bac7" d="M175.725 165.398l-10.491 4.793 7.945 5.953 11.344-7.23-8.798-3.516z"/><path fill="#def6f8" d="M171.79 178.295l-8.271 3.16-23.251-22.222 6.902-.577 24.62 19.639z"/><path fill="#fff" d="M167.094 152.938l-23.069 3.209c.106.084 27.157 21.661 28.665 22.871L195 164.929l-27.906-11.991zm-1.86 17.253l10.491-4.793 8.8 3.516-11.344 7.231-7.947-5.954zM156 96.929c-.153-1.364-.5-3.29-1.832-4.034-.795-.446-1.123.226-1.116.941a16.08 16.08 0 00.876 4.042c.036.152.393 2.2.379 2.195-.261-.092-.423-1.13-.482-1.342-.255-.846-1.371-4.72-2.75-4.385-1.74.418.9 6.33.62 6.428-.124.044-.73-1.291-.781-1.394a17.76 17.76 0 00-2.123-3.472c-.211-.256-.78-.876-1.167-.555-1.167.978.875 4.6 1.4 5.523.124.219.722.86.707 1.116-.019.526-2.924-4.793-4.37-4.02-.7.38-.043 2.109.132 2.605.447.977.768 2.006.955 3.064.1 1.35-.138 2.634-.007 3.889l-.183.021a37.794 37.794 0 00-4.844.927c-.459.081-1.532.445-1.955.124-.175-.131-.168-.474-.066-.919a7.82 7.82 0 00-1.78-.263c-1.211-.168-2.422-.321-3.633-.5l.058-.416c-.671-3.808-.372-7.967-.226-11.8.27-6.673.415-5.636.321-5.829-.933.453-7.83 4.494-9.754 5.683l.168.278c-.183 4.807.1 11.592 1.393 16.254.912 3.269 2.5 5.83 6.085 5.982 2.21.1 4.465-.583 6.617-.977 3.429-.635 7.186-1.058 10.433-2.386 2.475-1.184 3.521-2.738 5.048-4.866.139-.182.489-.693.533-.766a.112.112 0 01-.029.036A29.748 29.748 0 00156 96.929z"/><path fill="#fff" d="M153.823 98.73c-.245-.848-1.371-4.718-2.75-4.384-1.357.33.011 4.228.241 4.954.027.088.5 1.437.379 1.474-.121.037-.731-1.291-.781-1.394-.487-1.011-2.432-4.742-3.29-4.027-1.169.975.876 4.6 1.4 5.523.124.219.72.861.707 1.116-.008.183-.164-.128-1.057-1.291-.47-.611-2.264-3.293-3.313-2.73-.7.379-.044 2.11.132 2.606.447.976.768 2.006.955 3.064.1 1.35-.138 2.634-.007 3.889l-.183.021a36.402 36.402 0 00-4.844.927c-.46.078-1.531.444-1.955.124-.175-.132-.168-.474-.066-.919a25.524 25.524 0 011.211-3.13c2.863-8.457 2.769-15.964 1.182-24.71-.264-1.458-1.269-5.5.723-5.844 4.479-.772 20.793 1.006 21.6 2.006 1.431 1.786-1.757 18.766-2.641 23.229-.217 1.095-.331 3.652-1.3 4.429-1.141.915-3.188.985-4.574 1.094l-.117-.022c.65-3.067 1.437-10.31-1.306-11.84-.795-.445-1.123.226-1.116.94a16.08 16.08 0 00.876 4.043c.036.153.394 2.2.379 2.195-.266-.087-.424-1.131-.485-1.342z"/><path fill="#00bac7" d="M154.276 41.176l-7.135-11.1a8.67 8.67 0 003.177-6.161 8.657 8.657 0 00-2.36-6.518 8.392 8.392 0 00-6.012-2.302 8.389 8.389 0 00-5.873 2.638c-3.445 3.568-3.313 9.128-.066 12.148a8.32 8.32 0 009.384 1.338l7.17 11.108 1.715-1.15zm-16.583-13.22a6.07 6.07 0 01.185-8.572 5.82 5.82 0 014.116-1.817 5.833 5.833 0 014.184 1.656 6.068 6.068 0 01-.11 8.493 5.832 5.832 0 01-4.137 1.896 5.824 5.824 0 01-4.238-1.656z"/><path fill="#fff" d="M146.178 19.223a6.069 6.069 0 01-.11 8.493 5.917 5.917 0 01-8.305.307 6.065 6.065 0 01.039-8.56 5.91 5.91 0 018.376-.24z"/><path fill="#0e2238" d="M100.565 33.348l-.051.328a13.916 13.916 0 00-2.364 3.21 13.368 13.368 0 00-.926 5.122 3.809 3.809 0 00-2.72 4.1 7.366 7.366 0 01-2.19-.475 3.557 3.557 0 01-2.51-3.1 5.01 5.01 0 011.824-3.706c.467-.438 1.69-1.066 1.744-1.788.055-.722-1.133-1.67-1.48-2.24-2.82-4.624.665-9.425 6.784-9.01.985.067 2.313.63 3.283.256.883-.341 1.359-1.637 1.853-2.364a7.154 7.154 0 013.341-2.707 5.443 5.443 0 015.509 1.642c.6.593 1.27 1.913 2.174 2.064.883.148 1.875-.56 2.641-.882a6.676 6.676 0 014.961-.511 4.581 4.581 0 012.845 3.67c.106.73-.111 1.89.423 2.5.473.534 1.524.585 2.152.883 2.852 1.348 3.924 4.593 2.218 8.244-.267.57-1.239 1.619-1.036 2.3.212.707 1.392 1.219 1.875 1.743a4.856 4.856 0 01.679 5.735 9.58 9.58 0 01-3.874 3.633c-.584.307-2.371.759-2.634 1.445-.131.342.6.933.766 1.189a2.265 2.265 0 01.1 2.6c-2.13 3.268-5.577.877-6.507-1.94a4.573 4.573 0 01-.19-.8c-.372.255-1.055-.043-1.386-.22a4.693 4.693 0 01-2.418-4.719c.08-.623.284-1.224.601-1.766.139-.277.984-.984.97-1.322 0-.116-.292-.116-.358-.124a2.515 2.515 0 01-2.291-2.511 6.792 6.792 0 01.971-3.56c.7-1.191 1.054-1.448.934-1.547-.12-.1-.432.068-1.554.082a5.153 5.153 0 01-5.136-2.89c-.183-.313-.453-1.093-.89-1.115-.437-.022-.9.45-1.233.656a3.322 3.322 0 01-2.773.664 2.618 2.618 0 01-1.459-1.875c-.065-.226-.087-1.072-.328-1.19-.241-.116-.956.285-1.218.329a2.91 2.91 0 01-1.122-.033z"/><path fill="#fff" d="M103.163 155.899h27.015l20.1 17.779-28.378 6.661c-16.546-21.526-12.3-15.978-18.737-24.44zm3.932 1.918l8.31 10.083 21.245-3.728-6.9-6.355h-22.655zm12.76-70.717c.693.3-.081 8.44-.613 9-.906.947-4.261 2.666-4.859 2.568-.993-.163-4.538-2.5-4.837-3.2-.321-.752.124-7.084.212-9.01.328-.005 8.602-.007 10.097.642z"/><path fill="#def6f8" d="M136.65 164.172l-6.9-6.355H107.1l8.31 10.083s2.49-.44 21.24-3.728zm-26.695.628l-4.662.2 3.035 6.938c6.92-.848 6.378-.753 6.478-.825l-4.851-6.313z"/><path fill="#def6f8" d="M102.2 162.676l5.61-.292.182-.138 1.963 2.553-4.662.2 3.035 6.938c6.914-.848 6.378-.753 6.478-.825l7.092 9.222 12.629-2.962a28.598 28.598 0 002.035 3.2l-25.476 3.954c-8.462-20.796-6.486-15.939-8.886-21.85zm49.734-25.913c-.518 2.374-1.306 5.02-3.152 6.7-2.75 2.51-7.063 3.1-10.55 3.874-6.808 1.517-13.941 3.6-20.909 4.144-4.158.324-8.193-1.518-12.373-1.518-3.473 0-6.924.514-10.375.817-2.005.177-4.815.587-6.558-.693-1.65-1.211-3.407-4.37-1.824-6.048l-.088-.088c-3.086-.5-6.27-.784-9.017-1.744-3.955-1.382-7.219-3.561-11.089-5.326-3.6-1.641-7.653-2.371-7.617-7.092.044-5.646 2.867-14.32 9.382-15.072 3.691-.427 10.827 1.5 14.4 3.662l.094-.1c.854.8 2.191.449 8.536 2.021 8.344 2.068 15.983 3.895 24.4.686 1.716-.654 4.662-1.474 5.961-2.9l.073.073c1.079-.015 1.562 1.844 2.123 2.575.561.731 1.721.816 2.575.89 6.188.535 25.9-2.411 26.483 10.039a19.61 19.61 0 01-.475 5.1z"/><path fill="#00bac7" d="M109.758 86.453c-.088 1.926-.533 8.258-.212 9.01.3.7 3.844 3.032 4.837 3.2.6.1 3.953-1.621 4.859-2.568.532-.555 1.306-8.7.613-9-1.495-.644-9.769-.642-10.097-.642zM86.711 90.48c-2.028-2.667-1.987-3.444-7.04-10.076-.829-1.086-2.5-2.428-2.743-3.844-.21-1.22.75-2.642 1.181-3.714 1.028-2.554 1.754-5.26 2.926-7.755 2.442-5.2 7.786-5.581 12.833-6.464 1.241-.217 2.478-.455 3.728-.62.124-.016 1.06-.257 1.156-.12a7.352 7.352 0 003.892 2.724l-.007.03c-.138-.015.1.933.132 1.014a9.765 9.765 0 001.386 2.633c1.73 2.323 3.881 4.27 6.938 4.115 2.823-.143 5.33-1.811 7.463-3.531.424-.342 1.007-1.03 1.627-1.583a2.931 2.931 0 011.423-.84c.787.08 1.54.36 2.189.81 1.636.8 3.2 1.737 4.778 2.656a20.542 20.542 0 014.166 2.722c2.123 2.057 1.926 5.334 2.233 8.06.239 2.066.637 4.11 1.189 6.115.311 1.144.968 2.677.686 3.889-.228.977-1.677 1.673-2.715 2.18-.68.334-8.669 4.915-11.942 7.085a88.243 88.243 0 00-.8 14.941c.053 1.562.985 5.822-.218 7.157a.097.097 0 00-.022.03c-1.3 1.422-4.245 2.242-5.961 2.9-10.829 4.127-20.1-.131-30.583-1.97a4.659 4.659 0 01-2.357-.737c-1.88-1.8.094-6.851.664-8.864a94.433 94.433 0 003.798-18.943z"/><path fill="#fff" d="M103.768 56.628c-.817.1-2.1.073-2.415-1.926a3.461 3.461 0 012.058.284c.679.332 1.553 1.5.357 1.642zM101.492 159.1c-1.807 7.3-1.635 6.7-1.707 6.8-11.873-7.267-11.063-6.7-11.017-6.8h12.724zm-2.867 11.4c.075.1.2-.6-2.977 12.261L82.166 182l-.007-.014L98.625 170.5z"/><path fill="#0e2238" d="M97.406 45.364c0 .11.064.083-.175.1a4.419 4.419 0 01-2.728.642 3.8 3.8 0 012.721-4.1c0 1.11.076 2.219.182 3.358z"/><path fill="#fff" d="M86.025 149.999c-5.013-.234-10.034-.2-15.043.1-2.058.076-4.54.17-6.245-1.2a2.438 2.438 0 01-.5-3.67c.883-.971 2.256-1.143 3.386-1.678 1.891-.894 3.312-2.4 5.471-2.721l.124-.264c5.131 2.578 7.538 2.521 12.884 3.393l.088.088c-1.583 1.678.153 4.866 1.824 6.048l-.62.015a5.203 5.203 0 00-1.369-.111z"/><path fill="#00bac7" d="M81.414 156.724s-9.894 4.5-10.223 4.647c0 .106 8.161 6.947 9.625 8.186l10.491-5.983-9.893-6.85z"/><path fill="#fff" d="M74.425 181.573l-13.307-.744c5.284-7.955 4.725-7.137 4.9-7.325l8.407 8.069z"/><path fill="#00bac7" d="M69.574 38.7a2.298 2.298 0 01-.263-.518c-.022-.043-.146-.67.635-.948.781-.278 1.447 1.2.824 1.707a.779.779 0 01-1.196-.241zm-2.868-5.44c.277-2.358 5.406-.57 1.5-6.763a4.186 4.186 0 00-.839-.992c-.778-.654-2.48-.68-2.2.839.236 1.29 2.366 2.814.773 3.524-1.369.609-2.37-1-2.874-2.4-.045-.123-.161-.437-.161-.46 0 0 .008 0 .015.023-.569-5.18 5.447-5.186 7.3-2.218 1.442 2.306 2.645 4.7.875 7.018-.562.736-1.385.949-1.787 1.766-.349.708.665 1.774-.1 2.334-1.377 1.022-2.635-1.531-2.502-2.671zm-.146 10.78a.8.8 0 01-.1-1.13c.452-.716 1.9.04 1.721.823a.8.8 0 01-1.094.554 2.456 2.456 0 01-.527-.248z"/><path fill="#def6f8" d="M64.649 158.854l-7.945 2.969 11.629 10.9 7.332-4.392-11.016-9.477z"/><path fill="#00bac7" d="M63.722 40.452c-.167-1.1.3-1.409.307-2.5.009-2.918-2.482-4.054-5.041-4.968-3.293-1.176-8.011 2.561-4.356 6.267-.139-.059.262.17.394.255 1.225.8 3.058 1.415 3.736.1a.833.833 0 00-.022-.984c-.723-.693-1.979-.6-2.765-1.3-1.162-1.026.2-2.058 1.211-2.028a4.2 4.2 0 011.269.255c6.913 2.45 1.768 4.227 3.013 6.25.6.972 3.172 2.2 3.626.533.247-.902-1.204-1.114-1.372-1.88z"/><path fill="#fff" d="M43.12 152.491l-26.046 20.063 33.961 8.58 10.827-11.622L58 165.806l-.1.1-14.35-3.332 8.937-7.04c12.9 1.346 11.946 1.213 11.98 1.313L70 154.673c-.048-.1 1.929.051-26.88-2.182zm15.08 15.338l-8.025 8.775-25.575-6.041 9.711-7.624c23.15 4.728 23.771 4.866 23.889 4.89z"/><path fill="#fff" d="M76.957 151.938l-23.7 9.317c15.581 14.951 11.757 11.276 24.674 23.681l24.754-17.262c-2.651-1.62 9.552 5.846-25.728-15.736zm-8.624 20.785L56.7 161.822l7.945-2.968 11.016 9.476-7.328 4.393zm2.858-11.353c.33-.146 10.223-4.647 10.223-4.647l9.893 6.851-10.49 5.983c-1.795-1.519-9.626-8.086-9.626-8.187zm-5.966-63.31c-.277.042-.745.162-1.276.283-3.263.745-2.873-.01-2.765-1.262a8.9 8.9 0 00-1.08-3.873l-.226-.147a44.3 44.3 0 002.013-4.161 17.766 17.766 0 012.189-2.831c.43-.525 1.942-2.131 1.444-2.918-.276-.438-1-.117-1.327.05a11.772 11.772 0 00-3.05 2.394c-.114.119-.846 1.06-1.014 1.043-.19-.02.227-.321.35-.474A39.124 39.124 0 0063.8 81.65c.182-.31.619-1.041.241-1.372-.447-.391-1.457.194-1.853.416A15.23 15.23 0 0058 84.737c.065-.11.313-.431.408-.57 2.1-3.06 4.543-5.815 3.684-6.324-.416-.248-1.123.233-1.444.452a16.673 16.673 0 00-3.348 3.093c-.1.119-.941 1.336-1.109 1.277-.168-.06.845-1.613.905-1.7 1.366-1.98 4.146-4.662 3.071-5.347-.78-.5-2.141.7-2.619 1.18a13.8 13.8 0 00-3.495 6.188l-.218-.065c-1.266-3.065-4.483-7.171-6.749-9.615-.4-.436-2.077-1.685-1.773-2.43.5-1.224 4.392-1.512 5.443-1.758 4.047-.948 8.113-1.857 12.22-2.531 1.634-.27 3.9-.85 5.406.13 1.8 1.173 2.635 4.158 3.48 6a104.44 104.44 0 016.019 16.008c.409 1.583 2.261 5.827 1.182 7.4-.613.9-2.8.765-3.735.853-3.128.304-7 .615-10.103 1.082z"/><path fill="#fff" d="M79 79.624l-.109.095c.022 0-.044.145-.059.2a27.614 27.614 0 01-1.876 5.18l-.131.045a59.193 59.193 0 011.051 3.582c.408 1.582 2.259 5.827 1.182 7.4-.612.9-2.8.766-3.735.853-1.832.175-3.67.335-5.5.518a14.96 14.96 0 01-1.138 1.472c-.089.1-.335.492-.489.51l-.043.1a26.332 26.332 0 00-4.188-1.174l-.014-.073c-.985.234-2.167.46-2.649.117-.313-.22-.153-.955-.116-1.38l-.124-.007a8.268 8.268 0 01-1.729-1.43 5.72 5.72 0 01-.854-1.035c1.947-1.587 2.308-3.563 3.414-5.712a17.766 17.766 0 012.189-2.831c.431-.525 1.941-2.13 1.444-2.918-.277-.438-1-.117-1.327.05a11.749 11.749 0 00-3.05 2.394c-.114.119-.846 1.058-1.014 1.043-.19-.022.226-.321.35-.474A38.711 38.711 0 0063.8 81.65c.182-.31.621-1.043.241-1.372-.445-.394-1.459.19-1.853.416A14.9 14.9 0 0058 84.737a359.48 359.48 0 011.3-1.824c.854-1.19 1.773-2.342 2.517-3.6.175-.292.759-1.19.277-1.474-.415-.248-1.123.233-1.444.452a16.67 16.67 0 00-3.35 3.097c-.1.119-.949 1.335-1.109 1.277-.16-.058.845-1.613.905-1.7 1.361-1.977 4.146-4.658 3.071-5.347-.781-.5-2.141.7-2.619 1.18a14.346 14.346 0 00-3.495 6.188c-1.043 3.565-.755 3.158-.978 8.7-.077 1.25.002 2.504.234 3.735.954 4.51 4.545 8.332 8.39 10.645 1.984 1.2 3.837 2.458 6.267 2.094 2.313-.351 4.166-2.284 5.756-3.823 5.592-5.54 8.847-11.237 11.7-15.684A91.947 91.947 0 0079 79.623z"/><path fill="#def6f8" d="M64.445 156.781c-10.464-1.091-11.994-1.219-11.994-1.219l-8.9 7.012 14.343 3.334.1-.099c-3.7-3.553-4.52-4.321-4.731-4.558.001-.002 11.216-4.368 11.182-4.47z"/><path fill="#fff" d="M60.14 140.25c-.618-.618-8.956-3.264-11.417-4.362v13.548c-.028.111 8.656-2.974 10.71-3.305l.022-.015c-1.255-1.487-.39-4.246.685-5.866z"/><path fill="#00bac7" d="M5.022 150.733V137.12l43.7-1.292v13.607c-13.416.396-4.53.132-43.7 1.298zm20.18-2.688l.146-8.12H7.5l-.146 8.12h17.848zm9.272-3.892a3.256 3.256 0 00-2.655-3.707 3.564 3.564 0 00-.511 6.99 3.257 3.257 0 003.166-3.283z"/><path fill="#def6f8" d="M34.314 162.939l-9.711 7.624 25.572 6.041 7.996-8.792-23.857-4.873z"/><path fill="#fff" d="M38.589 149.734l-14.642 7.142-9.937-6.413 24.579-.729zm-6.77-9.288a3.561 3.561 0 011.666 5.922c-.578.6-1.349.978-2.177 1.068-1.605-.11-2.794-1.78-2.656-3.707a3.254 3.254 0 013.167-3.283zm-4.37 24.12l-10.375 7.988 27.512 6.953-5.552 5.406-31.488-10.09 17.3-10.629c2.841.348 2.528.272 2.603.372zm-2.101-24.64l-.146 8.12H7.356l.146-8.12h17.846z"/><path fill="#0e2238" d="M46.715 73.646c2.463 2.656 5.475 6.613 6.652 9.466.1.248.141-.1-.137.918-.676 2.488-.486 3.332-.659 7.63-.082 1.293 0 2.59.244 3.86.877 4.147 4.1 8.244 8.621 10.97 1.817 1.1 3.536 2.229 5.681 2.229 2.761 0 4.759-1.877 6.721-3.8a71.267 71.267 0 0011.521-15.391c.709 1.212.619 1.225.81 1.349-.429 5.109-1.327 9.924-3.733 18.405-.574 2.026-1.976 5.517-1.29 7.981-3.978-1.964-10.175-3.409-13.439-3.038-6.7.774-9.778 9.568-9.825 15.565-.033 4.293 3.114 5.574 6.158 6.811a85.302 85.302 0 018.043 3.948 11.65 11.65 0 00-2.837 1.475 10.455 10.455 0 01-2.9 1.486 5.574 5.574 0 00-2.473 1.38 2.931 2.931 0 00-.313 3.502c.221.358.516.664.866.898 3.337 2.689 8.9.389 21.629 1.211.377-.019.756.006 1.127.077a.498.498 0 00.592-.042c1.738 1.238 4.262 1 6.293.8 10.358-.989 10.715-1.289 16.5-.1 2.22.567 4.51.818 6.8.745 7.005-.544 14.159-2.627 20.98-4.154a.502.502 0 00.158-.911.5.5 0 00-.377-.065c-6.814 1.529-13.94 3.6-20.839 4.134-3.966.316-8.158-1.52-12.335-1.52-3.123 0-5.692.368-10.98.871-1.881.179-4.224.4-5.656-.65-1.5-1.1-3.027-3.917-1.752-5.307 1.568-1.712 7.958-3.177 21.013-7.753 6.933-2.429 13.913-7.054 21.3-6.807a.504.504 0 00.517-.484.499.499 0 00-.484-.516c-6.555-.2-12.678 3.177-18.61 5.675-5.135-1.289-10.287-4.175-15.27-6.966-5.033-2.82-13.386-7.628-19.494-7.274a.497.497 0 00-.473.527.502.502 0 00.527.473c5.9-.3 14.2 4.488 18.951 7.149 4.633 2.594 9.41 5.271 14.239 6.712-.51.2-1.019.391-1.531.57-13.559 4.75-19.006 5.905-21.149 7.761-5.4-.878-7.5-.78-12.65-3.333-2.4-1.187-4.851-2.595-7.237-3.683-3.688-1.683-7.357-2.3-7.324-6.633.044-5.63 2.846-13.875 8.94-14.579 3.46-.406 10.434 1.379 14.077 3.593a.51.51 0 00.308.068 4.81 4.81 0 001.9.567c10.109 1.563 19.9 6.342 31.263 2.01 1.815-.69 4.761-1.5 6.152-3.026 1.44-1.49.425-5.93.371-7.54-.466-13.857 2.787-22.043 1.7-28.4a.508.508 0 00-.199-.338.502.502 0 00-.71.121.497.497 0 00-.076.385c1.044 6.112-2.181 14.364-1.714 28.268.047 1.421.9 5.706-.051 6.767a.494.494 0 00-.075.083c-1.217 1.312-4.084 2.109-5.754 2.75-10.673 4.067-19.775-.149-30.319-2-.772-.138-1.828-.189-2.231-.76-1.35-1.908.351-6.16.933-8.212 3.547-12.5 3.855-17.37 4.17-26.34a.5.5 0 00-.482-.518.515.515 0 00-.517.483c-.077 2.2-.153 4.13-.272 5.97a82.048 82.048 0 00-7.038-9.982c-2.226-2.4-2.261-2.848-1.1-5.24 1.106-2.28 2.014-5.83 3.327-8.625 2.1-4.473 6.439-5.187 11.032-5.943 2.133-.353 3.713-.67 5.142-.86.018 0 .591-.125.814-.15a8.648 8.648 0 007.835 3.095.511.511 0 00.129.083 8.477 8.477 0 011.075 3.683.497.497 0 00.347.436.498.498 0 00.536-.153.508.508 0 00.117-.365 9.988 9.988 0 00-1.039-3.844 15.404 15.404 0 004.19-1.463.511.511 0 00.248-.292.49.49 0 00-.031-.381.501.501 0 00-.673-.217 11.431 11.431 0 01-8.417 1.2 6.88 6.88 0 01-3.624-2.527 9.962 9.962 0 01-1.9-4.847 7.975 7.975 0 01.01-2.185c.72.246 1.5.263 2.23.049a1.2 1.2 0 00.263 1.358 1.718 1.718 0 001.415.325 1.218 1.218 0 01.976.2c.393.258.867.362 1.331.292a.5.5 0 00-.166-.986.933.933 0 01-.69-.186 3.54 3.54 0 00-.572-.263c-.7-.234-1.364.159-1.651-.21-.008-.474.754-1.528 2.2-2.951a.483.483 0 00.064-.585.481.481 0 00-.146-.15 4.73 4.73 0 00.089-.957c.151-.111.238-.373.553-.376.322.033.618.193.823.443a.5.5 0 00.262.176 4.604 4.604 0 00.769 2.774 4.95 4.95 0 004.012 1.834 4.122 4.122 0 004.228-3.13 19.258 19.258 0 012.9.058.501.501 0 00.1-.99 19.326 19.326 0 00-2.912-.072 5.315 5.315 0 00-1.894-3.791 4.38 4.38 0 00-7.021 2.179 1.752 1.752 0 00-1.975-.3 5.435 5.435 0 00-1.918-2.892 3.93 3.93 0 00-2.82-.992c.04-1.478.332-2.938.862-4.317a13.452 13.452 0 012.279-3.093.5.5 0 00-.712-.7c-.987 1-1.822 2.139-2.479 3.38a14.27 14.27 0 00-.962 4.923c-3.18 1.037-3.925 6.374-.389 8.51a10.891 10.891 0 001.519 7.308l-.322.068c-.979.13-1.959.307-2.909.475-5.926 1.044-11.461 1.4-14.04 6.892-1.184 2.522-1.91 5.228-2.936 7.78-.442 1.1-1.453 2.578-1.211 3.987a6.729 6.729 0 001.945 3.048 27.71 27.71 0 01-1.441 4.235c-1.412-4.122-3.2-8.284-4.627-11.414-.876-1.912-1.7-4.938-3.662-6.215-1.616-1.05-3.837-.532-5.76-.206-6.211 1.054-11.534 2.444-13.215 2.7-2.282.352-4.368.76-4.83 1.89-.462 1.132 1.343 2.395 1.87 2.966zm38.671 70.7c-.8 1.63.119 3.773 1.292 5.157-12.874-.856-18.677 1.382-21.627-1a1.948 1.948 0 01-.44-2.944c.77-.848 2.087-1.022 3.229-1.562 1.906-.9 3.317-2.38 5.331-2.679a.504.504 0 00.242-.108c4.802 2.325 6.977 2.355 11.973 3.136zM105.3 46.392a3.38 3.38 0 013.896-2.927c.6.097 1.163.354 1.63.744 1.427 1.182 2.138 3.458.923 4.962a3.488 3.488 0 01-2.911 1.19 3.939 3.939 0 01-2.976-1.388 3.653 3.653 0 01-.562-2.581zm-5.394-3.2a4.074 4.074 0 011.471 4.7c-1.42 2.034-2.862 2.1-3.919 1.689.8-3.971.32-4.606.265-7.138a2.946 2.946 0 012.182.757l.001-.008zm-3.177-.5c.071 2.12.463 3.143-.188 6.373-2.349-1.705-1.808-5.415.187-6.365l.001-.008zm-19.324 42.63a31.435 31.435 0 001.773-4.713c1.285 1.6 3.858 5.154 5.589 7.938l-.01.016a71.03 71.03 0 01-11.39 15.412c-1.556 1.525-3.337 3.363-5.481 3.686-2.224.332-3.984-.85-5.934-2.028-4.284-2.589-7.338-6.44-8.159-10.32a14.392 14.392 0 01-.223-3.613c.177-4.4-.009-5.08.625-7.411a14.853 14.853 0 013.7-7.138c.819-.817 1.7-1.3 2-1.114.342.945-5.656 6.455-3.886 7.1.446.164.742-.182 1.552-1.275 1-1.352 3.488-3.48 4.209-3.587-.216 1.02-4.293 6.043-4.3 6.492-.066.213.031.287.2.415a.5.5 0 00.693-.086 14.709 14.709 0 014.093-3.98 2.762 2.762 0 011.226-.494c.015.062-.007.244-.32.779a38.044 38.044 0 01-3.271 4.447c-.138.169-.635.464-.481.922a.59.59 0 00.472.364c.337.027.584-.19 1.292-1.04a11.2 11.2 0 013.05-2.45c.206-.125.437-.203.676-.23.074.119.095.554-1.228 2.12a20.38 20.38 0 00-2.427 3.135c-1.2 2.322-1.477 4.239-3.58 5.78a.5.5 0 00.3.9c.345 0-.019-.227.615.438a9.584 9.584 0 001.868 1.618 1.531 1.531 0 00.313 1.42c.609.544 1.991.247 2.84.062 1.916.363 3.781.957 5.555 1.767a.497.497 0 00.668-.232.5.5 0 00-.232-.668 15.839 15.839 0 00-.8-.366c.243-.32.558-.617 1.109-1.41 1.162-.117 5.666-.52 5.917-.53 1.188-.043 2.815-.106 3.449-1.033 1.254-1.833-.674-6.121-1.111-7.811a56.085 56.085 0 00-.951-3.282zM59.885 93.9c.324.716.562 1.467.71 2.239a10.656 10.656 0 01-1.45-1.448 7.42 7.42 0 00.74-.791zm8.315 4.886c-.04.053-.12.16-.176.22a22.864 22.864 0 00-1.823-.58c.817-.11 1.676-.212 2.551-.307-.282.349-.421.49-.552.667zm-22.429-27.72c.358-.877 4.226-1.257 5.094-1.461 6.6-1.546 8.826-1.931 12.82-2.636 4.169-.736 5.136-.4 7.151 4.607.849 2.116 4.677 10.01 6.556 17.278.373 1.446 2.154 5.682 1.254 7-.437.637-2.537.56-3.37.638-3.306.3-7.17.63-10.125 1.077-.5.074-3.154.8-3.52.52a3.67 3.67 0 01.041-.9 9.049 9.049 0 00-1.126-4.212c-.061-.117-.048.322.994-2.112.241-.562.49-1.143.776-1.7a19.851 19.851 0 012.319-2.978c.727-.86 1.952-2.29 1.313-3.3-.2-.325-.734-.773-1.981-.127a9.002 9.002 0 00-.428.236c.247-.365.479-.728.7-1.1.221-.372.813-1.39.13-1.985-.683-.596-1.839 0-2.627.472.184-.278.366-.563.542-.858.35-.445.518-1.005.471-1.568a.853.853 0 00-.4-.537c-.77-.458-1.8.313-2.523.857.757-1.015 1.162-1.765 1.061-2.383-.156-.963-1.563-1.573-3.7.559a13.786 13.786 0 00-3.293 5.41 43.05 43.05 0 00-6.449-8.9c-.271-.285-1.751-1.524-1.68-1.897z"/><path fill="#0e2238" d="M132 117.578c2.352.119 3.882-.516 8.9-1.36a39.394 39.394 0 008.391-2.051 11.68 11.68 0 004.744-4.341c1.029-1.438 1.151-1.529 1.118-1.8.255-.892.474-1.646.728-2.79 1.484-.114 3.411-.233 4.6-1.184 1.161-.932 1.24-3.528 1.476-4.722 1.28-6.464 4.089-21.706 2.541-23.638-1.13-1.41-18.2-2.851-22.07-2.187-2.244.388-1.628 3.854-1.218 5.965 2.075 10.693 1.291 17.932-1.055 24.871-.416.895-.78 1.814-1.091 2.751a7.425 7.425 0 00-1.378-.168c-1.417-.2-5.087-.712-5.767-.822a.504.504 0 00-.386.076.505.505 0 00-.116.715.5.5 0 00.342.195c.734.119 4.725.679 5.844.831.412.012.822.06 1.226.145a1.028 1.028 0 00.333.936c.522.394 1.381.19 2.013.042.538-.128.624-.091 2.246-.5.85-.239 1.721-.4 2.6-.482.124.665.378 1.299.747 1.866a.501.501 0 00.839-.543c-1.171-1.808-.482-3.537-.664-5.835a13.568 13.568 0 00-1-3.223c-.59-1.655-.348-1.91-.338-1.92.379-.214 1.332.738 2.836 2.791.216.3.584.787.6.809.2.289.424.621.816.507a.582.582 0 00.382-.5c.023-.505-.647-1.167-.772-1.387-2.3-4.062-1.6-4.82-1.6-4.867.386.06 1.55 1.652 2.616 3.866.639 1.356.866 1.776 1.365 1.623a.543.543 0 00.309-.261c.106-.206.127-.365-.36-1.841-.93-2.825-.909-3.857-.7-4.23.038-.067.069-.08.1-.087.323-.1 1.18.67 2.153 4.037.158.548.216 1.482.8 1.679a.513.513 0 00.475-.087c.162-.133.365-.3-.224-2.752a15.521 15.521 0 01-.847-3.878.824.824 0 01.141-.578.412.412 0 01.232.078c1.123.627 1.438 2.385 1.577 3.653.566 5.146-1.227 10.319-1.357 10.967-.12.177-.327.473-.423.6-1.456 1.961-2.325 3.5-4.836 4.7-3.167 1.3-6.87 1.723-10.334 2.357a30.262 30.262 0 01-6.5.97c-2.846-.127-4.58-1.859-5.625-5.617-1.288-4.634-1.555-11.355-1.376-16.1a.506.506 0 00-.291-.474.501.501 0 00-.709.436c-.182 4.822.092 11.664 1.411 16.408.725 2.637 2.2 6.159 6.536 6.351zm22.409-25.12c-1.052-.59-1.874.129-1.858 1.42.023.276.053.55.09.822-.532-.707-1.094-.991-1.688-.84-1.165.284-1.052 1.868-.821 3.046-.671-1.07-1.863-2.741-2.831-1.937-.654.545-.706 1.586-.148 3.152-.688-.608-1.39-.93-2.031-.59-1.047.565-.4 2.367-.13 3.136.436.962.757 1.973.956 3.012.09 1.194-.086 2.248-.041 3.393a15.77 15.77 0 00-2.734.5c-1.735.434-1.423.3-2.235.493a4.28 4.28 0 01-1.12.155 16.966 16.966 0 011.258-3.512c2.863-8.457 2.909-16.177 1.109-25.435-.256-1.313-.9-4.562.407-4.786 4.448-.77 20.037 1 21.12 1.826.935 1.167-.672 12.363-2.742 22.82-.2 1-.344 3.511-1.121 4.136-.882.706-2.513.852-3.761.944.628-3.281 1.234-10.13-1.678-11.755h-.001zm-34.525-28.895a.497.497 0 00.487-.386.503.503 0 00.001-.222 43.493 43.493 0 01-.981-7.581.499.499 0 10-.999.04 44.51 44.51 0 001 7.756.501.501 0 00.492.393zm-19.115-.891c-.341.419-.116 1.007.979 2.5a15.471 15.471 0 004.854 4.448c4.684 2.74 9.507.662 13.664-2.868a.494.494 0 00.192-.343.5.5 0 00-.839-.418c-4.733 4.016-8.826 4.924-12.512 2.766a14.67 14.67 0 01-4.607-4.258 6.5 6.5 0 01-.863-1.375.498.498 0 00-.868-.451zm14.184 61.656a.5.5 0 00-.55-.443c-3.5.38-7.234 2.191-9.738 3.521a.5.5 0 10.469.883c2.431-1.291 6.049-3.049 9.376-3.41a.501.501 0 00.443-.551zm-8.318 4.698c.1 0 5.572-.867 8.081-.63a.506.506 0 00.544-.451.491.491 0 00-.113-.366.501.501 0 00-.338-.179 44.951 44.951 0 00-8.256.632.503.503 0 00-.421.535.5.5 0 00.503.459zm-4.898-5.733a.511.511 0 00-.614.5 22.288 22.288 0 00.185 4.567.501.501 0 10.995-.112 20.733 20.733 0 01-.182-4.376.543.543 0 00-.384-.579zm3.111-66.972c.122-.716-.629-1.5-1.218-1.784a3.97 3.97 0 00-2.339-.331.504.504 0 00-.338.195.5.5 0 00-.094.379c.276 1.757 1.276 2.546 2.968 2.344.815-.096.986-.593 1.021-.803zm-1.138-.189c-.673.075-1.4.065-1.738-.97.422-.005.84.09 1.22.274.277.167.518.386.711.645a.473.473 0 01-.193.051zm-.418 1.318a.51.51 0 00-.612.354.503.503 0 00.354.612c.287.077.583.12.88.127a.5.5 0 10.014-1 2.759 2.759 0 01-.636-.093zm-4.682-9.668a.5.5 0 00.486-.615 2.673 2.673 0 01-.082-.513.506.506 0 00-.827-.42.489.489 0 00-.17.345c.002.276.038.551.107.819a.5.5 0 00.486.384zm7.799.552a.497.497 0 00.615.349.5.5 0 00.349-.616 5.945 5.945 0 01-.185-.944.53.53 0 00-.204-.388.528.528 0 00-.429-.095.48.48 0 00-.371.4.477.477 0 00.01.192c.041.373.113.741.215 1.102zm-7.797-8.881a.5.5 0 10-.456.89c1.08.349 2.243.35 3.325.007a.5.5 0 10-.284-.96 4.616 4.616 0 01-2.585.063zm8.177 1.789a6.106 6.106 0 002.859.438.505.505 0 00.429-.354.51.51 0 00.018-.194.494.494 0 00-.548-.446 5.35 5.35 0 01-2.257-.311.643.643 0 00-.566-.134.508.508 0 00-.38.527.509.509 0 00.445.474zM80.491 23.058c.013 1.02 1.22 1.989 2.078 2.234.63.18 1.242.269 1.905.423a.5.5 0 10.228-.975c-.649-.15-1.273-.242-1.858-.41-.615-.174-1.348-.872-1.353-1.285 0-.21.3-.347.547-.427 1.37-.431 4.423 1.419 4.8 2.894a.5.5 0 10.968-.248c-.51-1.992-4.105-4.215-6.069-3.6-1.095.345-1.25 1.02-1.246 1.394zm9.396-3.878a.5.5 0 10.592-.8c-.732-.54-2.361-1.465-2.61-2.4.463-.002.918.126 1.311.37 1.88 1.54 1.8 2.35 3.31 3.94a.5.5 0 00.727-.686 10.07 10.07 0 01-.955-1.173 10.72 10.72 0 00-2.477-2.875c-.591-.42-2.024-.891-2.654-.3-.267.249-.475.729.049 1.592a9.212 9.212 0 002.707 2.333zm-10.722-.122a.502.502 0 00.078-1 4.63 4.63 0 01-1.677-.532c.766-.75 2.736-.346 3.825.23a.502.502 0 00.74-.391.5.5 0 00-.27-.491c-1.1-.585-3.793-1.353-5.059 0a.9.9 0 00-.225.959c.377.976 2.566 1.224 2.588 1.225zm-29.48 120.685a9.98 9.98 0 01.2 6.693.502.502 0 00.342.619.497.497 0 00.619-.342 10.955 10.955 0 00-.239-7.358.501.501 0 00-.967.194.502.502 0 00.046.194h-.001zm2.847 2.27c.8.043 4.973.648 5.21.648a.5.5 0 10.061-1c-5.539-.689-5.64-.845-5.853-.34a.509.509 0 00.582.692zm-.408 2.736a24.355 24.355 0 012.957-.177c.809-.037 1.681-.075 2.467-.117a.509.509 0 00.446-.333.503.503 0 00-.499-.667c-.854.067-5.142.193-5.5.309a.502.502 0 00-.374.55.5.5 0 00.503.435zm98.485 28.556c-21.5-18.95-20.137-17.9-20.43-17.9h-27.016a.499.499 0 00-.4.8l6.226 8.139c-2.617.114-3.443.134-3.753.172a.494.494 0 00-.446.512c.007.161 3.063 7.111 3.127 7.2.187.244.348.217.6.194.561-.051 2.017-.25 6.085-.748 1.046 1.363 6.9 8.968 6.9 8.968a.494.494 0 00.4.195c.1 0-1.792.371 28.494-6.675a.503.503 0 00.357-.632.504.504 0 00-.144-.225zm-39.226-5.838l-4.128-2.048 2.479-.107 1.649 2.155zm-2.91 3.56l-2.171-4.964 4.57 2.267-2.399 2.697zm1.109.258l2.218-2.494.8.4c.223.109-.115-.278 1.3 1.568l-4.318.526zm12.515 8.5a9390.97 9390.97 0 01-17.922-23.38h25.814l19.233 17.013-27.125 6.367z"/><path fill="#0e2238" d="M129.461 157.409l-5.138 3.6-17.123-3.68a.5.5 0 10-.21.979l16.216 3.486-7.95 5.573a.5.5 0 00.288.91c.228 0-.5.458 9-6.2 12.715 2.734 12.009 2.592 12.111 2.592a.5.5 0 00.1-.989l-11.1-2.386 4.379-3.07a.498.498 0 00-.2-.902.501.501 0 00-.374.083l.001.004zm65.739 7.062l-27.906-11.992c-.2-.087 1.442-.259-23.334 3.174a.496.496 0 00-.412.363.498.498 0 00.169.522c30.71 24.44 28.705 22.98 28.976 22.98.208 0-.116.165 4.747-2.906.179.02-.672.3 12.875-4.859a.495.495 0 00.318-.419.498.498 0 00-.233-.472l-1.946-1.2 6.816-4.3a.502.502 0 00-.07-.891zm-6.185 6.709l-7.524 2.873 6.023-3.8 1.501.927zm-16.287 7.225l-27.478-21.922 21.778-3.031 26.9 11.562-21.2 13.391zm-69.786-11.158l-2.564-1.568 1.6-6.461a.505.505 0 00-.485-.62H88.8l-11.586-7.088a.509.509 0 00-.444-.039l-6.727 2.644c-.1-.019.13-.275-26.889-2.122-.307-.021.687-.692-15.8 12-2.662-.326-2.576-.358-2.78-.23l-17.29 10.636a.504.504 0 00-.232.485.502.502 0 00.342.415l31.488 10.09a.5.5 0 00.5-.113l5.484-5.187 6.051 1.528a.501.501 0 00.488-.143l10.477-11.252 3.471 3.332-4.648 7a.504.504 0 00-.03.5.497.497 0 00.419.275l13.12.733 3.371 3.236c.093.09.217.14.346.14.222 0-.037.135 4.356-2.926l13.366.752a.498.498 0 00.485-.38l2.989-12.116 3.844-2.681a.501.501 0 00-.029-.84zm-2.089-7.649l-1.369 5.534-9.046-5.533 10.415-.001zm-61.948 24.749L8.736 174.68l16.221-9.969 1.277.156-9.465 7.291a.506.506 0 00-.184.498.503.503 0 00.367.383l26.761 6.76-4.808 4.548zm11.966-3.771L18.2 172.322l25.076-19.317 24.655 1.943-3.409 1.34-11.979-1.252a.503.503 0 00-.361.1l-8.937 7.04a.5.5 0 00.136.862c.1.038.078.035 14.4 3.353.2.046-.3-.39 3.376 3.134l-10.286 11.051zm2.034-18.965l3.607 3.463-10.347-2.405 6.74-1.058zm.52-.963c-.233-.153.339-.187-8.062 1.135l6.9-5.435 2.259 3.869-1.097.431zm2.036-.8l-2.176-3.727 9.215.961-7.039 2.766zm6.556 20.53l4.065-6.119 7.018 6.74-11.083-.621zm33.245 1.861l-11.65-.655 14.267-9.95-2.617 10.605zm-17.284 2.052l-23.815-22.858 22.745-8.94 24.859 15.206c-23.64 16.49-18.677 13.029-23.789 16.591v.001zM23.676 157.3a.504.504 0 00.49.029l14.547-7.092 9.818-.292a.502.502 0 00.342-.006c.368-.141 9.121-3.1 10.643-3.312a.504.504 0 00.44-.587.495.495 0 00-.119-.243c-1.3-1.541.267-4.788.651-5.185a.5.5 0 00-.3-.9c-2.9-1.446-8.452-3.022-11.264-4.277-.329-.148-8.911.157-43.919 1.189a.497.497 0 00-.485.5v13.615a.5.5 0 00.5.5l8.853-.263 9.803 6.324zm.305-.993l-8.344-5.384 20.646-.614-12.302 5.998zM59.4 140.438c-.851 1.467-1.466 3.777-.731 5.353-2.142.549-7.46 2.279-9.45 2.961v-12.109c2.808 1.138 7.568 2.572 10.181 3.795zm-53.878-2.832c13.442-.4 41.637-1.242 42.7-1.257v12.6l-42.7 1.27v-12.613zM135.518 24.042a6.279 6.279 0 007.76 5.889 6.278 6.278 0 003.15-1.869 6.6 6.6 0 00.1-9.193 6.41 6.41 0 00-9.09.247 6.779 6.779 0 00-1.92 4.926zm6.645-5.943c4.839 0 6.881 5.814 3.545 9.267a5.275 5.275 0 01-9.19-3.35 5.734 5.734 0 013.435-5.438 5.734 5.734 0 012.21-.479z"/><path fill="#0e2238" d="M141.618 19.76a3.75 3.75 0 012.7 1.2.504.504 0 00.642.08.501.501 0 00.094-.758 4.73 4.73 0 00-3.418-1.525.5.5 0 10-.014 1l-.004.003zm4.347 3.056a.5.5 0 100-.998.5.5 0 000 .998zM41.719 168.66l-7.079-6.1a.48.48 0 00-.17-.1.505.505 0 00-.542.147.49.49 0 00-.12.368.499.499 0 00.18.343l6.332 5.456-15.758 1.291a.5.5 0 00-.459.541.502.502 0 00.541.459l16.739-1.371 8.465 7.293a.501.501 0 00.653-.758l-7.719-6.65 15.43-1.264a.5.5 0 00.459-.541.502.502 0 00-.541-.459l-16.411 1.345zM76.7 153.768l-9.054 3.808a.498.498 0 00-.267.655.5.5 0 00.655.267l9.054-3.808a.507.507 0 00.306-.464.496.496 0 00-.311-.46.485.485 0 00-.192-.037.484.484 0 00-.191.039zm-7.624 6.096a.492.492 0 00.272.27.504.504 0 00.383-.002l9.061-3.808a.5.5 0 00-.387-.921l-9.062 3.807a.498.498 0 00-.267.654zm-2.038 6.036c9.065 3.111 8.5 2.932 8.627 2.932a.5.5 0 00.162-.972l-9.1-3.123-1.6-6.009a.504.504 0 00-.417-.368.492.492 0 00-.37.098.499.499 0 00-.18.526l1.424 5.362-8.724-2.994a.494.494 0 00-.554.13.498.498 0 00.053.721.499.499 0 00.177.094l9.357 3.212 1.951 7.343a.501.501 0 00.967-.256l-1.773-6.696zm4.207-5.026a.5.5 0 00-.108.994l9.489 1.039-.309 6.626a.503.503 0 00.13.36.5.5 0 00.87-.313l.306-6.563c11.016 1.206 9.57 1.057 9.686 1.057a.5.5 0 00.054-1l-9.694-1.061.246-5.269a.503.503 0 00-.477-.524.503.503 0 00-.523.477l-.243 5.206-9.427-1.029zm7.709 9.097a.493.493 0 00-.307-.228.493.493 0 00-.379.056l-8.047 4.823a.496.496 0 00-.225.562.498.498 0 00.483.367c.2 0-.512.377 8.3-4.895a.501.501 0 00.175-.685zm-6.054 7.644a.498.498 0 00.684.179l20.763-12.183a.5.5 0 10-.506-.864l-20.763 12.184a.5.5 0 00-.178.684zm3.224 2.921a.498.498 0 00.512.215.513.513 0 00.181-.074l20.07-13.285a.505.505 0 00.215-.513.497.497 0 00-.391-.394.493.493 0 00-.376.073l-20.07 13.285a.5.5 0 00-.141.693zM37.1 161.835c.27 0-.31.4 8.193-6.713a.504.504 0 00.082-.721.506.506 0 00-.353-.177.483.483 0 00-.371.133l-7.872 6.595a.5.5 0 00.321.883zm3.262.474a.5.5 0 00.7.054l7.836-6.7a.5.5 0 10-.65-.76l-7.835 6.7a.509.509 0 00-.172.343.496.496 0 00.121.363zm76.667 8.291a.5.5 0 00.584.4l21.34-4.027a.505.505 0 00.412-.388.499.499 0 00-.399-.598.494.494 0 00-.199.004l-21.339 4.027a.499.499 0 00-.399.582zm2.849 3.453a.503.503 0 00.6.376l20.661-4.728a.48.48 0 00.186-.075.49.49 0 00.217-.328.5.5 0 00-.625-.571l-20.662 4.727a.503.503 0 00-.377.599zm2.606 3.6a.5.5 0 00.6.372l21.66-5.092a.511.511 0 00.324-.219.504.504 0 00-.165-.701.496.496 0 00-.387-.053l-21.661 5.092a.502.502 0 00-.371.601zm27.25-19.214a.499.499 0 00.581.4l17.3-3.122a.504.504 0 00.325-.206.511.511 0 00.082-.375.508.508 0 00-.209-.323.49.49 0 00-.376-.08l-17.3 3.122a.496.496 0 00-.323.208.506.506 0 00-.08.376zm4.495 3.261a.502.502 0 00.608.361l16.218-4.137a.507.507 0 00.374-.414.513.513 0 00-.095-.372.492.492 0 00-.331-.195.494.494 0 00-.195.012l-16.218 4.137a.498.498 0 00-.361.608zm3.689 3.38a.513.513 0 00.098.169.515.515 0 00.345.167.507.507 0 00.193-.026l16.452-5.691a.5.5 0 00-.327-.945l-16.452 5.691a.5.5 0 00-.309.635zm3.755 2.842a.507.507 0 00.273.268.504.504 0 00.383-.004l16.715-7.135a.503.503 0 00.264-.656.503.503 0 00-.657-.264l-16.714 7.135a.507.507 0 00-.268.273.504.504 0 00.004.383zm22.817.494l-9.109.6.83-3.5a.5.5 0 00-.971-.229l-.9 3.805-9.137.605a.502.502 0 00-.467.533.504.504 0 00.534.467l8.829-.584-1.4 5.923a.497.497 0 00.374.592.498.498 0 00.599-.362l1.474-6.223 9.417-.623a.502.502 0 00.297-.877.497.497 0 00-.363-.123l-.007-.004zm-6.812-3.852a.5.5 0 00.67.224l4.6-2.291a.514.514 0 00.271-.288.496.496 0 00-.147-.552.494.494 0 00-.569-.054l-4.6 2.291a.499.499 0 00-.225.67zm3.845 1.656a.49.49 0 00.29.251.508.508 0 00.382-.029l4.567-2.3a.487.487 0 00.253-.289.516.516 0 00-.028-.384.504.504 0 00-.675-.22l-4.567 2.3a.504.504 0 00-.222.671z"/></svg>