<svg xmlns="http://www.w3.org/2000/svg" fill="none" viewBox="0 0 200 200" height="150" width="150"><path fill="#009ea9" d="M68.441 154.649l2.689 2.825-3.567.629-1.492 3.635-1.757-3.613-3.6-.575 2.477-2.863-.743-3.991 3.287 1.841 3.151-1.886-.445 3.998zm-4.861-21.053l2.696 2.825-3.567.628-1.492 3.628-1.757-3.605-3.605-.583 2.477-2.863-.742-3.991 3.286 1.848 3.151-1.886-.447 3.999zm-11.997 25.552l2.689 2.825-3.567.628c-1.627 3.991-1.419 3.56-1.522 3.56l-1.719-3.537-3.613-.583 2.477-2.855-.743-3.991 3.287 1.84 3.151-1.886-.44 3.999z"/><path fill="#dff5f7" d="M52.023 155.149l-.44 4 2.689 2.825-3.567.628-1.454 3.567c4.271.69 8.4 1.886 11.655 4.461l.129-.159a10.37 10.37 0 013.218.257l.182-.711c1.251-2.753.081-4.576.386-5.809.016-.061.076-.235.084-.174a19.168 19.168 0 008.2-6.211 23.354 23.354 0 002.416-3.627c.068-.136.326-.454.167-.432l.772-.31a18.305 18.305 0 01-1.991-.811c-1.064 2.262-3.354 4.1-4.256 1.651a14.537 14.537 0 01-.765-4.309 20.642 20.642 0 011.4-8.618l.257-.068a103.358 103.358 0 01-2.862-17.487l-.424.038c-.818.583-2.507 1.53-3.537 1.083-.356-.151-.628-1.371-.863-1.34-.318.045-.655.679-.841.893a4.675 4.675 0 01-1.847 1.318 10.206 10.206 0 01-3.121.492l.007.258c-1.03 4.695-2.6 10.1-5.831 13.745-1.325 1.507-3.332 3.241-5.5 3.007-3.607-.408-4.29-5.459-4.437-9.088a36.309 36.309 0 01-.031-3.734c.027-.269.038-.54.031-.81-1.22.045-2.537.613-3.627.356-.523-.121-1.227-1.167-1.712-1.053-.734.167.576 2.711-.893 2.583-1.22-.106-2.409-1.9-3.022-2.795a16.407 16.407 0 01-2.546-7c-.1.043-8.879.9-11.883 7.876-1.719 4.006-2.332 9.224-4.566 14.555-.818 1.954.818 4.211.469 6.286-.3 1.787-1.439 3.423-2.052 5.1-2.1 5.651-3.5 13.929-1.265 19.553.341.841.909 2.318 1.939 2.53 1.674.341 3.01-3.668 4.158-5.718 1.855-3.3 6.308-6.1 10.36-7.929l.038.091c3.355-.053 9.171.666 12.511 1 3.014.3 6.255.537 9.421 1.045l-1.719-3.537-3.613-.583 2.477-2.855-.743-3.991 3.287 1.84 3.155-1.879zm-30.407 4.7l-1.492 3.635-1.757-3.613-3.605-.575 2.477-2.863-.742-3.991 3.287 1.84 3.15-1.885-.434 4.003 2.688 2.817-3.572.632zm4.521-24.136l-1.492 3.627-1.756-3.6-3.613-.584 2.476-2.862-.734-3.984 3.287 1.84 3.15-1.885-.447 4 2.692 2.815-3.563.633zM40.9 145.918l-1.492 3.626-1.757-3.6-3.612-.583 2.476-2.863-.742-3.991 3.3 1.848 3.149-1.885-.447 4 2.689 2.825-3.564.623zm14.957-9.429l2.477-2.863-.742-3.991 3.286 1.848 3.151-1.886-.447 4 2.7 2.825-3.567.628-1.492 3.628-1.757-3.6-3.609-.589zM67.563 158.1l-1.492 3.635-1.757-3.613-3.6-.575 2.477-2.863-.743-3.991 3.287 1.841 3.151-1.886-.44 4 2.689 2.825-3.572.627z"/><path fill="#fff" d="M42.5 129.961a20.68 20.68 0 001.045 2.135 5.322 5.322 0 004.1 1.7c4.528-.17 6.528-3.757 8.633-7.134l-.007-.326c.525-.027.628 0 1.333-.038l.007.258c-1.03 4.695-2.611 10.1-5.831 13.745-1.328 1.5-3.333 3.246-5.5 3.007-2.349-.26-3.446-2.5-3.938-4.87a37.814 37.814 0 01-.5-8.762c.235-.019.47-.001.7.053l-.042.232zm13.688 54.277c-.8-1.441-.931-3.173-1.848-4.552-1.113-1.673-3.3-2.466-4.915-3.544-1.456-.974-2.742-2.383-4.408-3.006-2.78-1.041-6.516.287-9.292.787a134.373 134.373 0 01-20.273 2.007l-.447-.265c.674-1.2 1.173-2.507 1.848-3.711 1.852-3.3 6.308-6.1 10.36-7.929l.038.091c3.355-.053 9.171.665 12.511 1 3.014.3 6.255.537 9.421 1.045l.038.075.03-.068c6.342 1.024 12.111 3.187 15.389 8.717 1.137 1.92 2.935 5.388 2.082 7.71-.322.877-.969.212-1.272-.281-1.95-3.6-2.111-5.44-2.583-5.49-.075-.008.16.84.167.878a21.415 21.415 0 011.166 6.93c-.023.56-.119 1.562-.643 1.772-.643.257-1.164-1.111-1.333-1.484a35.135 35.135 0 01-1.485-4.007c-.088-.281-.306-1.431-.613-1.575-.015-.007.075.712.083.757.081.463.168.924.243 1.379.17 1.044 1.074 4.429.091 5.271-.372.317-.826-.409-.977-.644a20.537 20.537 0 01-1.644-4.786c-.689.8.633 3.07-.575 3.862-.471.309-.995-.642-1.159-.939z"/><path fill="#009ea9" d="M21.4 160.375l-1.273 3.1-1.711-3.522c.989.111 1.99.24 2.984.422z"/><path fill="#009ea9" d="M17.239 156.429l-.742-3.991 3.287 1.84 3.15-1.885-.434 4.007 2.688 2.817-3.567.629-.219.53a40.291 40.291 0 00-2.984-.417l-.046-.091-3.605-.575 2.472-2.864zm24.529-13.965l2.689 2.825-3.559.629-1.492 3.626-1.757-3.604-3.612-.583 2.476-2.863-.742-3.991 3.295 1.848 3.149-1.885-.447 3.998zm-14.76-10.209l2.689 2.825-3.56.629-1.492 3.627-1.756-3.604-3.613-.584 2.476-2.862-.734-3.984 3.287 1.84 3.15-1.885-.447 3.998z"/><path fill="#dff5f7" d="M127.573 136.921l-.311-.031a126.731 126.731 0 01-18.614 11.678c-4.192 2.236-6.635 4.006-11 1.356a7.057 7.057 0 01-2.136-1.719c-1.363-1.9-.588-4.672-.515-6.9.083-2.537-1.236-5.157-.613-7.641.86-3.431 3.959-5.824 4.968-9.338.537-1.87 1.5-6.014 2.272-9.012.285-.83.505-1.681.658-2.544l.016-.008c.106-.095.22-.182.34-.258a23.086 23.086 0 012.787-1.136 35.864 35.864 0 018.672-1.991c1.341-.12 2.257-.269 3.127.431.69.72-.264 2.533-.507 3.272a90.875 90.875 0 00-2.461 8.77 3.832 3.832 0 00-.053 1.363l.575-.068c1.78-1.81 3.4-5.029 5.885-5.854 2.461-.818 4.557 1.225 6.975-.3 3.761-2.366 4.725-6.919 9.769-7.27 4.529-.315 12.662 1.734 17.153 2.105l.341.152a27.265 27.265 0 00-1.552 6.975c-.134.9-.872 5.466-1.091 6.854-.035.22-.324 1.269-.076 1.446.218.156.705-.829 1.606-2.181l.258.174c.001.1.011.201.03.3.18 1.865.781 3.664 1.757 5.264l.371.121a18.905 18.905 0 00-.591 2.272c-.181 1.361-.211 3.788-.356 4.581a18.323 18.323 0 01-1.409 4.355c-3.3 8.4-7.452 22.167-10.064 31.732l.083.462a23.441 23.441 0 00-3.363.856l-.053-.167c-3.718-.258-8.24-.568-11.943-.977-4.689-.518-3.241-.382-5.21-.81a6.695 6.695 0 00.728-2.144c-.1-1.3-1.765-1.878-2.908-2.128l.1-.469c-1.212-3.014.323-9.559 1.643-12.011.726-1.349-.369-2.779.084-4.226.4-1.287 1.631-1.96 2.3-3.067a13.347 13.347 0 001.34-4.893c.376-2.447.685-4.915.988-7.376zm15.6 15.2c1.42-1.435 3.4-11.2 2.779-12.67-.394-.932-1.893-.866-2.635-.962-2.582-.334-11.133-1.446-11.239-1.757-.348 2.552-2.582 11.186-2.446 12.238.121.94 3.7 5.592 4.771 6 .707.267 7.29-1.354 8.771-2.85l-.001.001z"/><path fill="#0e2238" d="M154.905 92.746a5.338 5.338 0 013.779-4.037c-.406.768-.877 1.5-1.408 2.189a5.937 5.937 0 01-2.371 1.848z"/><path fill="#fff" d="M78.923 154.324l-.015-.424a3.06 3.06 0 001.832-.523 7.29 7.29 0 002.045-3.249l.2.076c2.8-1.863 5.68-2.262 8.9-3.007.91-.074 1.814-.193 2.712-.356l.28-.053c.115.51.332.991.636 1.417a7.057 7.057 0 002.136 1.719c4.369 2.65 6.812.88 11-1.356.84-.448 1.673-.9 2.5-1.348l.242.447c3.044 4.786 1.991 8.606.03 10.057-3.03 2.242-11.1.138-14.76-.174a31.505 31.505 0 00-8.179.2c-1.559.276-3.446 1.721-5.112 1.273-2.208-.59-4.479-2.595-4.447-4.699z"/><path fill="#dff5f7" d="M126.369 87.369a3.74 3.74 0 01-.25-1.2c.091-.439 2.787-1.953 2.961-2.105.041.123 4.785 6.01 5.18 6.513-.844.454-1.657.965-2.431 1.53-.682.575-1.384 1.138-2.022 1.764-.107.105-.484.6-.674.493a7.055 7.055 0 01-1.189-2.219l-.174-.084c.624-1.04.932-2.24.886-3.453-.182-.879-1.242-.924-1.954-.613l-.333-.626z"/><path fill="#0e2238" d="M187.833 96.782a1.88 1.88 0 00-.583-.8l.212-.341a16.34 16.34 0 01-4.521-4.56c-2.949-4.444-5.737-11.942-13.238-12.722a4.531 4.531 0 00-2.772.62 20.66 20.66 0 00-6.763 6.968c-.5.843-.961 1.81-1.484 2.764a5.333 5.333 0 00-3.779 4.037c-.931.405-3.452.557-3.726-.432-.176-.635 1.571-1.39 1.969-1.69.195-.145.533-.4.424-.688-.376-.988-2.952.062-3.1-1.052-.063-.485.455-1.038.705-1.4 1.831-2.362 1.134-4.281 1.378-6.31a8.63 8.63 0 012.689-5.262c3.174-3.026 7.156-2.528 11.162-2.97 2.068-.227 3.787-1.452 5.824-1.78 5.893-.943 13.689 1.3 17.085 6.446 1.949 2.952 1.931 6.536 3.386 9.656.688 1.477 2.4 2.939 2.143 4.71-.249 1.7-2.106 2.053-2.636 3.43a10.496 10.496 0 00-.159 2.19 4.775 4.775 0 01-3.915 3.673l-.2-.053a7.136 7.136 0 00-.101-4.434z"/><path fill="#fff" d="M75.878 166.289c.017-.487.01-.975-.022-1.461-.2.106-.236 1.166-.266 1.363-.543 3.594-.591 5.222-1.226 5.278-.538.048-.744-1.1-.8-1.438-.548-3.083.07-4.828.151-6.672-.267-.054-.642 4.335-.939 5.937-.066.356-.174 1.3-.674 1.348-.575.057-.909-.871-1.052-1.28a11.13 11.13 0 01-.266-5.1c.119-.61.186-1.228.2-1.848-.339-.024-.886 3.131-1.416 5.044-.069.25-.211 1.025-.545 1.1-.393.087-.542-1.151-.568-1.348a11.043 11.043 0 01.538-5.293l-.046-.069a23.51 23.51 0 006.074-6.747c.183-.3.353-.6.507-.909.068-.137.326-.454.167-.432l.772-.31a7.854 7.854 0 002.447.447l.015.424c-.023 1.53 1.2 3.067 2.779 4l-.227.727a27.23 27.23 0 00-2.719 3.272 9.486 9.486 0 00-.659 3.544c-.041.928-.323 4.43-1.257 4.37-.893-.058-.98-3.06-.968-3.947z"/><path fill="#dff5f7" d="M160.229 116.064l-.758.015c.049 3.34 1.261 5.528.841 5.528-.136 0-.56-.372-.629-.416a2.676 2.676 0 00-3.187.507c-2.339 2.068-3.938 5.83-4.318 5.559-.248-.177.042-1.226.076-1.446.218-1.391.957-5.953 1.091-6.854.672-4.539 1.214-9.695 5.733-10.618l.3-.2c.642.72 1.325 1.402 2.045 2.044l-.182.2a18.239 18.239 0 01-1.012 5.681z"/><path fill="#fff" d="M157.389 90.989l-.113-.091a14.981 14.981 0 001.408-2.189c4.453-1.511 9.369 1.33 9.406 5.09.043 4.437-5.871 6.58-10.141 4.286a48.441 48.441 0 00-.4-5.528 6.721 6.721 0 01-.16-1.568zm-6.648-23.166c.16.112.03 1.173-.038 1.855l-.045-.008a28.945 28.945 0 01-3.523 9.24 14.745 14.745 0 01-5.5 6.058 8.887 8.887 0 01-11.012-1.893 10.02 10.02 0 01-2.257-7.1 66.02 66.02 0 01.871-8.58l-.416-1.015a11.24 11.24 0 003.711-2.454c.445-.441 1.492-2.234 2.159-2.287.288-.023.9 1.46 1.1 1.68a4.515 4.515 0 003.241 1.569 8.865 8.865 0 004.4-1.06c.489-.257 1.174-.942 1.727-1.007.265-.032.181 1.158.2 1.325a4.74 4.74 0 001.007 2.492 3.925 3.925 0 002.825 1.2c.344.022 1.255-.222 1.55-.015z"/><path fill="#fff" d="M128.065 75.964a3.917 3.917 0 01-2.809-3.257c-.036-1 .545-2.991 1.923-2.658.659.159.879.682 1.3 1.106l.227.022c-.142 1.254-.348 3.462-.348 4.794l-.293-.007zm32.103 9.981a20.66 20.66 0 016.763-6.967 4.531 4.531 0 012.772-.621 11.25 11.25 0 015.566 2.219c3.562 2.668 5.279 6.9 7.672 10.5a16.34 16.34 0 004.521 4.559l-.212.34c-.727-.537-1.7-.075-2.53.637.624-3.327-2.532-5.985-6.028-6.331-3.31-.33-6.247 1.37-6.967 3.892l-.015-.007a2.632 2.632 0 00-3.551-.371h-.069c-.074-3.81-5-6.584-9.406-5.09.523-.95.988-1.917 1.484-2.76z"/><path fill="#009ea9" d="M123.044 102.455a26.907 26.907 0 003.173-6.937l.356.129c.023 0 .137.189.2.249A11.725 11.725 0 00134 98.82c5.314.356 10.425-1.612 15.237-4.12l.137-.212a15.132 15.132 0 012.734 2.1c3.76 3.684 3.173 9.64 2.59 14.434l.462.432a6.82 6.82 0 00-.258.53l-.341-.152c-4.491-.371-12.624-2.42-17.153-2.105-5.044.351-6.008 4.9-9.769 7.27-2.418 1.521-4.514-.522-6.975.3-2.484.825-4.105 4.044-5.885 5.854l-.575.068a3.832 3.832 0 01.053-1.363 90.875 90.875 0 012.461-8.77c.243-.739 1.2-2.552.507-3.272a2.408 2.408 0 00-1.741-.522l1.62-.106c.927-3.986 4.779-5.166 5.94-6.731z"/><path fill="#fff" d="M159.881 127.454l-.03-.28c.316-1.297.526-2.616.628-3.946l2.113.121c-.136 1.235.371 2.961.023 3.938-2.806.17-2.348.113-2.734.167zM78.786 85.779a16.6 16.6 0 012.128-4.2c.278.2.095.082.394.2a2.152 2.152 0 01.894 1.742 22.07 22.07 0 00-1.457 4.55 2.884 2.884 0 01-1.959-2.292z"/><path fill="#dff5f7" d="M157.381 128.158a.71.71 0 00-.2.242l-.348-.136a22.751 22.751 0 01-.227-5.763c.012-.745.066-.6-.106-.8a2.672 2.672 0 013.187-.507c.069.044.493.416.629.416l.114.1c.1 1.841-.094 3.687-.575 5.468l.03.28a7.675 7.675 0 00-2.504.7z"/><path fill="#009ea9" d="M105.315 70.519c.045.189.085.378.129.575.024.106.182.364.076.333l-.084.122a20.762 20.762 0 00-5.005-2.522c-1.28-.44-3.56-1.38-5.4-.644l-.046.174a6.1 6.1 0 00-2.485-.007l-.1-.425c.735-3.78 2.445-7.611 2.741-11.45.091-1.174.167-2.34.326-3.507a2.16 2.16 0 01.515-1.416c.187-.156.411-.26.651-.3a6.08 6.08 0 011.3-.053 19.869 19.869 0 014.764.28c1.267.3 1.179 2.106 1.257 3.128.446 5.716-.967 5.93 1.361 15.712z"/><path fill="#fff" d="M87.488 92.829a3.93 3.93 0 00.651 2.893c.659.6 1.75.773 2.174-.182a2.21 2.21 0 00-2.174-2.923c-.053.008-.681.099-.651.212zm.212-15.487c2.7-1.742 5.23-5.863 9.027-3.946.51.253.95.627 1.28 1.09.154.219.182.614.386.789-.1.06.228-.053.349-.053a4.56 4.56 0 012.453 1.03 7.165 7.165 0 013.015 5.348c.288 3.887-2.647 6.67-3.446 10.262a7.134 7.134 0 00.8 4.029l-.319.12a26.463 26.463 0 01-2.431 2.652 11.193 11.193 0 01-6.255 3.226c-4.594.616-9.256-3.09-10.943-7.513a2.25 2.25 0 01-.114-.3 12.942 12.942 0 01-.81-5.627 18.8 18.8 0 011.454-4.78c.518-1.553.81-2.8 1.272-4.565 1.574-.895 2.931-.89 4.282-1.762zm35.405 15.874c1.492-1.371 1.681-3.684 3.2-4.976.679-.576 2.137-.651 2.348.37a6.235 6.235 0 01-.886 3.454 22.412 22.412 0 00-1.553 3.454 26.994 26.994 0 01-3.173 6.937c-1.162 1.565-5.013 2.741-5.945 6.725l-1.62.106c-3.438.19-6.827.892-10.058 2.082a17.438 17.438 0 002.568-11.693c-.6-3.111.993-5.781.06-8.875-.44-1.462-1.96-5.71-.56-7.081 1.182-1.158 2.31 3.753 2.567 4.392.055.136.462 1.947.977 1.227.341-.477.166-1.757.159-2.287-.025-1.992-.719-4.483-.719-6.6 0-1-.208-2.515.878-2.787.918-.23 1.4.939 1.636 1.613.56 2.078.97 4.194 1.227 6.33.026.2.356 2.7.666 2.6.591-.187.583-2.778.621-3.233.26-3.052.267-6.135.659-9.163.134-1.038.272-2.907 1.7-2.537 1.151.3 1.136 1.7 1.144 2.7.022 2.787-.21 5.459-.349 8.27-.016.34.008 3.439.515 3.52.576.094 1.172-2.211 1.28-2.551.823-2.581 1.127-7.085 2.628-9.406a1.452 1.452 0 012-.19c.768.485.131 2.72.023 3.363-.585 3.49-2.148 9.9-2.317 13.867l.324.369zM148.6 76.039a1.467 1.467 0 01.953-.583 1.458 1.458 0 011.086.262c.986.717 1.185 2.857-.865 4.078a4.27 4.27 0 01-3.015.522l-.333-.2a37.485 37.485 0 002.174-4.08zM65.972 63.733c.1-.045.191-.09.288-.136 1.435-.69 1.718-2.327 2.878-3.3.847-.706 3.236-.961 2.711.788a12.143 12.143 0 01-1.855 2.99c-.779 1.16-1.447 2.386-2.189 3.567a25.393 25.393 0 01-4.082 4.477c-.28.273-1.279 1.044-1.286 1.567-2.159-1.68-5.635-.817-7.778.53l-.455-.65c-1.636-2.75-.583-5.826-.409-8.77.1-1.73.062-3.465-.114-5.188-.111-1.1-1.215-2.77-.106-3.521.529-.36 1.242.393 1.416.765a22.644 22.644 0 011.742 4.574 5.513 5.513 0 00.356-2.34 81.52 81.52 0 00-.583-5.552c-.107-.764.242-2.586 1.3-2.605.7-.012 1 .894 1.173 1.424.564 2.432.877 4.917.932 7.413.006.122-.06.419.03.35.154-.12.057-1.175.1-1.348a28.23 28.23 0 00.7-4.007c.139-1.53-.209-3.527.439-4.945.3-.666 1.053-1.25 1.719-.666a3.25 3.25 0 01.629 2.378c.026 2.12-.181 4.24-.28 6.353-.017.349-.379 2.355-.076 2.612.915-2.373.79-6.426 2.885-8.473.437-.427.674-.764 1.333-.432.742.373.4 1.477.235 2.022-1.007 3.29-2.325 9.69-1.812 9.79l.159.333z"/><path stroke="#0e2238" stroke-linecap="round" stroke-linejoin="round" d="M54.659 74.217l-.455-.651c-1.636-2.75-.583-5.826-.409-8.77.1-1.73.062-3.465-.114-5.188-.111-1.1-1.215-2.77-.106-3.521.529-.36 1.242.393 1.416.765a22.644 22.644 0 011.742 4.574 5.515 5.515 0 00.356-2.34 81.52 81.52 0 00-.583-5.552c-.107-.764.242-2.586 1.3-2.605.7-.012 1 .894 1.173 1.424.564 2.432.877 4.917.932 7.413.006.122-.06.419.03.35.154-.12.057-1.175.1-1.348a28.25 28.25 0 00.7-4.007c.139-1.53-.209-3.527.439-4.945.3-.666 1.053-1.25 1.719-.666a3.25 3.25 0 01.629 2.378c.026 2.12-.181 4.24-.28 6.353-.017.349-.379 2.355-.076 2.612.915-2.373.79-6.426 2.885-8.473.437-.427.674-.764 1.333-.432.742.373.4 1.477.235 2.022-.56 1.973-1.709 6.298-1.82 7.816"/><path fill="#fff" d="M147.975 93.609a8.057 8.057 0 01-1.9-1.3l-.3-.038a5.959 5.959 0 01-1.7 1.106c-1.621.97-3.336 1.78-5.014 2.643-1.411.726-2.146 1.183-2.347.992-.276-.261-1.151-5.028-1.7-6.217l-1.045-.061c-.743.41-1.459.868-2.143 1.37-.682.576-1.384 1.139-2.022 1.765-.107.105-.484.6-.674.493a7.06 7.06 0 01-1.189-2.22l-.174-.083a21.963 21.963 0 00-1.553 3.454l.356.129c.023 0 .137.189.2.249a12.324 12.324 0 008.808 2.969c4.809-.071 9.374-1.935 13.654-4.165l.137-.212c-.462-.29-.932-.578-1.394-.874zM106.4 38.582c1.463-.575 2.181-1.8 3.545-2.067 1.559-.3 1.582.954.81 1.939-1.492 1.9-3.8 2.915-5.332 4.77a10.082 10.082 0 00-1.779 4.18c-.235.94-.44 1.887-.6 2.849a2.73 2.73 0 00-.075.93l-1.871.25c-1.053-.075-2.143-.044-3.158-.037a7.01 7.01 0 00-1.3.053l-.075-.492c.121-1.613.834-3.2.8-4.81-.029-1.506-.847-2.87-.833-4.407.017-1.75 1.034-3.536.833-5.293-.146-1.28-1-2.446-.916-3.734.032-.462.105-1.115.553-1.378 1.095-.642 1.879 2.378 2.105 3.037.1.287.35 1.018.75.87.319-.117.432-1.241.432-1.491 0-1.295-.232-2.363-.129-3.658.031-.394-.008-1.372.515-1.432.545-.061.984.622 1.2 1.03.621 1.2.394 2.909.531 4.24.098.476.292.927.568 1.327.007.007.121-.75.128-.8.038-.47.19-1.091.228-1.568a14.772 14.772 0 01.613-4.362c.151-.371.484-1.137 1.007-1.09.583.052.712 1.03.765 1.454a18.533 18.533 0 01-.462 5.127c-.03.2-.454 1.56-.3 1.71.038.039.3-.53.318-.56a17.93 17.93 0 012.84-4.816c.258-.25.986-.971 1.394-.621.464.4.091 1.412-.061 1.863a68.414 68.414 0 01-2.885 6.385c-.017.012-.259.602-.159.602z"/><path stroke="#0e2238" stroke-linecap="round" stroke-linejoin="round" d="M96.64 51.449l-.075-.492c.121-1.613.834-3.2.8-4.81-.029-1.506-.847-2.87-.833-4.407.017-1.75 1.034-3.536.833-5.293-.146-1.28-1-2.446-.916-3.734.032-.462.105-1.115.553-1.378.952-.338 1.879 2.378 2.105 3.037.1.287.392.945.792.798.319-.118.39-1.17.39-1.42 0-1.294-.232-2.362-.129-3.657.031-.394-.008-1.372.515-1.432.545-.061.984.622 1.2 1.03.621 1.2.394 2.909.531 4.24.098.476.292.927.568 1.327.007.007.121-.75.128-.8.159-1.97.276-4.032.841-5.93.151-.371.484-1.137 1.007-1.09.583.052.712 1.03.765 1.454a18.533 18.533 0 01-.462 5.127c-.03.2-.454 1.56-.3 1.71.038.039.3-.53.318-.56a17.93 17.93 0 012.84-4.816c.258-.25.986-.971 1.394-.621.464.4.091 1.412-.061 1.863"/><path fill="#fff" d="M92.691 102.319a11.01 11.01 0 00-1.5 1.628 14.112 14.112 0 00-3.2 4.513l-.03.417a10.818 10.818 0 01-7.642-3.688 8.2 8.2 0 01-1.825-2.371l-.167-.083a16.826 16.826 0 001.735-4.082c.075-.387.219-1.016-.084-1.349.214-.379 1.211-2.4 1.258-2.507.041-.131.097-.258.166-.377l.22-.046c1.7 4.458 6.221 8.042 10.943 7.513a.9.9 0 00.126.432zM81.308 81.78a1.692 1.692 0 00-.219-.068l-.175-.13a8.736 8.736 0 012.507-2.475c-.25.954-.848 3.355-1.219 4.415a2.152 2.152 0 00-.894-1.742zm52.952 8.8c-.25-.318-3.075-3.824-4.415-5.521l.31-.16c.084-.378.193-.756.266-1.135.031-.166.113-.6.1-.6l.1-.091a8.9 8.9 0 0010.845 1.977l.037.075c.03.12-.485.78-.553.9-.339.6-1.086 2.005-1.416 2.718l.106.2a16.751 16.751 0 01-4.521 1.8c-.139.086.052.069-1.144 0 .172-.102.285-.163.285-.163z"/><path fill="#0e2238" d="M111.192 87.051c.007.53.182 1.81-.159 2.287-.515.72-.922-1.091-.977-1.227-.257-.639-1.385-5.55-2.567-4.392-1.4 1.371.12 5.619.56 7.081.861 2.855-.439 5.354-.159 8.171l-.121.015c-.659.765-1.618 1.131-2.34 1.833-2.288 2.226-3.968 4.5-7.513 4.392-1.756-.055-5.153-1.718-5.354-3.324a11.154 11.154 0 006.255-3.226c.8.8 2.641.028 3.234-.379l.2-.008c-.314-2.427-1.969-4.237-1.484-6.414.8-3.591 3.734-6.375 3.446-10.262a7.168 7.168 0 00-3.015-5.346 4.56 4.56 0 00-2.453-1.03c-.121 0-.447.113-.349.053-.2-.175-.232-.57-.386-.788a3.461 3.461 0 00-1.28-1.091c-3.8-1.917-6.329 2.2-9.027 3.946-1.39.9-2.156.687-4.127 1.674-2.278 1.3-4.01 4.473-4.787 6.763a2.884 2.884 0 001.959 2.294c-.024.125-.04.252-.05.379-.15 1.913.126 3.835.81 5.627l-.219.083c-1.485-.545-1.9-2.482-2.825-3.423-.354-.358-.953-.336-1.394-.515a3.789 3.789 0 01-1.77-1.446c-.949-1.468-.289-2.969-.281-4.544.015-2.719-1.231-5.057.758-7.437 2.541-3.041 6.823-2.766 10.08-4.537 2.95-1.6 5.327-4.505 9.125-3.7l.046-.174c1.84-.735 4.12.2 5.4.644 5.088 1.749 9 5.332 10.655 8.739-.81.455-.613 1.893-.613 2.681.003 2.118.697 4.609.722 6.601z"/><path fill="#fff" d="M187.833 96.782a1.804 1.804 0 00-.583-.8c-.718-.55-1.7-.076-2.53.636-.638 3.062-3.981 4.655-7.065 4.309-4.266-.416-6.82-3.816-5.93-6.748l-.015-.007a2.632 2.632 0 00-3.551-.371h-.069c0 4.427-5.839 6.6-10.141 4.286 0 3.444-1.547 6.785 1.431 10.05.641.72 1.324 1.403 2.045 2.044 2.181 2.038 4.567 4.052 7.695 4.052 3.938.008 6.891-2.226 9.428-5.021a23.85 23.85 0 013.06-3.385c.568-.409 1.37.348 2.014.348 2.631-.177 3.712-2.4 4.31-4.96a7.228 7.228 0 00-.099-4.433z"/><path fill="#fff" d="M184.72 96.616c-.631 3.09-4 4.63-7.065 4.309-4.292-.45-6.8-3.807-5.93-6.748.742-2.515 3.657-4.221 6.967-3.892 4.015.398 6.616 3.45 6.028 6.33z"/><path fill="#dff5f7" d="M178.927 111.876c1.653 1.5 1.631 3.561 2.3 4.938.62 1.287 2.235 1.841 1.4 3.12-.668 1.023-3.89 3.367-4.885 4.067-2.724 2.15-8.5 6.936-10.209 8.042-.212.137-.815.573-1.083.334-.247-.222-.146-.978.008-1.674.347-1.262.498-2.57.447-3.878-.464.027.1-.123-2.068 1.1-1.127.635-.881.524-1.318.621a3.159 3.159 0 00-2.778-1.144l1.878-.114c.348-.977-.159-2.7-.023-3.938.023-.433.216-.838.537-1.128a7.215 7.215 0 013.59-1.159c.144-.012 1.06-.212 1.106-.219a26.73 26.73 0 006.785-3.446l-.227-.333a53.185 53.185 0 013.272-5.817c1.034.486 1.166.568 1.268.628z"/><path fill="#fff" d="M181.237 106.181c.144-.053-.2.212-.3.325a66.491 66.491 0 00-6.558 10.558l.227.333a26.682 26.682 0 01-6.785 3.446c-.046.007-.962.207-1.106.219a7.215 7.215 0 00-3.59 1.159c-.321.29-.514.695-.537 1.128l-2.113-.121a6.92 6.92 0 00-.053-1.522l-.114-.1c.418 0-.792-2.2-.841-5.528l.758-.015a18.377 18.377 0 001.014-5.688l.182-.2c2.181 2.038 4.567 4.049 7.695 4.052 3.938 0 6.891-2.226 9.428-5.021a33.709 33.709 0 012.658-3.067l.035.042zm-5.37 80.957l-.128.637c-3.749 3.059-8.392 3.55-13.072 3.832-4.264.256-8.535.3-12.8.25-2.227-.026-6.688-.546-8.907-.614l-.208-.166a12.222 12.222 0 012.162-2.363c1.613-1.332 4.045-1.234 5.983-1.81 2.621-.779 6.543-2.893 9.133-3.734l.47-.295c.932 2.225 5.367 1.953 7.869 2.4 1.646.294 7.976 1.561 9.498 1.863z"/><path fill="#0e2238" fill-rule="evenodd" d="M173.809 189.066a.5.5 0 01-.224.67c-1.545.773-3.735 1.363-5.782 1.759-2.041.396-3.999.61-5.121.612-4.275.256-8.554.3-12.821.25l.006-.5-.006.5c-1.136-.013-2.828-.152-4.493-.293l-.373-.032c-1.548-.132-3.039-.258-4.05-.289a.501.501 0 01.03-1c1.04.032 2.559.161 4.094.292l.384.032c1.677.143 3.329.277 4.42.29 4.258.05 8.516.006 12.764-.249l.03-.001c1.032 0 2.929-.203 4.946-.593 2.02-.392 4.103-.961 5.525-1.672a.5.5 0 01.671.224z" clip-rule="evenodd"/><path fill="#dff5f7" d="M193.793 153.71c-1.768-3.744.565-10.9-.083-17.2-.3-2.772-2.159-4.1-3.832-6.1a42.409 42.409 0 01-3.461-5.1c-2.454-3.946-2.7-4.171-3.075-5.233l-.719-.144c-.669 1.022-3.884 3.363-4.885 4.067-2.9 2.291-8.47 6.914-10.209 8.042-.212.137-.818.576-1.083.334-.25-.22-.144-.977.008-1.674l-.349-.068c-.1.04-1.6.635-1.931.787l-.416-.075a15.446 15.446 0 01-1.75 4.741 21.803 21.803 0 00-1.56 2.272c-1.173 2.7-4.207 23.452-7.376 34.359l-.03.8c.863.023 1.7.06 2.332.1l.324.092c-.047.487.046.978.268 1.415.522 1.409 1.143 2.772 1.6 4.2a29.82 29.82 0 00.931 3.552c.932 2.224 5.357 1.954 7.869 2.4 1.643.3 14.639 2.909 17.221 3.363 2.416.424 5.536.939 7.293-1.219 1.439-1.757 1.878-4.332 2.2-6.506a61.74 61.74 0 00-.068-14.676c-.318-3.439 1.848-6.195 1.984-9.52.054-1.259-.704-1.952-1.203-3.009z"/><path fill="#009ea9" d="M166.9 126.825l-.265.016c-.584.386-1.2.734-1.8 1.083-1.194.658-.843.515-1.318.621a3.156 3.156 0 00-2.778-1.144 7.932 7.932 0 00-3.356.757.71.71 0 00-.2.242l-.348-.136a16.208 16.208 0 01-.257-4.407c0-.4.054-1.85.037-2.022l-.113-.137a16.601 16.601 0 00-2.712 3.378l.258.174c.001.1.011.201.03.3.18 1.865.781 3.665 1.757 5.264l.371.121c-.9 2.747-.646 3.6-.894 6.444a17.84 17.84 0 01-1.462 4.764c-3.3 8.4-7.452 22.167-10.064 31.732l.083.462c2.174-.4 4.392-.576 6.3-.758.757-.068 1.833-.075 2.878-.06l.03-.8c3-10.322 4.65-23.106 7.119-33.58a8.982 8.982 0 011.817-3.051 15.446 15.446 0 001.75-4.741l.416.075c.375-.172 1.6-.658 1.931-.787l.349.068c.347-1.262.496-2.571.441-3.878z"/><path fill="#0e2238" d="M128.816 66.376l.416 1.015a58.636 58.636 0 00-.523 3.786l-.227-.022c-.424-.424-.644-.947-1.3-1.106-1.391-.336-2.127 1.814-1.87 3.1-2.4.5-5.173-2.617-4.113-5.407.209-.55.986-1.3.932-1.91-.074-.832-1.468-1.8-1.909-2.475a7.253 7.253 0 01-1.1-5.544 5.958 5.958 0 015.65-4.536c.916-.033 2.491.606 3.317.12.826-.484 1.1-2.128 1.515-2.915a9.027 9.027 0 013.72-3.8c2.582-1.2 5.441-.231 7.474 1.575.726.645 1.455 2.1 2.409 2.416.894.293 2.406-1.132 3.158-1.485 4.141-1.945 9.224 1.4 8.845 8.528-.051.969-.55 2.09-.416 3.059.095.69 1.179.793 1.688 1a4.468 4.468 0 012.257 1.954c1.475 2.684-1.268 4.12-1.363 6.46-.063 1.567 1.916 2.045.348 4.006l.022.042a8.971 8.971 0 00-4.877 5.449l-.2-.061a2.918 2.918 0 01-2.878.212l-.023-.045a2.66 2.66 0 001.234-3.688 1.47 1.47 0 00-1.186-.668 1.46 1.46 0 00-1.222.599 24.958 24.958 0 002.061-6.37l.045.009c.068-.682.2-1.743.038-1.855-.294-.207-1.2.037-1.56.015a3.932 3.932 0 01-2.825-1.2 4.739 4.739 0 01-1.007-2.492c-.016-.167.068-1.357-.2-1.325-.553.065-1.238.75-1.727 1.007a8.866 8.866 0 01-4.4 1.06 4.511 4.511 0 01-3.241-1.568c-.195-.221-.811-1.7-1.1-1.681-.667.053-1.714 1.846-2.159 2.287a11.245 11.245 0 01-3.703 2.454z"/><path fill="#fff" d="M157.571 179.323c-.462-1.424-1.083-2.787-1.6-4.2a2.568 2.568 0 01-.266-1.454 36.155 36.155 0 00-5.536-.091c-5.109.487-10.491.844-14.033 4.173a16.467 16.467 0 00-4.332 6.627c-.195.579-.682 2.022-.1 2.544.441.394 1.136-.555 1.485-1.023a10.301 10.301 0 00-1.121 4.371 1.305 1.305 0 00.439 1.075c.568.4 1.318-.477 1.636-.841a69.943 69.943 0 001.995-2.44c-.368.874-.674 1.779-.988 2.713-.144.429-.7 2.2.083 2.408.531.137 1.068-.522 1.356-.863.495-.59.957-1.206 1.385-1.846-.178.346-.345.702-.5 1.066-.174.484-.57 2.113.362 2.242.613.083 1.265-.7 1.621-1.091 1.357-1.491 1.769-2.587 3.46-3.983 1.613-1.332 4.044-1.235 5.983-1.81 2.62-.78 6.543-2.893 9.133-3.734l.47-.295a30.004 30.004 0 01-.932-3.548zm-11.618-39.873c.621 1.469-1.359 11.235-2.779 12.67-1.481 1.5-8.064 3.117-8.77 2.847-1.066-.406-4.65-5.058-4.771-6-.136-1.052 2.1-9.686 2.446-12.238.106.311 8.657 1.423 11.239 1.757.742.098 2.241.032 2.635.964z"/><path fill="#dff5f7" d="M139.637 88.944l-.106-.2c.371-.8.788-1.59 1.219-2.363l.129.076a2.08 2.08 0 011.848.644c.824.91.6 2.408 1.318 3.415.401.494.886.914 1.431 1.242.1.076.451.249.364.417-.016.03-.038.06-.061.1-.5.462-1.075.837-1.7 1.106-1.621.969-3.336 1.78-5.014 2.643-.7.415-1.436.764-2.2 1.045a.199.199 0 01-.144-.053c-.276-.261-1.151-5.028-1.7-6.217a20.224 20.224 0 004.616-1.855z"/><path fill="#fff" d="M123.294 173.242c1.702.46 3.449.731 5.21.81 3.7.409 8.225.719 11.943.977l.053.167a11.288 11.288 0 00-4.369 2.559 16.38 16.38 0 00-4.332 6.627c-.195.579-.682 2.022-.1 2.544.529.473 1.478-.993 1.916-1.62a9.578 9.578 0 00-1.552 4.968c-7.066-.015-12.89-.333-19.107-.856-2.129-.179-5.779-.31-6.824-2.62-2.219-4.907 1.513-9.082 4.658-12.436 1-1.063 2.006-2.113 3.059-3.127 3.908-3.762 10-2.458 10.172-.137a5.517 5.517 0 01-.712 2.068l-.015.076z"/><path fill="#0e2238" fill-rule="evenodd" d="M114.209 170.888a.5.5 0 01-.013.707 88.428 88.428 0 00-3.042 3.109c-1.578 1.684-3.247 3.516-4.258 5.519-1 1.98-1.34 4.088-.308 6.369.427.945 1.413 1.499 2.677 1.831 1.09.287 2.279.381 3.286.461l.447.036c6.206.522 12.016.839 19.066.854a.5.5 0 11-.002 1c-7.082-.015-12.92-.334-19.148-.858l-.431-.035c-1-.078-2.289-.179-3.473-.49-1.354-.356-2.716-1.022-3.334-2.387-1.187-2.626-.77-5.059.327-7.232 1.086-2.15 2.856-4.082 4.422-5.752l.001-.001a88.384 88.384 0 013.076-3.144.5.5 0 01.707.013z" clip-rule="evenodd"/><path fill="#dff5f7" d="M126.369 87.369l.331.63a1.604 1.604 0 00-.394.243c-1.522 1.292-1.711 3.605-3.2 4.976l-.318-.38c.157-2.029.422-4.049.795-6.05l.265.045c.553-.2 1.116-.362 1.674-.537.045-.015.477-.19.522-.122h.076c.017.41.101.813.249 1.195z"/><path fill="#fff" d="M111.419 157.724l.167.212c-1.924 8.119-15.381 7.429-16.744 7.483-7.53.295-5.05.452-16.722.075a8.654 8.654 0 01.636-3.173 27.222 27.222 0 012.719-3.272l.227-.727c.52.308 1.081.543 1.666.7 1.666.448 3.553-1 5.112-1.273a31.505 31.505 0 018.179-.2c3.633.311 11.769 2.416 14.76.175z"/><path fill="#0e2238" fill-rule="evenodd" d="M110.567 160.334a.5.5 0 01.091.701c-2.086 2.711-5.188 3.946-7.863 4.516-2.268.483-4.296.499-5.197.506-.16.001-.286.002-.37.005-.64.025-1.838.014-2.984.002l-.06-.001h-2.712l-.366.016c-4.892.22-7.651.344-13.026-.087a.5.5 0 11.08-.997c5.312.426 8.02.304 12.906.085l.373-.017c.509-.023 1.591-.012 2.694 0h3.066c.1-.004.24-.005.411-.007.927-.008 2.825-.025 4.977-.483 2.565-.546 5.399-1.704 7.278-4.147a.501.501 0 01.702-.092z" clip-rule="evenodd"/><path fill="#009ea9" d="M102.278 112.77c.034.117.049-.2-.658 2.544l-.894-.121a26.212 26.212 0 01-5.6-4.506 24.968 24.968 0 01-1.515-2.772 9.099 9.099 0 00-2.052-2.454c-.158-.13-.583-.5-.811-.492l-.257-.242a29.69 29.69 0 012.2-2.408c.8 1.628 3.786 2.847 5.225 2.892 3.545.113 5.225-2.166 7.513-4.392.722-.7 1.681-1.068 2.34-1.833l.121-.015c.023.235.053.47.1.7a17.438 17.438 0 01-2.568 11.693c-.621.213-1.232.452-1.84.7a3.585 3.585 0 00-1.304.706z"/><path fill="#fff" d="M102.248 98.274l-.2.008c-.651.447-2.453 1.144-3.211.4l-.023-.022a22.486 22.486 0 002.431-2.651l.319-.121c.346.756.576 1.56.684 2.386z"/><path fill="#dff5f7" d="M88.132 17.605c.299.01.597-.037.878-.137.273-.166.342-.651.47-.916.365-.757 2.059-2.423 2.809-1.13.734 1.267-1.108 2.685-1.7 3.674-.519.874-.379 1.924-.924 2.81-1.249 2.03-4.716 3.155-6.755 1.818-1.4-.92-1.883-2.5-2.439-3.953-.673-1.76-1.892-5.166-.765-6.672a.533.533 0 01.74-.12c.145.124.27.272.366.438.008.015.121.2.144.18.091-.09.06-.536.083-.665.047-.52.278-1.006.651-1.371a.816.816 0 011.015.12c.053.039.326.342.4.274.106-.083.083-.371.1-.485.054-.416.122-1.171.621-1.348.614-.217 1.105.823 1.257 1.22.032.082.084.393.19.43.053.024.167-.438.181-.476.132-.34.364-.818.818-.72.667.145 1.152 1.084 1.227 1.644.275 2.052.523 3.522.614 5.256l.019.129z"/><path fill="#fff" d="M90.313 95.54c-.424.955-1.515.78-2.174.182a3.93 3.93 0 01-.651-2.893c-.03-.113.6-.2.651-.212a2.21 2.21 0 012.174 2.923zm9.035 28.786c.537-1.87 1.507-6.013 2.272-9.012l-.894-.121a26.212 26.212 0 01-5.6-4.506 24.968 24.968 0 01-1.515-2.772 8.56 8.56 0 00-3.12-3.188 13.243 13.243 0 00-2.732 4.138c-5.989-.373-9.072-5.729-9.431-6.13-1.227 2.445-2.1 4.931-2.961 6.717-.772 1.659-1.856 2.7-1.507 4.666a41.905 41.905 0 001.56 5.869 77.426 77.426 0 003.514 10.557c2.647 6.028 6.758 12.245 3.855 19.584l.2.076c2.8-1.863 5.68-2.264 8.9-3.007.75-.174 2.075-.106 2.712-.356l.28-.053c-.409-1.741.068-3.854.121-5.483.083-2.537-1.234-5.157-.613-7.641.854-3.431 3.951-5.824 4.959-9.338z"/><path fill="#fff" d="M71.107 141.3a114.361 114.361 0 01-2.862-17.487c-.345-3.371-.317-6.68-1.245-9.813-1.361-4.564-4.708-9.157-4.128-14.435.057-.516.3-1.428.962-1.461 1.682-.084 1.543 3.019 2.127 3.983.076.123.167.235.273.334l.674-.061c-.038-.742.016-2.166.023-2.916a27.88 27.88 0 01.893-7.088c.137-.5.568-2.187 1.326-2.166 1.294.035.619 4.13.7 6.354.005.12.031 1.856.242 1.81.334-.074.544-2.211.591-2.484.26-1.769.795-3.485 1.583-5.09.283-.544.78-1.334 1.446-1.454 1.569-.281-.09 4.192-.606 7.5-.05.327-.4 1.629-.143 1.924.212.212 1.8-6.223 4.384-6.278 1.388-.03-.08 2.843-1.173 6.278-.112.349-.593 1.357-.4 1.727.09.174.94-.931 1-1.007a9.841 9.841 0 012.045-2c.3-.21.828-.532 1.151-.182.3.332.166.97.091 1.356a16.767 16.767 0 01-1.735 4.082c-1.137 2.314-2.1 4.895-2.961 6.717-.783 1.654-1.856 2.7-1.507 4.666a41.892 41.892 0 001.56 5.869c3.5 13.733 7.789 16.786 8.323 23.984a13.532 13.532 0 01-.954 6.157 7.268 7.268 0 01-2.045 3.249 3.104 3.104 0 01-1.832.523 8.293 8.293 0 01-2.447-.447 29.367 29.367 0 01-6.573-3.484l-.439.015a20.64 20.64 0 011.4-8.618l.256-.057z"/><path fill="#0e2238" fill-rule="evenodd" d="M73.765 113.617a.5.5 0 01.584.398 41.36 41.36 0 001.553 5.839c1.739 6.821 3.671 10.985 5.243 14.355l.048.103c1.55 3.323 2.775 5.947 3.047 9.611a14.03 14.03 0 01-.981 6.363c-.516 1.685-1.388 2.909-2.612 3.549-1.23.643-2.717.643-4.347.081a.5.5 0 11.326-.945c1.459.503 2.644.455 3.558-.022.917-.479 1.66-1.442 2.124-2.976a13.026 13.026 0 00.934-5.972v-.003c-.258-3.481-1.414-5.96-2.985-9.326l-.018-.041c-1.58-3.386-3.54-7.61-5.3-14.51a42.408 42.408 0 01-1.572-5.919.5.5 0 01.398-.585zm.057-23.804c-.442.107-.883.562-1.294 1.41-.399.825-.705 1.89-.951 2.968a54.48 54.48 0 00-.452 2.255c-.044.241-.086.47-.127.681-.076.397-.15.749-.225 1.005a1.921 1.921 0 01-.14.365.777.777 0 01-.147.196.58.58 0 01-.342.158.544.544 0 01-.417-.131.645.645 0 01-.156-.209 1.324 1.324 0 01-.095-.304 5.661 5.661 0 01-.08-.658 16.618 16.618 0 01-.043-.878l-.002-.073v-.036c-.022-.58.006-1.273.038-1.967l.009-.193c.029-.639.058-1.275.057-1.855-.002-.647-.042-1.173-.142-1.526a.83.83 0 00-.14-.309c-.02-.023-.026-.023-.033-.023h-.006a.087.087 0 00-.018.008.422.422 0 00-.105.09 1.978 1.978 0 00-.302.498c-.186.408-.314.876-.388 1.148l-.014.051a27.378 27.378 0 00-.876 6.958.5.5 0 11-1 .003 28.376 28.376 0 01.909-7.215l.002-.007.016-.058c.072-.267.22-.808.441-1.295.12-.262.274-.54.474-.759.2-.217.498-.432.89-.421m4.66.123c.008.028.018.07.026.13.044.34-.015.906-.156 1.663-.117.625-.279 1.331-.449 2.073l-.095.416c-.202.887-.405 1.807-.537 2.653v.002a6.448 6.448 0 01-.05.246l-.025.125c-.036.175-.079.388-.112.603a4.084 4.084 0 00-.055.654c.001.105.01.22.036.33a.847.847 0 00.18.37.5.5 0 00.792-.608.71.71 0 01-.008-.107 3.14 3.14 0 01.044-.488 10.838 10.838 0 01.123-.65c.026-.125.051-.245.063-.324v.002c.126-.808.322-1.698.524-2.585l.094-.41c.17-.742.337-1.471.458-2.118.14-.75.232-1.462.164-1.977-.033-.255-.117-.556-.346-.77-.26-.245-.595-.275-.897-.204-.913.215-1.533 1.048-1.97 1.95-.448.928-.774 2.08-1.025 3.18-.085.37-.162.739-.233 1.095l.019-.423.009-.196c.029-.634.06-1.295.058-1.9-.002-.66-.04-1.303-.18-1.797-.07-.247-.177-.499-.352-.697a1.032 1.032 0 00-.76-.361" clip-rule="evenodd"/><path fill="#fff" d="M74.47 152.642c-1.063 2.261-3.386 4.113-4.256 1.651a13.918 13.918 0 01-.765-4.309l.439-.015a37.166 37.166 0 004.582 2.673z"/><path fill="#009ea9" d="M73.4 15.787c-1.682 3.268-5.087 9.85-6.256 12.087a1 1 0 01-1.219.485c-.076-.03-.158-.055-.235-.084a1.688 1.688 0 01-1.03-2.188c1.123-2.976 3.487-9.254 4.476-11.89a1.537 1.537 0 011.727-.97l1.437.273a1.587 1.587 0 011.1 2.287z"/><path fill="#fff" d="M70.713 173.931c4.969 4.9-1.348 11.423-6.043 13.321-.189.077-.386.152-.583.22l-.432-1.121c.47-.311.527-1.264.545-1.719a21.413 21.413 0 00-1.166-6.93c-.007-.038-.242-.886-.167-.878.438.047.745 2.1 2.583 5.49.3.493.95 1.158 1.272.281.853-2.322-.945-5.79-2.082-7.71a15.243 15.243 0 00-3.734-4.256l.129-.159c1.08-.084 2.165.003 3.218.257a14.93 14.93 0 016.46 3.204z"/><path fill="#0e2238" fill-rule="evenodd" d="M64.136 171.213a9.83 9.83 0 00-3.062-.245.5.5 0 11-.078-.997c1.13-.087 2.267.003 3.37.268a15.438 15.438 0 016.698 3.336c1.327 1.308 1.925 2.755 1.961 4.225.036 1.456-.479 2.886-1.285 4.181-1.607 2.58-4.448 4.75-6.883 5.734a.5.5 0 11-.374-.927c2.26-.914 4.925-2.954 6.408-5.335.738-1.186 1.164-2.424 1.134-3.628-.03-1.186-.502-2.387-1.65-3.525a14.445 14.445 0 00-6.23-3.085l-.01-.002z" clip-rule="evenodd"/><path fill="#0e2238" d="M34.582 88.263l.075.06c-1.59 2.658-.39 7.36.212 10.1.617 2.809.327 5.8 2.06 8.247a16.23 16.23 0 009.3 6.286 24.406 24.406 0 012.226 5.263l-.287.084a15.899 15.899 0 00-2.833 8.671c-.2-.3-.4-.591-.606-.879-1.9-2.669-.709 1.551-.53 2.7.04.257.226.914-.06 1.106-.335.224-1.114-.077-1.583-.182-1.264-.283-3 .614-4.331.3-.523-.122-1.227-1.165-1.712-1.053-.734.169.576 2.711-.893 2.583-1.22-.107-2.419-1.894-3.022-2.795-3.073-4.592-2.735-9.447-3.2-15.639-.895-12.03-8.464-20.864 7.763-33.132-.054 0 .166-.394.174-.41a7.35 7.35 0 013.771-2.43 16.236 16.236 0 0111.08.568c4.789 1.85 9.349 5.347 10.739 10.458a58.14 58.14 0 011.385 9.89l-.485.039c-.666.03-.905.945-.962 1.46-.574 5.283 2.777 9.897 4.137 14.442.994 3.335.966 7.539 1.249 9.807l-.424.038c-.818.583-2.5 1.526-3.537 1.083-.355-.153-.628-1.372-.863-1.34-.318.043-.654.678-.841.893a4.675 4.675 0 01-1.847 1.318 12.92 12.92 0 01-4.067.515 2.7 2.7 0 01-1.394-.121c-.378-.265.024-1.2-.348-1.325-.786-.269-1.9 1.59-2.8 1.151-.228-.112.206-.787.273-.9.559-.961 1.349-1.794 1.818-2.809a49.22 49.22 0 003.627-14.336 33.34 33.34 0 00-1.855-15.291 12.77 12.77 0 00-5.854-6.7 5.81 5.81 0 00-2.378-.977c-.923.042.381 3.083-.8 4.022-.728.58-1.744-.05-2.355-.5-.061-.045-.848-.705-.886-.614-.083.2.249.788.311.97.246.728 1.007 2.8-.015 3.264-.689.31-1.629-.4-2.106-.818a14.258 14.258 0 01-3.582-6.188l-.477.114c-.727.083-1.6 1.136-2.06 1.606-.432.44-.836.908-1.207 1.4z"/><path fill="#fff" d="M9.893 173.09l.219-.053c.156.716.371 1.419.644 2.1.338.842.909 2.319 1.939 2.53.742.152 1.327-.544 1.711-1.075.216-.3.417-.611.6-.932l.447.265a134.633 134.633 0 0020.273-2.007c2.776-.5 6.512-1.828 9.292-.787 1.666.623 2.952 2.032 4.408 3.006 1.611 1.078 3.8 1.871 4.915 3.544.917 1.379 1.049 3.111 1.848 4.552.164.3.688 1.248 1.159.939 1.208-.792-.114-3.067.575-3.862a20.908 20.908 0 001.644 4.786c.151.235.6.961.977.644.983-.842.079-4.227-.091-5.271-.075-.455-.162-.916-.243-1.379-.008-.045-.1-.764-.083-.757.307.144.525 1.294.613 1.575.413 1.364.91 2.702 1.485 4.007.169.373.69 1.741 1.333 1.484a.522.522 0 00.1-.053l.432 1.121c-5.408 2.052-11.466 2.211-17.176 2.378-7.528.219-15.085.2-22.614.113a74.7 74.7 0 01-13.988-1.333c-1.624-.33-3.788-.794-4.612-2.431-1.465-2.913-.422-6.971 1.212-9.466a24.358 24.358 0 012.628-3.3c.097-.102.353-.428.353-.338z"/><path fill="#0e2238" fill-rule="evenodd" d="M7.186 176.309a.501.501 0 01.144.693c-.78 1.19-1.423 2.763-1.693 4.384-.27 1.624-.16 3.251.51 4.583.338.671.965 1.133 1.755 1.47.793.339 1.69.529 2.507.695a74.18 74.18 0 0013.891 1.324h.006c7.526.087 15.075.106 22.593-.113l.12-.004c5.692-.166 11.616-.339 16.894-2.342a.5.5 0 01.354.935c-5.436 2.063-11.503 2.24-17.138 2.405l-.2.005c-7.538.22-15.102.201-22.632.114a75.164 75.164 0 01-14.08-1.342l-.005-.001c-.806-.164-1.802-.371-2.702-.756-.904-.386-1.77-.975-2.257-1.941-.795-1.58-.895-3.439-.602-5.196.293-1.76.988-3.464 1.843-4.768a.5.5 0 01.692-.145z" clip-rule="evenodd"/><path fill="#fff" d="M62.437 73.692c2.1 1.558 1.111 4.9 1.31 7.119.156 1.726 0 2.537-.151 9.527l-.182.038c-.144-.788-.3-1.53-.484-2.2-1.39-5.111-5.961-8.58-10.739-10.458l.129-.318c-.728-.947 1.4-2.574 2.082-3.014 2.298-1.492 5.819-2.335 8.035-.694zm-4.59 34.284l-.152-.015c-1.734 2.135-3.877 4.247-6.6 4.99-4.975 1.356-11.143-2.007-14.162-6.278-1.733-2.451-1.443-5.438-2.06-8.247-.6-2.742-1.8-7.445-.212-10.1l-.075-.06c.373-.493.778-.96 1.212-1.4.462-.47 1.333-1.523 2.06-1.606l.477-.114a14.24 14.24 0 003.582 6.188c.477.416 1.417 1.129 2.106.818 1.022-.462.261-2.536.015-3.264-.062-.182-.394-.773-.311-.97.038-.091.825.569.886.614.611.45 1.627 1.08 2.355.5 1.159-.924-.113-3.981.8-4.022a5.81 5.81 0 012.378.977 12.77 12.77 0 015.854 6.7 33.373 33.373 0 011.847 15.289z"/><path fill="#fff" d="M48.456 118.222a25.325 25.325 0 00-2.226-5.263 9.501 9.501 0 004.861-.008c2.727-.743 4.87-2.855 6.6-4.99l.152.015a50.993 50.993 0 01-3.355 13.715l-.076-.031a13.256 13.256 0 01-6.922.773 7.075 7.075 0 01-1.235-.417 14.368 14.368 0 011.91-3.71l.291-.084z"/><path fill="#009ea9" d="M57.074 26.82a1.048 1.048 0 01-.742 1.145c-.258.076-.538.15-.8.227a1.09 1.09 0 01-1.349-.743l-3.331-12.836a1.635 1.635 0 01.909-1.9l1.719-.772a1.2 1.2 0 011.688.93 4457.74 4457.74 0 011.906 13.95z"/><path fill="#fff" d="M56.279 126.333l.007.326c-2.105 3.377-4.105 6.964-8.633 7.134a5.32 5.32 0 01-4.1-1.7 20.68 20.68 0 01-1.045-2.135l.054-.235c.469.106 1.248.406 1.583.182.286-.192.1-.849.06-1.106-.179-1.153-1.373-5.373.53-2.7.205.288.409.584.606.879.014-1.695.326-3.375.923-4.961a7.15 7.15 0 001.235.417c2.335.363 4.725.097 6.922-.773l.076.031c-.758 1.832-1.307 2.084-2.09 3.43-.067.115-.5.79-.273.9.9.439 2.009-1.42 2.8-1.151.372.127-.03 1.06.348 1.325.312.141.658.188.997.137z"/><path fill="#009ea9" d="M39.08 36.348c-1.2 1.136-1.833 3.742-1.96 5.294-.083.93.242 2.15 1.431 1.818 2.613-.743.667-6.324 4.65-5.81 2.082.275 4.009 2.596 3.476 5.908-.866 5.42-6.824.94-9.406 3.756-1 1.09-2.256 6.339.652 5.877 1.984-.318.533-3.636 2.045-4.377 1.06-.521 2.392 0 3.559-.091a6.532 6.532 0 005.733-4.211c1.657-4.884-4.998-13.056-10.18-8.164zm-.65 19.365c.2.2.159.6.159.863 0 .674.1 1.859-.628 2.219a1.287 1.287 0 01-1.861-1.113 5.7 5.7 0 01.1-1.386c.012-.224.077-.442.189-.636a2.054 2.054 0 012.041.053zm-3.137-30.528c.518.428 1.491 1.119 1.3 1.909a1.282 1.282 0 01-2.045.719 5.782 5.782 0 01-.78-.7 2.234 2.234 0 01-.591-.81c-.06-.523.864-1.5 1.349-1.538.29-.026.574.26.767.42zM32.847 9.274a6.492 6.492 0 01-.424 7.1c-.625.86-1.978 1.719-2.211 2.795-.358 1.65 3.079 2.645 2.052 4.377-1.5 2.533-4.732-1.8-4.93-3.264-.511-3.787 6.715-5.49 3.12-9.633-2.126-2.451-5.174-2.562-6.763-1.106-2.959 2.712 2.6 4.808 1.492 7.293-.5 1.128-1.643.6-2.31-.06-1.112-1.1-2.7-3.257-2.809-4.893-.458-7.122 10.165-7.056 12.783-2.61z"/><path fill="#dff5f7" d="M17.784 38.969c.227-.235.57-.454.659-.743.109-.355-.209-.841-.3-1.181-.264-.957-.075-3.72 1.613-3.082 1.659.627 1.124 3.265 1.386 4.6.231 1.174 1.186 2.036 1.4 3.24.5 2.77-1.727 6.317-4.612 6.582-1.977.182-3.665-.913-5.316-1.84-1.916-1.075-5.795-3.35-5.953-5.536-.049-.678.666-.748 1.242-.515.023 0 .265.09.273.068.007-.16-.379-.545-.455-.682a2.613 2.613 0 01-.5-1.726c.1-.485.567-.621 1-.63.076 0 .56.077.576-.037.022-.16-.214-.4-.3-.515-.293-.412-.815-1.165-.507-1.69.382-.648 1.635-.043 2.083.2.1.055.393.3.522.266.061-.022-.2-.53-.219-.575-.159-.4-.326-1.007.159-1.25a2.59 2.59 0 012.4.614c1.864 1.673 3.257 2.832 4.711 4.347l.138.085z"/><path fill="#0e2238" d="M15.384 159.389c-.54.073-.628.08-.628.08a.499.499 0 00-.154.969.506.506 0 00.193.031c.088 0 .989-.128 1.089-.143 3.323.03 6.62.603 9.758 1.695a.498.498 0 00.645-.29.501.501 0 00-.29-.645 29.495 29.495 0 00-10.613-1.697z"/><path fill="#0e2238" d="M42.038 164.831c-.752-.07-8.475-.876-10.493-1.032a.5.5 0 00-.02-.534c-2.652-3.858-5.986-11.85-5.078-16.216a21.332 21.332 0 011.634-5.167.508.508 0 00-.426-.922c-.926.325-1.985 4.82-2.189 5.893-.955 4.591 2.428 12.841 5.168 16.879-1.252-.084-2.418-.132-3.391-.116a.503.503 0 00-.493.508.522.522 0 00.508.492c3.5-.065 8.988.676 14.687 1.211 8.61.8 17.807 1.739 22.265 9.314 1.114 1.867 2.885 5.342 2.022 7.334a1.556 1.556 0 01-.342-.4c-2.109-3.9-2.025-5.641-2.971-5.75a.52.52 0 00-.439.176c-.311.362 0 .944.514 2.932.517 1.689.754 3.451.7 5.216.034.449-.065.898-.284 1.292-.21-.076-.516-.737-.733-1.224-1.886-4.237-1.547-5.483-2.354-5.838a.495.495 0 00-.5.055c-.364.267-.21.6.128 2.617.123.78.888 3.883.349 4.709a2.528 2.528 0 01-.3-.4c-1.626-2.909-1.153-5.042-2.08-5.042a.496.496 0 00-.378.172c-.845.976.3 3.108-.408 3.724a2.49 2.49 0 01-.509-.712c-.769-1.415-.9-3.123-1.871-4.59-1.2-1.8-3.435-2.6-5.052-3.682-1.432-.963-2.753-2.405-4.511-3.059-2.933-1.1-6.687.22-9.553.762a141.525 141.525 0 01-20.2 2 .502.502 0 00-.486.513.517.517 0 00.513.487 128.21 128.21 0 0020.353-2.016c2.751-.518 6.413-1.793 9.025-.81 1.57.585 2.84 1.971 4.305 2.954 1.612 1.075 3.745 1.856 4.775 3.405.864 1.3 1 3 1.841 4.54.3.529.671 1.087 1.183 1.211.646.161 1.221-.487 1.37-1.14a12.5 12.5 0 00.84 1.816c.282.437.662.934 1.185.934a.8.8 0 00.525-.2c.6-.514.7-1.537.583-2.746.475 1.146 1.132 2.955 2.282 2.493 1.371-.55.981-3.864.755-5.331.172.347.351.693.537 1.035.819 1.334 1.827 1.129 2.167.193.7-1.873-.016-4.612-2.12-8.137-4.66-7.917-14.071-8.966-23.033-9.803zM32.006 93.829a.502.502 0 00.607-.363c.19-.76.448-1.5.768-2.215a26.224 26.224 0 00.883 6.76c.784 3.5.459 6.327 2.261 8.957a17.072 17.072 0 009.354 6.415c.073.065.007-.026.194.328a25.109 25.109 0 012.5 7.053.502.502 0 00.593.386.5.5 0 00.386-.593 26.852 26.852 0 00-2.37-6.9c4.122.6 7.24-1.242 10.005-4.325a50.499 50.499 0 01-3.052 11.9 12.673 12.673 0 01-6.539.709 3.695 3.695 0 01-.768-.247.502.502 0 00-.66.252.5.5 0 00.252.661c.322.144.66.251 1.006.319 2.051.32 4.149.172 6.135-.432-.718 1.255-2.792 3.433-1.647 3.977 1.034.5 1.987-.714 2.684-1.078a1.274 1.274 0 00.468 1.258c.561.253.591.074.48.253-1.991 3.217-3.875 6.252-7.913 6.387a4.76 4.76 0 01-3.677-1.494c-.369-.658-.7-1.336-.991-2.032a.502.502 0 00-.525-.302.491.491 0 00-.202.073.504.504 0 00-.57-.13.505.505 0 00-.315.492 34.636 34.636 0 000 4.337c.161 3.933.967 9.122 4.884 9.565 2.282.25 4.417-1.456 5.927-3.172 3.362-3.8 4.93-9.375 5.917-13.846a10.778 10.778 0 002.831-.514 4.933 4.933 0 002.266-1.751l.139-.2c.168.392.383.906.768 1.071 1.215.526 2.9-.391 3.713-.921A104.891 104.891 0 0070.512 141a.516.516 0 00-.131.195 21.186 21.186 0 00-1.432 8.8 15.03 15.03 0 00.8 4.47c1.007 2.729 3.613 1.4 5.047-1.334a.499.499 0 10-.885-.464c-.7 1.328-1.748 2.35-2.458 2.29-.31-.02-.568-.3-.761-.825a14.047 14.047 0 01-.739-4.17 19.39 19.39 0 01.991-7.314c.163.611.313 1.143.426 1.5a.494.494 0 00.246.293.493.493 0 00.381.034.508.508 0 00.293-.246.501.501 0 00.034-.381 101.595 101.595 0 01-3.576-20.08l-.425.033v-.025l.413-.182c-.25-3.219-.315-6.572-1.254-9.737-1.294-4.325-4.673-9.08-4.111-14.226.064-.588.283-1.02.493-1.028 1.122-.063 1.071 2.729 1.676 3.747.748 1.212 2.54 1.3 3.366 2.059a.496.496 0 00.549.085.499.499 0 00.128-.821c-.914-.841-2.712-1.067-3.187-1.841-.526-.883-.387-4.346-2.582-4.228-.757.035-1.306.723-1.436 1.918-.6 5.482 2.87 10.358 4.146 14.62a43.927 43.927 0 011.191 9.216.505.505 0 00-.177.08c-.988.7-2.363 1.326-3 1.063a2.799 2.799 0 01-.287-.55c-.2-.453-.412-.924-.9-.859-.582.084-.943.83-1.153 1.068-.433.517-.99.917-1.618 1.163a15.322 15.322 0 01-4.378.512 1.26 1.26 0 01-.6-.05c-.039-.341.154-1.16-.516-1.391-.845-.284-1.6.635-2.3 1.052.707-1.194 1.4-1.885 1.886-2.929a50.507 50.507 0 003.671-14.492 33.576 33.576 0 00-1.886-15.523 13.481 13.481 0 00-6.091-6.967c-.82-.426-2.494-1.546-3.194-.77-.25.402-.341.881-.255 1.346.03.724.261 2.1-.267 2.522-.334.269-.922.122-1.8-.554-.746-.575-.951-.737-1.244-.661a.524.524 0 00-.347.3c-.137.323.006.683.223 1.157.247.54.892 2.56.327 2.816-.231.105-.765-.036-1.551-.721a13.194 13.194 0 01-2.943-4.491 5.77 5.77 0 01-.624-2.643.5.5 0 10-1 .006c0 .3.017.6.05.924a4.37 4.37 0 00-2.075 1.5l-.232.243a14.65 14.65 0 00-3.794 6.712.502.502 0 00.366.608zm19.407 46.139c-3.667 4.168-7.36 3.925-8.571-1.63a34.634 34.634 0 01-.532-7.573c.257.573.548 1.131.871 1.67a5.782 5.782 0 004.247 1.863c4.521 0 6.688-3.192 8.967-6.866a6.32 6.32 0 00.365-.614h.289c-.963 4.305-2.484 9.59-5.636 13.15zM36.4 86.952c.378-.4 1.079-1.15 1.512-1.2.134-.015-.048-.195.483 1.105a14.24 14.24 0 003.191 4.848c1.045.914 1.933 1.216 2.64.9 1.224-.553.8-2.313.434-3.431.627.41 1.727.959 2.616.248 1.169-.927.529-3.013.637-3.91a7.554 7.554 0 011.985.912 12.467 12.467 0 013.233 2.555 4.917 4.917 0 00-3.144-.17 5.835 5.835 0 00-1.726.754.63.63 0 00-.308.573l.54-.07.332.333a4.61 4.61 0 011.421-.624 3.838 3.838 0 013.326.584.5.5 0 00.622-.03c.54.792.988 1.643 1.333 2.538a32.476 32.476 0 011.86 14.7c-.339.274-2.782 3.865-6.418 4.9a9.21 9.21 0 01-4.614.007 16.061 16.061 0 01-9.011-6.084c-1.613-2.354-1.36-5.244-1.985-8.072-.216-.98-.428-1.89-.608-2.86.267.378.975.26.975-.456a4.547 4.547 0 012.788-2.323.5.5 0 10-.288-.957A5.724 5.724 0 0035.51 93.5a3.36 3.36 0 00-.765 1.388.522.522 0 00-.071.155c-.915-5.314.47-6.167.483-6.7.39-.485.805-.95 1.243-1.391z"/><path fill="#0e2238" d="M18.576 155.733a.499.499 0 00-.657.651c.05.123.148.22.27.272a9.2 9.2 0 001.754.542 59.29 59.29 0 014.325 1.885.497.497 0 00.668-.232.5.5 0 00-.232-.668 58.144 58.144 0 00-4.479-1.941 8.885 8.885 0 01-1.649-.509zm34.413 30.535a281.858 281.858 0 01-32.367-.227 62.813 62.813 0 01-8.925-1.02 21.27 21.27 0 01-2.758-.69c-.523-.22-.888-.357-1.2-.215a.495.495 0 00-.268.605.502.502 0 00.568.341A15.43 15.43 0 0011.5 186c2.993.562 6.022.909 9.065 1.037 10.81.699 21.652.775 32.471.228a.496.496 0 00.446-.333.498.498 0 00-.497-.667l.004.003zm15.679-29.816a.503.503 0 00.493-.591.502.502 0 00-.132-.256 12.4 12.4 0 01-2.393-3.541 32.682 32.682 0 01-2.413-10.449c-.01-.32.008-.64.055-.956a.5.5 0 10-.989-.146c-.3 2 .674 8.085 2.433 11.964a13.502 13.502 0 002.586 3.822.501.501 0 00.36.153zm-7.454-7.909a.5.5 0 00-.62.34c-.147.507.234 1.1.921 1.983a20.465 20.465 0 004.1 4.243.497.497 0 00.7-.1.5.5 0 00-.1-.7 19.425 19.425 0 01-3.926-4.067 3.717 3.717 0 01-.733-1.123.501.501 0 00-.342-.576zm129.638-53.72a.5.5 0 10.37-.928c-1.419-.566-4.608-2.676-5.39-4.525a.501.501 0 00-.921.39c.977 2.308 4.596 4.526 5.941 5.063zm-33.899-9.946a.499.499 0 00.678-.2 23.267 23.267 0 013.5-4.77c.3-.338.791-.906 1.139-.987a.5.5 0 00-.227-.974 3.758 3.758 0 00-1.665 1.3 23.724 23.724 0 00-3.621 4.949.493.493 0 00-.044.382.499.499 0 00.24.3zm.585-3.691a.504.504 0 00.142-.538.503.503 0 00-.442-.337.5.5 0 00-.362.125c-1.164 1.027-1.786 2.885-2.292 4.32a.498.498 0 00.306.639.499.499 0 00.638-.306c.435-1.236 1.026-3.036 2.01-3.903zm28.807 17.641a5.827 5.827 0 00-3.788 3.051.5.5 0 10.9.427 4.199 4.199 0 011.027-1.369c.211.713.34 1.447.386 2.189a.5.5 0 101-.068 11.694 11.694 0 00-.315-2.02 6.2 6.2 0 00-.227-.716c.394-.235.82-.411 1.264-.525a.497.497 0 00.36-.61.501.501 0 00-.609-.36h.002zm-22.937 23.809a6.805 6.805 0 013.363-1.077c.15-.012 1.026-.2 1.21-.241a29.3 29.3 0 0011.214-7.1.49.49 0 00.169-.358.502.502 0 00-.31-.481.52.52 0 00-.199-.037.515.515 0 00-.36.164 28.44 28.44 0 01-10.752 6.846c-.415.085-.948.2-1.054.213-.322.02-.641.065-.956.133a7.03 7.03 0 00-2.936 1.153c-.9.811-.772 1.939-.637 3.325.114.643.11 1.303-.014 1.945a.497.497 0 00.303.639.502.502 0 00.639-.303c.505-1.425-.51-4.039.32-4.821zm-5.586 14.732c-.42.017-.839.056-1.255.118a.493.493 0 00-.428.37.502.502 0 00.572.619 12.34 12.34 0 011.1-.109c.816.07 1.626.202 2.422.395a.5.5 0 00.125-.984 13.78 13.78 0 00-2.536-.409z"/><path fill="#0e2238" d="M166.109 132.746c.943.861 2.3-.738 11.916-8.336 1.091-.767 4.289-3.09 5.016-4.2 1.073-1.649-.814-2.46-1.369-3.611-.479-.994-.549-2.161-1.087-3.217a5.091 5.091 0 00-1.405-1.934 4.182 4.182 0 00-.988-.421.506.506 0 00-.438.081.496.496 0 00-.199.399c0 .508.471.437 1.074.777 1.512 1.412 1.423 3.256 2.142 4.75.25.47.573.898.955 1.268.652.7.775.9.478 1.361-.624.954-3.851 3.3-4.776 3.948-6.248 4.937-9.516 7.762-10.631 8.292.076-.777.217-1.547.423-2.3.459-2.87.3-5.95-2.337-7.161a.501.501 0 00-.417.909 3.417 3.417 0 011.905 3.068c-.83.56-1.694 1.067-2.587 1.518-.219.12-.428.231-.428.534a.516.516 0 00.295.455.508.508 0 00.537-.07c.651-.363 1.473-.815 2.214-1.272a11.085 11.085 0 01-.29 2.4c-.059.24 0 .117-.189.192-.1.039-1.634.647-1.958.8l.419.909c.194-.095 1.357-.558 1.457-.6-.106.765-.019 1.209.268 1.461zM50.413 94.328c.089.749.354 1.655 1.1 1.589.557-.054.869-.664.793-1.557-.178-2.093-1.947-1.454-1.915-.454-.007.14 0 .282.022.422zm-12.589 2.555c-.009.142-.003.286.017.428.153 1.293.626 1.587 1.021 1.587.72 0 .935-.8.878-1.535-.162-2.076-1.94-1.513-1.916-.48zm5.376 6.825c1.053.5 2.664-.515 3.363-.666a.502.502 0 00.407-.397.504.504 0 00-.228-.521.49.49 0 00-.388-.059c-.689.147-2.2.989-2.724.739-.034-.015-.123-.058-.184-.259-.327-1.079.353-2.554.727-3.658.592-1.682.789-1.94.617-2.25-.225-.4-.914-.4-.967.3 0 0-.381 1.012-.595 1.619-.433 1.277-1.167 2.862-.739 4.275a1.362 1.362 0 00.711.877zm1.606 1.337c-.691.273-1.007.4-.987.8a.51.51 0 00.146.328c1.645 1.886 5.439 2.436 6.593.213a2.473 2.473 0 00.321-1.874c-.544-1.476-3.478-.629-4.922 0-.38.167-.757.339-1.151.533zm4.505-.349c.207-.011.413.019.608.089a1.5 1.5 0 01-.226 1.1c-.743 1.425-3.163 1.08-4.493.076a10.821 10.821 0 014.111-1.261v-.004zm.624 3.767c-.46.276-.98.432-1.516.452-.1 0-.141-.066-.327-.029a.517.517 0 00-.414.547c.031.32.28.489.753.482a4.175 4.175 0 002.014-.593.51.51 0 00.246-.307.498.498 0 00-.57-.626.503.503 0 00-.186.074zm-18.366 42.618c1.822.664 7.654 2 9.085 2.292 4.7 1.028 8.809 1.7 13.166 2.316a.507.507 0 00.378-.088.5.5 0 00-.232-.901 175.878 175.878 0 01-19.932-3.922c-.829-.22-1.392-.367-1.927-.564-.468-.173-.839-.311-1.05.1a.552.552 0 00.512.767zm9.746-.789c-.144-.044-.46-.268-.776-.059a.523.523 0 00.32.954c.694.29 11.13 1.41 11.5 1.41a.508.508 0 00.36-.13.494.494 0 00.164-.346.499.499 0 00-.476-.524c-2.864-.275-8.234-.848-11.092-1.305zM191.2 187.031a.497.497 0 00-.7.072c-1.6 1.96-4.612 1.43-6.818 1.042-4.753-.835-12.956-2.6-17.221-3.362-2.415-.429-6.713-.259-7.481-2.065a30.21 30.21 0 01-.931-3.549c-.455-1.4-1.046-2.706-1.636-4.269a1.923 1.923 0 01-.2-1.144c.427-.5 2.155-.617 3.084-.682 2.695-.186 2.654-.556 9.57-.946 4.1-.232 4.348-.366 5.637-.812.429-.16.868-.292 1.314-.394 3.607-.714 6.382-.325 8.73 1.23a.504.504 0 00.693-.141c.073-.111.099-.246.073-.376a.496.496 0 00-.214-.317 10.36 10.36 0 00-5.18-1.715c1.622-.88 3.34-1.57 5.119-2.059a.522.522 0 00.175-.087.519.519 0 00.19-.333.508.508 0 00-.248-.497.488.488 0 00-.38-.048 24.61 24.61 0 00-4.178 1.559c-.4.189-2.165 1.024-2.3 1.458-.9.051-1.795.166-2.678.346-.489.111-.971.254-1.442.428-1.318.456-1.49.54-5.367.759-1.879.106-3.768.182-5.655.443-3.561.494-3.088.447-3.928.5-1.683.117-3.128.274-3.786 1.042a46.059 46.059 0 00-5.32-.034 43.904 43.904 0 00-9.41 1.517.486.486 0 00-.225-.072c-16.263-1.127-16.564-1.721-17.149-1.792a.499.499 0 00-.2.976c2.537.8 12.88 1.5 15.52 1.691-3.425 1.7-6.056 5.312-7.328 8.828l-.032.106c-.25.787-.713 2.252.078 2.96a.841.841 0 00.664.213 8.344 8.344 0 00-.466 2.725 1.821 1.821 0 00.65 1.52c.86.611 1.778-.287 2.442-1.087-.348 1.107-.682 2.709.448 3 .716.183 1.31-.391 1.7-.837-.069.977.456 1.457 1.122 1.457 1.643 0 3.051-3.332 5.3-5.189 1.442-1.192 3.849-1.138 5.814-1.723 2.679-.8 6.576-2.9 9.145-3.736a.519.519 0 00.135-.068c1.376 1.973 5.54 1.759 7.96 2.19 1.641.295 14.461 2.877 17.224 3.363 2.783.488 5.906.888 7.767-1.4a.497.497 0 00-.081-.691zm-37.673-2.542c-4.3 1.928-4.8 2.014-6.713 2.349-3.2.561-4.173.9-6.536 4.033-.412.548-1.847 2.51-2.437 2.4-.03-.049-.159-.352.226-1.429a17.707 17.707 0 012.436-4.049c.568-.647.969-1.141.942-1.595a.603.603 0 00-.406-.521c-.534-.128-.729.5-1.006.884-1.3 1.8-4.024 6.2-4.662 6.16-.462-.577 1.161-4.582 2.93-6.719.6-.728 1.025-1.282 1-1.78a.618.618 0 00-.4-.523c-.526-.144-.784.475-1.1.884-1.374 1.746-2.685 4-4.069 5.621-.738.844-.931.755-.911.772a.851.851 0 01-.27-.717 5.112 5.112 0 01.069-1.019 9.74 9.74 0 011.917-4.4c.654-.96.8-1.158 1.758-2.41.164-.207.761-.533.595-1.031a.622.622 0 00-.5-.372c-.454-.022-.84.375-1.878 1.979-.29.45-.761 1.065-1.322 2.031a6.648 6.648 0 01-1.216 1.459c-.056-.1-.229-.406.286-1.937a16.067 16.067 0 014.2-6.433c3.242-3.046 8.174-3.52 12.931-3.964a32.111 32.111 0 015.784-.045c.016.414.121.82.308 1.191.508 1.369 1.151 2.8 1.584 4.119a30.15 30.15 0 00.837 3.264c-.767.17-3.956 1.609-4.376 1.798h-.001zm38.212-50.662a.496.496 0 00-.691-.153 43.225 43.225 0 00-8.745 7.479c-.866.955-1.75 1.915-2.549 2.941a6.86 6.86 0 00-1.1 1.786.5.5 0 00.963.189 27.413 27.413 0 013.426-4.244 40.079 40.079 0 018.542-7.307.496.496 0 00.154-.691zm-8.282-3.191c1.192 1.526 1.884 2.761 2.921 4.333a.511.511 0 00.317.221.503.503 0 00.595-.59.5.5 0 00-.077-.181c-1.064-1.618-1.92-3.023-2.944-4.367a.512.512 0 00-.695-.157.496.496 0 00-.228.485c.012.094.05.183.111.256z"/><path fill="#0e2238" d="M165.683 187.149c-4.822.49-9.667.714-14.514.671a7.916 7.916 0 00-1.278.073.492.492 0 00-.342.189.494.494 0 00-.035.565.508.508 0 00.315.23.513.513 0 00.199.006c.658-.091 4.426-.127 5.087-.131 3.571.013 7.14-.19 10.686-.61a.508.508 0 00.425-.361.494.494 0 00-.046-.381.504.504 0 00-.302-.237.513.513 0 00-.195-.014zm-38.363-2.986a66.207 66.207 0 01-17.618-.942 4.68 4.68 0 01-.9-.244.503.503 0 00-.543.118.499.499 0 00.177.813c.354.136.72.237 1.094.3a67.412 67.412 0 0017.874.954.503.503 0 00-.082-1l-.002.001zm-15.131-62.054a26.878 26.878 0 01-8.127 1.753c-.323-.007-.769-.01-.8.472a.547.547 0 00.212.414.556.556 0 00.452.112 27.644 27.644 0 008.613-1.815.512.512 0 00.323-.453.5.5 0 00-.677-.483h.004zm59.528 62.482c.855 0 .319-1.009.219-1.459-.576-2.595-.743-5.482-2.031-8.9a2.47 2.47 0 00-.469-.935.522.522 0 00-1.015.073.67.67 0 00.245.568c.025.026.054.056.046.031 1.43 3.086 1.8 7.939 2.335 9.462.232.661.123 1.16.67 1.16zm6.057-90.783c-.336-.141-.888.058-1.089.79-.168.974.011 1.535.546 1.672 1.092.244 1.508-2.053.543-2.462zm-15.023.41c1.145.279 1.584-2.4.343-2.5a.965.965 0 00-.882.832c-.166.969.008 1.538.539 1.668zm7.4 8.126a1.883 1.883 0 01-.351-.241 1.695 1.695 0 00-1.843-.388 2.102 2.102 0 01-.472.081 1.268 1.268 0 01-1.3-1.251c.009-1 1.412-1.02 2.039-2.143a8.054 8.054 0 011.214-1.772.502.502 0 00.268-.754.518.518 0 00-.416-.23c-.382-.005-.785.49-.859.59-1.357 1.765-.734 1.655-1.9 2.38a2.206 2.206 0 00-1.349 1.92 2.267 2.267 0 002.262 2.259c.484.028 1-.236 1.3-.181.237.042.574.46 1.021.653a2.267 2.267 0 002.945-1.225l-.915-.4a1.271 1.271 0 01-1.644.702zm1.849 2.709a10.885 10.885 0 01-5.864-.1.754.754 0 00-.26-.087.525.525 0 00-.551.4c-.091.445.339.585.562.658 2.073.617 4.275.652 6.366.1a.504.504 0 00.358-.611.502.502 0 00-.611-.357v-.003zm-1.792 2.181a7.3 7.3 0 01-2.025-.186 3.584 3.584 0 01-.3-.068.495.495 0 00-.569-.04.503.503 0 00-.236.519c.074.405.5.489.964.58.727.165 1.473.23 2.218.194a.493.493 0 00.346-.164.499.499 0 00-.398-.835zM105.206 89.15a.502.502 0 00-.609.358 11.5 11.5 0 001.2 7.426.508.508 0 00.3.238.499.499 0 00.575-.723 10.532 10.532 0 01-1.105-6.69.513.513 0 00-.054-.38.503.503 0 00-.307-.23zM52.622 77.8a.5.5 0 00.092-.7.23.23 0 01-.039-.2c.053-.32.55-1.17 2.249-2.253 2.112-1.346 5.184-1.967 7.071-.657a.546.546 0 00.379.3c1.522 1.449.678 4.453.874 6.565.147 1.682 0 2.48-.153 9.473a.5.5 0 101 .021c.056-2.627.113-4.38.154-5.637.16-4.944-.133-3.022.011-5.9.093-1.858.2-3.963-1.237-5.284.244-.307.52-.587.822-.837 4.4-3.9 4.729-5.605 6.565-8.328a12.268 12.268 0 001.918-3.127 1.38 1.38 0 00-.472-1.689 2.93 2.93 0 00-3.039.375c-1.175.982-1.56 2.637-2.766 3.224-1.791.871-3.3 1.327-4.446 2.631a.5.5 0 00.752.659c.975-1.111 2.293-1.5 4.127-2.389 1.634-.795 1.858-2.423 2.973-3.357a2.043 2.043 0 011.848-.309c.054.035.2.129.066.568A12.318 12.318 0 0169.58 63.8c-1.87 2.777-2.136 4.376-6.4 8.137-.36.297-.685.632-.971 1-4.418-2.535-11.94 2.616-10.291 4.766a.502.502 0 00.704.097z"/><path fill="#0e2238" d="M111.714 158.128c2.344-1.713 3.133-5.937.113-10.7a117.818 117.818 0 0015.141-9.682c-1.2 9.686-1.377 10.545-3.082 12.311-1.579 1.634-1.742 2.421-1.4 4.29a2.82 2.82 0 01-.063 1.911c-1.309 2.437-2.976 9.176-1.667 12.433a.498.498 0 00.65.277.497.497 0 00.278-.65c-1.158-2.88.359-9.239 1.619-11.587.36-.808.419-1.717.167-2.564a3.65 3.65 0 01-.046-1.75c.353-1.134 1.546-1.8 2.253-2.958a13.764 13.764 0 001.406-5.074c.344-2.259 1.71-12.784 1.779-14.335.076-1.7-.945-.818-1.012.169-.09 1.317-.435 3.842-.718 6.193a125.71 125.71 0 01-16.222 10.372l-3.467 1.872c-3.593 1.955-5.762 3.135-9.567.828a6.507 6.507 0 01-1.961-1.566c-1.238-1.73-.493-4.405-.421-6.593.085-2.587-1.211-5.2-.628-7.535.821-3.266 3.933-5.728 4.963-9.321.569-1.979 2.317-9.337 2.926-11.436.873-.46 1.783-.844 2.721-1.149a.516.516 0 00.208-.075 34.351 34.351 0 019.843-2.022c.475-.049.951.084 1.333.371.33.345-.165 1.59-.4 2.188a76.877 76.877 0 00-2.692 9.4c-.548 2.469 1.19 3.93 1.628 5.926.552 2.529-1.265 7.386-1.949 9.215a.504.504 0 00.003.391.49.49 0 00.283.27.51.51 0 00.391-.018.506.506 0 00.259-.293 62.22 62.22 0 00.948-2.693c.146.842.225 1.695.237 2.55a.501.501 0 00.5.476h.025a.493.493 0 00.346-.164.499.499 0 00.129-.36 9.485 9.485 0 00-.76-4.086c.596-1.768.789-3.648.565-5.5-.473-2.164-2.087-3.438-1.628-5.5a81.907 81.907 0 012.449-8.727c.294-.927 1.348-2.766.348-3.809a.554.554 0 00.049-.128c.88-3.764 4.632-4.878 5.859-6.54a24.382 24.382 0 003.023-6.458c.354.309.725.598 1.111.866-.155.218-.842 1.467-1.606 2.795a.503.503 0 00.183.683.5.5 0 00.684-.183c1.76-3.066 1.535-2.773 1.646-2.711.778.43 1.6.773 2.452 1.025-.073.2-.872 2.89-.922 3.061a.499.499 0 00.72.578.498.498 0 00.24-.298l.935-3.08c1.053.22 2.125.334 3.2.339V102a.511.511 0 00.152.351.51.51 0 00.355.144.503.503 0 00.493-.5v-2.64a22.036 22.036 0 003.83-.511c.142.483.821 2.809 1.08 3.711a.486.486 0 00.088.176.498.498 0 00.873-.452c-.252-.877-.9-3.1-1.068-3.67a31.15 31.15 0 002.74-.857l2.337 3.635a.498.498 0 00.692.146.5.5 0 00.146-.692l-2.219-3.447a44.374 44.374 0 002.648-1.152c.117.066.313.415 2.558 2.435a.501.501 0 00.669-.744c-1.2-1.08-1.654-1.541-2.267-2.155.44-.218.856-.431 1.247-.635a.5.5 0 10-.462-.886c-9.048 4.714-13.035 3.972-13.544 4.11a11.75 11.75 0 01-8.323-2.814 1.302 1.302 0 00-.278-.32c.257-.728.574-1.434.946-2.11.61 1.405.956 1.6 1.075 1.673.476.285.918-.152 1.279-.562a18.075 18.075 0 014.4-3.25c.688 1.73 1.357 5.95 1.82 6.4a.96.96 0 001.133-.007c.4-.176 5.223-2.605 6.765-3.535a5.547 5.547 0 001.952-1.333c.3-.46.062-.82-.4-1.114a5.167 5.167 0 01-1.374-1.166c-.642-.9-.414-2.425-1.354-3.46a2.467 2.467 0 00-1.506-.788c.15-.194.276-.405.373-.63a13.554 13.554 0 004.637-4.556.47.47 0 00.056.015 4.732 4.732 0 003.1-.437 3.44 3.44 0 002.408.059c-.147.803-.207 1.62-.179 2.436a10.9 10.9 0 01-.118 1.993c-.512 2.3-2.041 2.9-1.893 4.09.137 1.007 1.226 1.008 2.021 1.008.353-.022.708.012 1.051.1-.515.515-2.678 1.206-2.354 2.39.344 1.23 2.419 1.224 3.648.988a5.85 5.85 0 003.1 4.937c-.07 3.206-1.378 6.282 1.126 9.573-4.2 1.167-5.015 5.828-5.61 10.134l-1.232 7.788c-.176.8-.286 1.486.152 1.792.136.088.3.123.461.1.49-.1.844-.833 1.329-1.59.039.207.081.408.123.6a10.642 10.642 0 001.614 4.325.5.5 0 10.837-.546 9.705 9.705 0 01-1.467-3.955c-.04-.179-.239-1.154-.239-1.339a.495.495 0 00-.089-.284 22.253 22.253 0 011.639-2.178 21.371 21.371 0 00.246 5.573.503.503 0 00.587.394.497.497 0 00.395-.587 22.504 22.504 0 01-.218-5.667c.006-.4.026-.435.01-.658a2.686 2.686 0 011.381-.485 2.455 2.455 0 011.468.648 18.226 18.226 0 01-.6 5.05.493.493 0 00.059.378.504.504 0 00.504.234.499.499 0 00.409-.376c.454-1.865.941-4.724.413-6.573a18.579 18.579 0 01-.765-4.22.498.498 0 00.601-.085.502.502 0 00.115-.183c.582-1.643.926-3.36 1.02-5.1 2.185 1.976 4.473 3.6 7.42 3.6 4.494 0 7.586-2.77 9.805-5.217a23.97 23.97 0 012.955-3.283c.222-.16 1.04.442 1.751.442a4.52 4.52 0 003.724-2.462c.474-.909.824-1.877 1.042-2.878a7.753 7.753 0 00-.093-4.667c.399.182.816.32 1.244.412a.5.5 0 00.131-.983 7.06 7.06 0 01-1.959-.872 15.59 15.59 0 01-4.384-4.422c-2.984-4.456-5.712-12.062-13.6-12.941a5.017 5.017 0 00-3.072.686 20.677 20.677 0 00-6.941 7.144c-.468.787-.913 1.706-1.4 2.6a5.811 5.811 0 00-3.861 4.08 4.59 4.59 0 01-2.651-.023 1.408 1.408 0 01-.16-.113c.163-.34 1.484-.983 1.773-1.206.207-.151.838-.613.594-1.275-.311-.794-1.268-.8-2.036-.8-.3 0-.93 0-1.03-.137-.024-.192.28-.6.443-.814 2.182-2.9 1.355-4.411 1.64-6.774a8.168 8.168 0 012.539-4.963c3-2.9 7.019-2.407 10.87-2.831a.505.505 0 00.43-.357.516.516 0 00-.042-.382.499.499 0 00-.497-.255c-3.044.336-6.044.105-8.813 1.335a9.48 9.48 0 00-5.017 5.37 2.756 2.756 0 01-1.692.462 3.025 3.025 0 00.593-3.775 1.976 1.976 0 00-1.793-.9 25.43 25.43 0 001.025-3 4.505 4.505 0 003.053 2.345.501.501 0 10.208-.978 3.5 3.5 0 01-2.747-3.1c.003-.231.02-.462.051-.691.192-1.885.274-2.443-1.585-2.207a2.736 2.736 0 01-.457.039 3.428 3.428 0 01-2.434-1.015 4.091 4.091 0 01-.9-2.385c.011-.806-.03-1.231-.293-1.47-.632-.57-1.837.647-2.368.916a8.307 8.307 0 01-4.142 1 4.009 4.009 0 01-2.88-1.392 4.61 4.61 0 01-.258-.47c-.487-.937-.766-1.42-1.261-1.385-.975.077-2.007 1.975-2.472 2.432a9.048 9.048 0 01-5.864 2.81 5.32 5.32 0 01-.558-.158.545.545 0 00-.836.382c-.019.666 1.3.77 1.331.773a6.811 6.811 0 002.565-.464 50.75 50.75 0 00-.492 3.286 1.76 1.76 0 00-2.469-.311 3.886 3.886 0 00-1.093 2.84 4.385 4.385 0 003.1 3.69c-.06 2.416.701 4.78 2.159 6.707a5 5 0 01-.2 1.078 17.778 17.778 0 01-.265-.346.507.507 0 00-.364-.29.499.499 0 00-.445.135 20.444 20.444 0 00-2.877 1.97 2.54 2.54 0 00-.485.145c-.39.116-.781.233-1.169.362.182-.967 1.44-7.358 1.474-7.52.245-1.15.616-2.89-.325-3.471a1.937 1.937 0 00-2.7.348c-1.46 2.259-1.633 5.92-2.728 9.686-.155.581-.355 1.15-.6 1.7-.45-2.543.224-5.88.182-11.031-.007-1.02-.02-2.727-1.517-3.111a1.513 1.513 0 00-1.276.176c-.767.52-.915 1.712-1.025 2.58-.443 3.523-.4 6.1-.686 9.386-.023.278-.02.924-.11 1.77a53.148 53.148 0 00-1.434-7.587c-.53-1.526-1.28-2.175-2.226-1.935a1.665 1.665 0 00-1.221 1.515c-1.914-2.86-3.734-5.085-7.7-6.11a.5.5 0 00-.25.968c4.078 1.054 5.65 3.452 7.849 6.8a.47.47 0 00.061.075c.034 1.197.16 2.39.377 3.568a21.2 21.2 0 01.364 3.5c.028.366.033.733.015 1.1-.607-1.721-1.307-5.174-2.639-5.52a.976.976 0 00-.95.29c-1.571 1.538-.2 5.514.432 7.583.8 2.606-.369 4.988-.2 7.742-.58.655-1.558 1.062-2.286 1.774-2.278 2.2-3.863 4.359-7.149 4.252a7.326 7.326 0 01-4.644-2.363.507.507 0 00.02-.093 11.723 11.723 0 005.553-2.948 3.573 3.573 0 002.835-.272 2.442 2.442 0 01-1.206 1.623.494.494 0 00-.196.68.516.516 0 00.299.239.515.515 0 00.381-.043 3.4 3.4 0 001.761-3.326 9.056 9.056 0 00-.774-2.661c-1.091-2.754-1.242-3.324.893-7.517 1-1.97 2.042-4.007 1.845-6.47a7.58 7.58 0 00-3.2-5.7 5.1 5.1 0 00-2.765-1.14c-.111 0-.084.034-.113-.056a1.86 1.86 0 00-.215-.468 3.983 3.983 0 00-1.458-1.244c-4.137-2.12-6.907 2.224-9.521 3.966a6.431 6.431 0 01-1.679.736c-.91.233-1.785.58-2.607 1.033-2.79 1.742-4.89 6-5.431 9.25a.5.5 0 00.986.165c.045-.268.1-.534.16-.8.356.464.812.841 1.335 1.104a13.541 13.541 0 00.471 4.733 7.125 7.125 0 01-.886-1.335c-.826-1.46-1.1-1.71-2.094-1.928a3.125 3.125 0 01-1.964-1.372c-.828-1.286-.209-2.663-.2-4.27.015-2.766-1.184-4.941.642-7.12 2.41-2.893 6.61-2.608 9.935-4.417 1.923-1.045 3.57-2.626 5.551-3.391a5.906 5.906 0 017.218 2.677.501.501 0 10.868-.5 6.978 6.978 0 00-6.792-3.52c.862-4.187 2.376-7 2.739-11.78.074-.972.149-1.976.287-3.026-.006-.37.112-.73.333-1.025a.875.875 0 01.4-.194c.41-.06.825-.077 1.238-.05a19.376 19.376 0 014.641.267c.692.17.792 1.125.854 2.26.114 1.568.133 3.141.059 4.71-.142 5.284.212 6.374 1.459 12.065a1.2 1.2 0 00.066.2.52.52 0 00.326.5.515.515 0 00.58-.14.676.676 0 000-.773 61.837 61.837 0 01-1.346-6.931c-.333-3.03.086-6.173-.127-9.282-.086-1.263-.088-2.656-1.041-3.313a.5.5 0 00.043-.4c.14-1.203.365-2.394.674-3.564a9.64 9.64 0 011.673-3.95c1.516-1.837 3.765-2.774 5.339-4.78 1.161-1.48.6-3.111-1.3-2.738a7.655 7.655 0 00-2.81 1.666 17.575 17.575 0 01-3.137 1.225.5.5 0 00.189.963c.208 0-.029-.006 1.3-.418a8.083 8.083 0 002.211-.942 7.452 7.452 0 012.441-1.512c.42-.082.629-.015.678.067.086.14.031.577-.357 1.072-1.384 1.764-3.788 2.9-5.342 4.785a10.608 10.608 0 00-1.86 4.354 35.56 35.56 0 00-.6 2.843c-.086.322-.12.655-.1.988a21.225 21.225 0 00-4.5-.218 6.668 6.668 0 00-1.419.06 1.9 1.9 0 00-.942.47 2.583 2.583 0 00-.629 1.674c-.56 4.113.12 3.682-1.841 10.28a44.721 44.721 0 00-1.229 4.79 14.355 14.355 0 00-4.085 2.23 14.447 14.447 0 01-6.095 2.8c-2.286.622-4.65 1.265-6.323 3.272-1.559 1.86-1.307 3.74-1.064 5.556a10.26 10.26 0 01.077 3.5 4.83 4.83 0 00.474 3.516 4.22 4.22 0 001.993 1.637c.426.177 1.03.2 1.227.4.809.83 1.254 2.669 2.706 3.41-.216.567-1.308 2.623-1.358 2.724a.44.44 0 00.254.594.576.576 0 00.706-.266c.249-.441.378-.711 1.094-2.161 1.833 3.954 5.935 7.157 10.327 7.047-.827.9-.8.969-1.715 1.954a11.229 11.229 0 00-2.6 3.892c-.008.021-.013.042-.019.063a10.367 10.367 0 01-6.85-3.529 7.658 7.658 0 01-1.713-2.225.502.502 0 00-.673-.218.5.5 0 00-.218.673 8.55 8.55 0 001.911 2.489 11.387 11.387 0 009.338 3.846 50.968 50.968 0 01-1.8 6.629c-.628 1.682-1.425 3.559-2.94 4.555-1.6 1.089-3.6.187-4.779-1.341-1.767-2.252-3.225-6.521-3.546-10.381a.496.496 0 00-.176-.342.51.51 0 00-.366-.117.515.515 0 00-.34.176.496.496 0 00-.118.366c.335 4.036 1.879 8.524 3.752 10.911a6.17 6.17 0 001.875 1.617 5.564 5.564 0 00-.418 1.875c-.052 1.283.336 3.512 2.164 3.739 2.51.088 3.373-3.263 2.053-5.412 1.995-.968 3.04-3.339 3.776-5.307a51.842 51.842 0 001.894-7.054 19.852 19.852 0 002-.307.502.502 0 00.176-.907.494.494 0 00-.376-.073c-.525.109-1.057.195-1.595.259.176-.894.333-1.765.48-2.6a8.855 8.855 0 012.14 2.458c.465.994.993 1.957 1.582 2.883a26.44 26.44 0 005.714 4.608.504.504 0 00.59-.022c-2.461 9.729-1.945 9.244-4.592 13.092-3.044 4.427-3.065 5.754-2.33 9.5a11.51 11.51 0 01.252 4.684 14.592 14.592 0 00-.073 3.553c-.41.083-.825.133-1.243.149-.924.054-1.84.211-2.728.469a20.862 20.862 0 00-7.616 2.755.5.5 0 10.554.833c2.726-1.812 5.485-2.185 8.735-2.936.648-.151 1.761-.1 2.531-.3.144.406.346.79.6 1.139a7.431 7.431 0 002.259 1.825c4.744 2.877 7.216.97 13.562-2.453.007.012.013.025.021.037 3.213 5.051 1.645 8.933-.518 9.76-5.166 1.926-13-2.038-22.067-.431-1.481.263-3.414 1.673-4.884 1.28-1.982-.534-4.1-2.333-4.075-4.213a.5.5 0 10-1-.014 5.429 5.429 0 002.8 4.3.501.501 0 00-.144.126 24.93 24.93 0 00-2.789 3.391c-1.091 2.688-.308 3.913-1.2 7.072-.079.174-.14.355-.184.541-.019-.012-.126-.1-.235-.532a14.688 14.688 0 01-.286-3.924c0-.438 0-.784-.335-.924a.502.502 0 00-.422.018c-.514.267-.454 1.229-.529 1.734a46.15 46.15 0 01-.776 4.75 3.167 3.167 0 01-.264-.912c-.5-2.849.083-4.9.156-6.575a.509.509 0 00-.547-.523.503.503 0 00-.263.099c-.176.126-.316.225-.564 2.046a44.157 44.157 0 01-.786 5.143s-.214-.038-.525-.919a10.916 10.916 0 01-.255-4.863 10.95 10.95 0 00.206-1.936.5.5 0 00-.464-.507c-.869-.061-.881 1.348-2 5.672a10.664 10.664 0 01.442-5.5.502.502 0 00-.487-.688.498.498 0 00-.451.343 11.577 11.577 0 00-.565 5.523c.11.831.349 1.946 1.175 1.779.592-.135.774-.9.89-1.35.283-1.1-.064-.336.557 1.831.163.465.607 1.712 1.577 1.611a1.184 1.184 0 00.933-.942c.168.85.461 1.827 1.326 1.768.818-.077 1-1.168 1.092-1.753 0 0 .116-.65.159-.919.146.669.444 1.4 1.142 1.439.8.052 1.1-.824 1.244-1.249.919-3.246.181-4.533 1.157-6.943a29.106 29.106 0 012.665-3.185.502.502 0 00.1-.322c1.907.929 2.9.645 4.957-.212a8.58 8.58 0 011.624-.574 31.013 31.013 0 018.069-.2c4.256.363 11.99 2.398 15.091.079zm43.648-65.042A6.392 6.392 0 00156.945 92c.278 1.706.439 3.43.481 5.158a4.598 4.598 0 01-2.064-4.072zm3.082 4.69a48.936 48.936 0 00-.408-5.327 6.263 6.263 0 01-.148-1.33.499.499 0 00.017-.227 15.44 15.44 0 001.123-1.768c4.154-1.292 8.5 1.386 8.562 4.675 0 4.009-5.29 5.862-9.146 3.977zm1.529 17.47a22 22 0 01.395-3.933.523.523 0 00-.163-.679.52.52 0 00-.237-.087c-.438-.027-.533.38-.576.556a13.583 13.583 0 00-.31 2.2 18.698 18.698 0 00.6 7.313 3.296 3.296 0 00-3.506.7 20.486 20.486 0 00-3.4 4.4c.191-1.335 1.182-7.5 1.182-7.5.553-3.988 1.267-8.58 5.225-9.389.269-.056-.174-.221 1.294 1.142.386.358.272.207.272.406a17.317 17.317 0 01-.776 4.871zm27.74-15.918a11.66 11.66 0 01-1.214 4.4 3.516 3.516 0 01-2.877 1.942c-.489 0-1.462-.863-2.308-.254a23.403 23.403 0 00-3.136 3.454c-2.536 2.794-5.332 4.857-9.058 4.857-3.233 0-5.6-2.291-7.97-4.495a8.933 8.933 0 01-2.92-4.188c-.465-1.911.079-4.089.2-6.181 4.47 1.884 9.937-.463 10.153-4.752a2.146 2.146 0 012.586.215c-.818 3.59 2.5 6.708 6.432 7.092 3.1.347 6.749-1.165 7.571-4.53.433-.35 1.263-.908 1.769-.521.197.153.345.36.429.595.295.751.413 1.561.343 2.366zm-4.857-6.671a4.33 4.33 0 011.4 3.7 7.115 7.115 0 00-1.438 1.774.501.501 0 00.161.667 6.801 6.801 0 01-5.276 1.628c-3.683-.359-5.867-3.018-5.632-5.426.192-2.15 2.478-4.257 5.809-4.257a7.138 7.138 0 014.976 1.914zm3.271 2.628a2.97 2.97 0 00-.838.319 4.986 4.986 0 00-.209-1.218c.336.313.685.613 1.047.899zm-25.4-9.3c.227-.047.458-.073.69-.076a7.948 7.948 0 013.69.533.5.5 0 00.375-.927 8.826 8.826 0 00-4.06-.607 19.567 19.567 0 015.764-5.5 4.02 4.02 0 012.46-.553 10.8 10.8 0 015.324 2.124 18.511 18.511 0 014.564 5.43 9.159 9.159 0 00-4.662.046c-.322.094-.65.207-.719.546a.502.502 0 00.244.557.5.5 0 00.601-.09c.073-.03.156-.054.156-.054a7.689 7.689 0 015.18.342c.638 1.092 1.257 2.167 1.908 3.172-3.777-2.287-9.1-1.121-10.734 2.4a3.163 3.163 0 00-2.994-.3c-.634-3.61-4.928-5.824-8.857-5.086.423-.808.597-1.17 1.071-1.96l-.001.003zm-3.3 3.848a6.839 6.839 0 01-1.611 1.813c.374-.734.93-1.36 1.615-1.816l-.004.003zM84.015 125.16a1.407 1.407 0 01-1.327.911c-1.105-.138-1.272-2-1.244-2.7a4.586 4.586 0 01.332-1.509 3.874 3.874 0 001.9.116 3.282 3.282 0 01.339 3.182zm46.559-39.988a.495.495 0 00.069-.165c.068-.3.154-.626.227-.956a9.357 9.357 0 009.474 2.033c-.5.841-.937 1.718-1.309 2.623a26.722 26.722 0 01-4.31 1.686c-.049-.122-2.137-2.685-4.151-5.221zm13.083 5.662c.42.522.928.967 1.5 1.316-.41.325-.861.594-1.342.8-2.083 1.247-6.394 3.326-6.781 3.543-.327-1.08-.9-3.97-1.367-5.382a18.827 18.827 0 005.566-2.551.5.5 0 00-.562-.828l-.13.086c.142-.273.295-.56.462-.864 2.332-.055 1.539 2.324 2.654 3.88zm6.911-14.482c1.092 1.94-1.222 3.773-3.413 3.522a39.75 39.75 0 001.871-3.574.966.966 0 01.784-.361.963.963 0 01.758.413zm-24.812-3.661a2.908 2.908 0 01.724-2.028.613.613 0 01.581-.13c.514.125.747.719 1.1 1.008-.1.94-.262 2.67-.294 3.81a3.336 3.336 0 01-2.111-2.66zm3.1 3.279c.099-3.1.434-6.188 1-9.237a.5.5 0 00-.024-.268 11.567 11.567 0 003.041-2.187 26.411 26.411 0 011.711-2.07c.233.357.651 1.249.816 1.433a5.024 5.024 0 003.608 1.742 9.213 9.213 0 004.639-1.114c.37-.19.817-.576 1.194-.8 0 .153 0 .689.006.723a5.27 5.27 0 001.144 2.789 4.424 4.424 0 003.153 1.357c.259.017.823-.082 1.17-.106 0 .3-.063.937-.091 1.185-.354.6-.116 3.56-4.238 10.452a13.136 13.136 0 01-4.608 4.666A8.352 8.352 0 01129.65 80.6a11.749 11.749 0 01-.789-4.63h-.005zm.1 8.767c.118.153 4.38 5.488 4.544 5.692-.823.46-1.605.99-2.337 1.586a21.194 21.194 0 00-1.92 1.736c-.334-.587-.62-1.2-.855-1.833.666-1.454 1.426-3.668.014-4.4a2.2 2.2 0 00-1.538-.106c.021-.23-.179-.45-.238-1.111a20.745 20.745 0 012.332-1.564h-.002zm-3.275 2.026c.048.268.121.53.219.785.036.094.1.175.183.232-1.359 1-1.83 3.11-2.757 4.42.07-.861.35-3.093.668-4.893.613-.196.006-.035 1.689-.544h-.002zm-17.844-2.724c.621.209 1.551 3.709 1.774 4.329.265.936.534 1.535 1.059 1.627a.76.76 0 00.77-.367c.456-.64.263-1.843.252-2.584-.024-2.043-.719-4.53-.719-6.6 0-.612-.153-1.958.362-2.248.562-.32.956.595 1.17 1.209 1.6 5.674 1.079 9.734 2.528 9.27.98-.314.882-2.643.966-3.666.348-4 .37-10.61 1.277-11.225a.518.518 0 01.464-.035c.7.179.759 1.042.768 2.215.022 2.782-.2 5.417-.348 8.245-.029.643-.119 3.864.936 4.037.8.134 1.272-.96 1.792-2.75 1.09-3.755 1.3-7.4 2.607-9.421.265-.41.917-.306 1.324-.045.13.08.288.5-.12 2.417-.21.99-.042.449-.9 4.632a74.75 74.75 0 00-1.513 9.733.501.501 0 00.106.329c-1.286.883-3.248 1.013-4.754 1.984a.5.5 0 10.542.84 9.152 9.152 0 012.237-.917c2.715-.852 3.454-1.4 4.72-4.1.35-.747 1-2.162 1.764-2.495.438-.191 1.162-.237 1.264.256.228 1.1-.762 2.984-1.3 4.047-1.577 3.12-2.185 6.664-4.223 9.4-1.04 1.409-4.969 2.72-6 6.772a5.987 5.987 0 00-2.6-.05c-2.556.248-5.076.78-7.515 1.585a17.983 17.983 0 001.951-10.883c-.19-1.33-.15-2.683.117-4a10.18 10.18 0 00-.218-5.411c-.432-1.384-1.589-5.065-.54-6.13zM99.7 98.506a23.087 23.087 0 001.652-1.823c.146.403.259.817.337 1.239a4.047 4.047 0 01-1.989.584zM82.57 80.4a86.85 86.85 0 01-.406 1.516 1.868 1.868 0 00-.514-.5 8.22 8.22 0 01.92-1.016zm-3.281 5.457c.442-1.28 1.044-2.5 1.791-3.63a1.676 1.676 0 01.618 1.224 20.632 20.632 0 00-1.312 3.918 2.4 2.4 0 01-1.097-1.511v-.001zm8.979 14.876a11.708 11.708 0 01-6.2-6.57 2.295 2.295 0 01-.1-.264 12.5 12.5 0 01-.779-5.41c.009-.108.024-.215.046-.32a20.27 20.27 0 011.435-4.483c.352-1.006.892-3.145 1.179-4.251.586-.29 1.195-.53 1.821-.718a.5.5 0 00.451-.132 6.68 6.68 0 011.016-.133 4.802 4.802 0 013.606 1.212.5.5 0 10.676-.738 5.711 5.711 0 00-3.061-1.44c2.641-1.953 4.866-5.321 8.143-3.643.433.216.808.534 1.091.927.035.07.064.143.087.218.052.177.13.346.233.5.078.18.262.373.7.264a.801.801 0 00.1-.033 4.18 4.18 0 012.194.94 6.759 6.759 0 012.517 7.572 5.74 5.74 0 00-4.5-2.478 2.89 2.89 0 01-.395.026.5.5 0 000 1c.144 0 .288-.01.43-.031a4.653 4.653 0 014.013 2.75c-.872 2.07-2.183 3.958-2.7 6.253a6.7 6.7 0 00.651 3.876 27.754 27.754 0 01-2.467 2.684c-2.703 2.645-6.461 4.082-10.187 2.423v-.001zm.284 7.662a9.116 9.116 0 011.369-2.29c-.131.729-.271 1.486-.426 2.26-.312.024-.627.035-.943.035v-.005zm6.993 2.024a25.685 25.685 0 01-1.509-2.762 9.773 9.773 0 00-2.215-2.625 4.294 4.294 0 00-.555-.411c.432-.478.738-.9 1.323-1.532a8.459 8.459 0 005.311 2.621c4.6.149 6.308-3.586 8.885-5.294.243-.161.491-.325.729-.511a16.96 16.96 0 01-2.423 11.049c-.933.314-1.844.69-2.726 1.128a3.028 3.028 0 00-.348.26.502.502 0 00-.237.456 81.535 81.535 0 00-.595 2.2c-.17-.398-3.877-2.379-5.64-4.578v-.001z"/><path fill="#0e2238" d="M87.779 83.743c.74-.836.54-1.984-.55-2.031-.594.016-.994 1.4-1 1.412-.16.915.824 1.44 1.55.619zm11.597 4.549c.753-.866.493-2.006-.552-2.028-.6-.013-.992 1.388-1 1.4-.167.924.818 1.47 1.552.628zm-7.609-2.977a.5.5 0 00-.638.3 2.712 2.712 0 01-1.029 1.338 7.205 7.205 0 00-1.832 1.06c-.993 1.073-.161 2.659 2.235 2.659a.5.5 0 10.049-1 4.322 4.322 0 01-.85-.08c-.439-.095-1.082-.47-.762-.841a7.095 7.095 0 011.663-.931 3.713 3.713 0 001.471-1.866.5.5 0 00-.307-.64zm-2.204 7.172a2.117 2.117 0 00-2.486.037.569.569 0 00-.082.223 4.466 4.466 0 00.733 3.26 2.263 2.263 0 001.584.707c1.988 0 2.274-3.114.251-4.227zm.293 2.85a.566.566 0 01-.4.363 1.2 1.2 0 01-.936-.312 3.412 3.412 0 01-.567-2.231 1.7 1.7 0 011.903 2.18zm-.739 1.921a2.257 2.257 0 01-.711-.258.509.509 0 10-.563.825c.362.224.767.37 1.189.426a.5.5 0 00.083-.994h.002zm12.26 63.879a84.929 84.929 0 01-17.675.51 8.43 8.43 0 01-.94-.043.492.492 0 00-.376.102.503.503 0 00-.17.539.506.506 0 00.25.299c.06.031.124.049.191.054.441.047 4.852.287 7.778.287 3.706 0 7.408-.253 11.079-.758a.498.498 0 00.364-.749.489.489 0 00-.306-.231.475.475 0 00-.195-.01zM101.329 59.6c-1.374.112-3.061.105-4.465.105-.357 0-.966-.152-1.04.412a.53.53 0 00.6.567c.885.046 3.564.028 4.985-.087a.502.502 0 10-.081-1l.001.003zm30.621 6.693c.297-.063.572-.2.8-.4a2.838 2.838 0 013.431.12.498.498 0 00.793-.25.511.511 0 00-.042-.381.51.51 0 00-.126-.15 3.87 3.87 0 00-4.64-.151c-.115.091-.24.17-.372.234a.502.502 0 00-.347.556.498.498 0 00.503.422zm11.973 2.077a3.543 3.543 0 013.81 2.17.5.5 0 10.926-.377 4.536 4.536 0 00-4.883-2.782.495.495 0 00-.334.195.493.493 0 00-.095.374.494.494 0 00.2.33.5.5 0 00.376.09zm-9.17 2.03a1.958 1.958 0 00-.046-2.286c-.5-.448-1.141-.025-1.359.667-.119.415-.433 1.517.307 1.923a.816.816 0 001.098-.304zm8.897 2.626c.277.1.639.015.92-.457.006-.011.613-1.1.407-1.7a.74.74 0 00-.435-.42.748.748 0 00-.603.038 1.393 1.393 0 00-.628.9c-.199.618-.262 1.418.339 1.639zm-4.989 5.948a6.755 6.755 0 01-4.123-.743.507.507 0 00-.381-.145.5.5 0 00-.239.922c.491.272 1.004.5 1.535.682a7.712 7.712 0 003.343.276.502.502 0 10-.135-.992zm-1.279 1.475a5.08 5.08 0 01-1.548-.11c-.033 0-.12-.018-.177-.032a.499.499 0 00-.807.263.5.5 0 00.032.33c.152.328.542.388.815.429a5.84 5.84 0 001.773.116.503.503 0 10-.088-1v.004zM12.6 47.114c1.693.993 3.378 1.945 5.373 1.766 3.215-.3 5.587-4.146 5.058-7.17-.238-1.3-1.19-2.191-1.4-3.245-.244-1.268.318-4.205-1.7-4.97a1.492 1.492 0 00-1.606.25c-.868.8-.894 2.635-.667 3.429.042.142.093.28.153.416.076.153.13.317.156.486a.759.759 0 01-.188.218c-1.386-1.416-2.743-2.552-4.507-4.136-1.378-1.234-3.832-1.213-3.531.6-1.4-.588-1.963-.106-2.178.265-.409.689.023 1.478.383 2.019a1.28 1.28 0 00-1.224 1.072 3.1 3.1 0 00.4 1.766 1.027 1.027 0 00-.964 1.157c.171 2.537 4.242 4.785 6.442 6.077zm-5.3-6.241c.143 0 .285.028.418.082.387.155.8.162.933-.235.236-.694-1.019-1.13-.937-2.47.01-.053.042-.211.549-.223.286.028.956.09 1.031-.473a1.221 1.221 0 00-.393-.89c-.152-.22-.617-.89-.473-1.133.058-.1.594-.058 1.474.429a1 1 0 00.873.25.52.52 0 00.3-.287c.1-.255-.008-.49-.225-.94-.13-.33-.163-.578-.082-.62a2.166 2.166 0 011.832.537c1.78 1.6 3.123 2.719 4.5 4.134-1.311 2.028-.935 5.185-.191 5.45a.506.506 0 00.559-.8 4.86 4.86 0 01.669-4.37 2.48 2.48 0 00.779-.947c.168-.564-.214-1.135-.3-1.461A3.132 3.132 0 0119 34.482c.1-.095.249-.174.574-.052 1.273.483.812 2.88 1.073 4.228.246 1.23 1.207 2.182 1.4 3.229.437 2.5-1.583 5.76-4.165 6-1.816.169-3.433-.884-5.033-1.782-1.734-.974-5.563-3.227-5.7-5.2a.31.31 0 01.151-.032z"/><path fill="#0e2238" d="M11.215 37.1c.034.03.149.157.193.193 1.34 1.085 2.378 1.989 3.351 2.743a.5.5 0 10.613-.791c-1.044-.807-2.275-1.847-3.353-2.752a1.024 1.024 0 00-.493-.34.5.5 0 00-.311.947zM9.9 39.367c1.145 1.008 2.433 1.847 3.644 2.745a.5.5 0 00.6-.8c-1.194-.887-2.479-1.725-3.58-2.693a.5.5 0 00-.66.75l-.004-.002zm-.892 2.472c1.3.812 2.472 1.865 3.9 2.616a.5.5 0 00.465-.885c-1.33-.7-2.514-1.75-3.837-2.58a.5.5 0 10-.531.849h.003zM80.005 19.94c.613 1.606 1.139 3.224 2.634 4.2 2.3 1.514 6.077.267 7.456-1.973a4.642 4.642 0 00.539-1.593 3.327 3.327 0 011.017-2.045c.752-.9 1.783-2.132 1.071-3.357a1.31 1.31 0 00-1.24-.726 3.584 3.584 0 00-2.452 1.886c-.069.144-.22.617-.267.69a2.02 2.02 0 01-.17.045c-.1-1.46-.307-2.8-.595-4.915-.209-1.54-1.829-2.843-2.726-1.583-.63-1.108-1.317-1.023-1.607-.92a1.641 1.641 0 00-.91 1.446 1.29 1.29 0 00-1.41.107 2.7 2.7 0 00-.737 1.288 1.036 1.036 0 00-1.293.3c-1.267 1.696-.124 5.02.69 7.15zm.1-6.536c.034.01.067.021.1.035.249.247.306.6.67.655a.518.518 0 00.436-.142c.428-.427-.068-1.2.686-1.988a.313.313 0 01.353.068c.321.329.728.624 1.067.316a.956.956 0 00.283-.75c.036-.58.158-.957.294-1.006.093.015.372.3.632.963.056.214.15.572.449.677a.524.524 0 00.423-.008c.249-.117.32-.37.426-.752.139-.37.245-.406.245-.406.366.078.772.748.836 1.22.284 2.084.5 3.483.595 4.94a5.511 5.511 0 00-2.762 2.105c-1.346 1.808.469 2.018.5 1.174a4.278 4.278 0 012.84-2.4c.338.002.674-.055.993-.167.5-.171.65-.962.753-1.171.232-.484 1.071-1.314 1.59-1.322.109 0 .216.02.336.228.333.575-.218 1.312-.973 2.215a4.24 4.24 0 00-1.231 2.488c-.06.443-.2.872-.41 1.267-1.113 1.808-4.27 2.837-6.056 1.66a6.41 6.41 0 01-2.156-3.467 20.528 20.528 0 01-1.176-3.878 3.373 3.373 0 01.257-2.558v.004z"/><path fill="#0e2238" d="M85.5 16.72a.5.5 0 00.979-.2c-.24-1.181-.461-2.53-.629-3.533a.892.892 0 00-.155-.507.535.535 0 00-.862.033.484.484 0 00.02.546c.012.217.57 3.289.647 3.66zm-1.967.698a.5.5 0 00.973-.233c-.288-1.2-.649-2.4-.817-3.582a.5.5 0 10-.99.142c.179 1.255.55 2.48.834 3.673zm-1.74 1.188a.5.5 0 10.924-.383c-.465-1.122-.657-2.446-1.047-3.65a.5.5 0 10-.951.308c.391 1.219.561 2.487 1.074 3.725zM136.7 71.422a6.331 6.331 0 01-.731.59c-.108.044-.222.09-.34.135-.828.322-2.213.86-1.878 2.408.38 1.722 1.925 1.022 2.521 1.18.619.16 1.3 1.126 2.188 1.126.7 0 1.144-.577 1.442-1.208a.5.5 0 00-.9-.425c-.251.53-.439.613-.491.627-.187.045-.554-.23-.852-.45a2.406 2.406 0 00-2.089-.672c-.649.05-.746.03-.838-.39-.183-.843.7-1.014 1.621-1.407.013-.006 1.311-.768 1.339-1.318a.542.542 0 00-.277-.49.499.499 0 00-.715.294z"/><path fill="#0e2238" fill-rule="evenodd" d="M26.132 122.73a.5.5 0 01-.284.648c-4.622 1.804-7.163 5.259-8.385 10.009a95.017 95.017 0 00-.565 2.364c-.557 2.418-1.168 5.07-2.368 7.934a.495.495 0 01-.092.144c-.574.627-.588 1.589-.378 2.824.06.355.129.688.2 1.027.053.257.107.518.158.793.111.596.196 1.209.15 1.763-.172 2.023-1.036 3.606-1.766 4.944-.119.218-.234.429-.342.635-.342.65-.736 1.824-1.096 3.34a42.552 42.552 0 00-.878 5.208c-.408 3.816-.34 7.894.73 10.587a.5.5 0 01-.929.37c-1.164-2.931-1.207-7.215-.796-11.063.207-1.936.532-3.786.9-5.333.365-1.537.781-2.811 1.184-3.575.118-.224.24-.448.361-.673.73-1.342 1.483-2.727 1.635-4.525.034-.41-.027-.911-.136-1.495a38.72 38.72 0 00-.147-.733c-.075-.366-.154-.749-.214-1.103-.203-1.196-.299-2.586.566-3.597 1.143-2.749 1.72-5.258 2.268-7.636.192-.831.38-1.646.586-2.45 1.286-4.995 4.01-8.747 8.99-10.691a.5.5 0 01.648.284zm51.267-29.757a.303.303 0 00-.041-.002.5.5 0 01-.022-1c.27-.005.541.067.753.27.203.195.288.45.32.683.062.448-.045 1.021-.206 1.613-.243.894-.668 2.017-1.107 3.177-.15.398-.303.8-.45 1.2l-.01.032c.58-.651 1.309-1.46 1.89-1.881l.006-.005c.155-.108.418-.283.71-.37.303-.091.75-.115 1.095.258l.004.004c.28.31.321.716.315 1.004a4.452 4.452 0 01-.097.747l-.007.036a17.26 17.26 0 01-1.786 4.224c-.558 1.138-1.076 2.344-1.563 3.5l-.199.471c-.415.986-1.797 3.685-2.174 4.482a.5.5 0 01-.904-.427c.367-.776 1.74-3.453 2.156-4.441l.2-.474c.49-1.163 1.02-2.398 1.595-3.569a16.274 16.274 0 001.697-3.976c.038-.198.078-.403.082-.595.004-.186-.029-.27-.05-.302a.316.316 0 00-.076.015 1.64 1.64 0 00-.42.23c-.5.363-1.186 1.125-1.807 1.823l-.056.063c-.278.313-.54.607-.743.813a2.616 2.616 0 01-.32.285.748.748 0 01-.26.12.53.53 0 01-.595-.275l.002.002c-.122-.234-.11-.496-.088-.673.026-.196.082-.4.14-.583.06-.186.13-.368.188-.518l.03-.076c.046-.12.079-.204.097-.261a159.077 159.077 0 01.48-1.282c.432-1.143.83-2.197 1.06-3.041.16-.584.213-.985.18-1.214a.405.405 0 00-.02-.087z" clip-rule="evenodd"/></svg>