<svg xmlns="http://www.w3.org/2000/svg" fill="none" viewBox="0 0 200 200" height="700" width="700"><path fill="#fff" fill-rule="evenodd" d="M21.019 5v135.556l158.217-7.944V26.645L21.019 5z" clip-rule="evenodd"/><path fill="#0e2238" d="M21.059 140.919c-.1-.094-.539-.224-.54-.361V5c0-.2.364-.343.533-.326 5.114.515 31.973 4.381 158.123 21.473.247.034.561.244.561.494v105.97c0 .267-.08.487-.346.5-165.244 8.089-158.09 8.035-158.331 7.808zm.46-135.346V140.03l157.217-7.894V27.082L21.519 5.573z"/><path fill="#0e2238" d="M91.1 58.3a.5.5 0 01-.419-.228L74.459 33.149 62.721 43.276a.5.5 0 01-.807-.238L56.039 22.98 37.887 39.942a.499.499 0 11-.682-.73L55.949 21.7a.5.5 0 01.821.225l5.886 20.091 11.584-9.999a.502.502 0 01.745.107l16.2 24.886 21.31-20.971a.496.496 0 01.435-.137.497.497 0 01.365.272l6.22 12.574 14.4-11.709a.501.501 0 01.737.119l11.9 18.712 15.347-14.9a.504.504 0 01.708.008.509.509 0 01.143.356.503.503 0 01-.151.352L146.8 57.014a.498.498 0 01-.77-.089L134.1 38.169l-14.448 11.75a.497.497 0 01-.623.007.489.489 0 01-.141-.173L112.7 37.236C90.026 59.549 91.413 58.3 91.1 58.3z"/><path fill="#def6f8" fill-rule="evenodd" d="M116.1 88.916v-22.33h6.691l-.261 22.33h-6.43z" clip-rule="evenodd"/><path fill="#00bac7" fill-rule="evenodd" d="M128.048 88.916l-.315-14.722-4.945-.1-.261 14.818 5.521.004z" clip-rule="evenodd"/><path fill="#def6f8" fill-rule="evenodd" d="M131.789 88.915l.4-21.508 5.641.089v21.653l-6.041-.234z" clip-rule="evenodd"/><path fill="#00bac7" fill-rule="evenodd" d="M137.834 89.149V75.123l4.786.364.636 13.873-5.422-.211z" clip-rule="evenodd"/><path fill="#def6f8" fill-rule="evenodd" d="M153.881 89.657l-.215-22.25h-5.62l-.513 21.953 6.348.297z" clip-rule="evenodd"/><path fill="#00bac7" fill-rule="evenodd" d="M153.881 89.657V75.323l4.578.349.468 13.985h-5.046z" clip-rule="evenodd"/><path fill="#0e2238" d="M161.446 89.3l-7.223-.14V75.079c0-.6-1-.72-1 .006v14.059l-5.069-.1.407-21.627a.498.498 0 00-.846-.37.5.5 0 00-.154.35l-.407 21.627-8.8-.171V75.079a.499.499 0 00-.503-.497.501.501 0 00-.497.503v13.748l-5.062-.1.4-21.316a.504.504 0 00-.299-.468.503.503 0 00-.191-.042.513.513 0 00-.51.49l-.4 21.316-8.262-.162.169-14.506a.49.49 0 00-.303-.466.497.497 0 00-.546.102.505.505 0 00-.151.352l-.169 14.5-5.434-.107V66.682a.503.503 0 00-.5-.5.5.5 0 00-.5.5c0 7.023.007 22.373 0 22.26a.502.502 0 00.489.474l45.349.888a.5.5 0 00.01-1l.002-.004z"/><path fill="#def6f8" fill-rule="evenodd" d="M100 101.547l.246 10.04 9.358-.543 5.167-5.719-5.13-4.086-9.641.308zm.772 16.06v10.1l9.654-.349 5.168-5.718-5.129-4.034-9.693.001z" clip-rule="evenodd"/><path fill="#def6f8" fill-rule="evenodd" d="M112.416 101.239l5.443 3.97-4.995 5.834 49.059-1.481-.139-9.864-49.368 1.541zm.823 16.316l5.444 3.971-5 5.834 49.059-1.481-.138-9.865-49.365 1.541z" clip-rule="evenodd"/><path fill="#0e2238" d="M100.246 112.087a.498.498 0 01-.5-.489l-.246-10.039a.496.496 0 01.298-.469.5.5 0 01.19-.043.522.522 0 01.512.488l.233 9.522 8.638-.5 5.029-5.566a.5.5 0 11.743.67l-5.168 5.719a.504.504 0 01-.342.164l-9.387.543zm.554 16.122a.56.56 0 01-.531-.5v-10.1a.48.48 0 01.128-.349.467.467 0 01.339-.151.498.498 0 01.491.301c.027.063.041.13.041.199v9.586l8.926-.323 5.026-5.561a.494.494 0 01.348-.173.504.504 0 01.484.287.497.497 0 01.015.388.507.507 0 01-.105.168l-5.167 5.718a.49.49 0 01-.353.165l-9.642.345z"/><path fill="#0e2238" d="M112.864 111.543a.498.498 0 01-.495-.569.503.503 0 01.115-.256l4.644-5.424-5.006-3.651a.511.511 0 01-.213-.328.5.5 0 01.801-.48l5.444 3.969a.501.501 0 01.085.73l-4.26 4.975 47.929-1.447a.5.5 0 01.03 1l-49.074 1.481zm.823 16.317a.5.5 0 01-.38-.825l4.644-5.424-5.006-3.651a.5.5 0 01.589-.809l5.443 3.97a.498.498 0 01.085.729l-4.26 4.976 47.929-1.447a.509.509 0 01.358.136.496.496 0 01.157.349.509.509 0 01-.136.358.496.496 0 01-.349.157l-49.074 1.481z"/><path fill="#00bac7" fill-rule="evenodd" d="M38.192 37.581a1.622 1.622 0 11-1.524 1.619 1.574 1.574 0 011.524-1.619zM62.5 40.817a1.62 1.62 0 11-1.524 1.618 1.573 1.573 0 011.524-1.618zm-6.374-20.288a1.621 1.621 0 11-1.526 1.618 1.574 1.574 0 011.526-1.618zM74.548 30.93a1.621 1.621 0 11-1.524 1.618 1.573 1.573 0 011.524-1.618zm16.696 24.776a1.791 1.791 0 11-1.733 1.741 1.739 1.739 0 011.733-1.741zm21.437-20.232a1.622 1.622 0 11-1.524 1.619 1.573 1.573 0 011.524-1.619zm6.77 12.334a1.622 1.622 0 11-1.524 1.618 1.576 1.576 0 011.524-1.618zm14.433-11.602a1.62 1.62 0 11-1.523 1.618 1.572 1.572 0 011.523-1.618zm12.65 18.058a1.622 1.622 0 011.277 2.73 1.622 1.622 0 01-2.801-1.112 1.572 1.572 0 011.524-1.618zm15.707-14.62a1.62 1.62 0 011.697 1.875 1.623 1.623 0 01-2.942.654 1.623 1.623 0 01-.28-.91 1.574 1.574 0 011.525-1.619z" clip-rule="evenodd"/><path fill="#def6f8" fill-rule="evenodd" d="M68.665 75.135l1.426-.359L74 79.6s3.457-.16 5.024 2.21c1.567 2.37 8.264 12.1 8.264 12.1l10.476-6.675s3.378 1.436 4.692 6.963c0 0-10.967 8.911-15.624 8.732-4.657-.179-10.787-7.63-10.787-7.63l-.627 20.8-6.1.393c.882-.013 3.294-31.084-.653-41.358z" clip-rule="evenodd"/><path fill="#fff" fill-rule="evenodd" d="M104.757 85.926a5.198 5.198 0 003.983-1.4c1.286-1.181 1.006-3.053 2.509-2.688 1.449.351.052 6.122-3.9 7.13s-4.561.948-5.581 2.974l-2.52-3.842c.857-1.032 2-1.79 3.285-2.177 0 0 1.887-3.454 3.081-3.421 1.194.033-.857 3.424-.857 3.424z" clip-rule="evenodd"/><path fill="#0e2238" d="M111.367 81.347c-1.975-.472-1.807 1.743-2.966 2.806a4.469 4.469 0 01-2.769 1.248c.553-1.036 1.087-2.33.735-2.974a.836.836 0 00-.739-.43c-1.292-.041-2.843 2.453-3.428 3.488a7.445 7.445 0 00-3.343 2.3c-.236.295-.375.593-.107.863a12.964 12.964 0 013 5.434c-3.5 2.7-12.323 8.934-15.195 8.459-3.626-.591-9.937-7.2-10-7.266a.5.5 0 00-.863.332c-.067 2.634-.67 16.737-.773 20.392a.495.495 0 00.296.47.505.505 0 00.548-.093.513.513 0 00.156-.35c.1-3.647.666-16.823.74-19.221 1.891 1.868 6.573 6.208 9.735 6.722 3.946.639 14.991-7.891 16.24-8.865a.498.498 0 00.173-.532 19.129 19.129 0 00-.642-1.878.48.48 0 00.054-.085c.889-1.768 1.24-1.7 5.258-2.715 4.358-1.107 6.046-7.58 3.89-8.105zm-5.876 1.668a7.947 7.947 0 01-1.015 2.4c-.444-.024-.788-.074-1.019-.083a6.614 6.614 0 012.034-2.317zm1.735 5.464c-3.543.9-4.589 1-5.573 2.63a12.49 12.49 0 00-1.889-2.847c.96-1.063 2.416-2.076 3.846-1.915 2.49.277 4.024-.131 5.468-1.458a4.965 4.965 0 001.128-1.732c.588-1.31 1.1-1.071 1.1-.162.011 1.592-1.343 4.792-4.08 5.484z"/><path fill="#def6f8" fill-rule="evenodd" d="M64.753 84.453c.972-.131-1.444 20.744-1.925 24.9l4.393 5.968 2.1-5.791-2.1-24.79c.067-.132 1.127-2.28.869-3.681a8.13 8.13 0 00-1.939-1.192c0 .019-2.524 1.468-2.524 1.468s.563 1.77 1.126 3.118z" clip-rule="evenodd"/><path fill="#0e2238" d="M69.817 109.51c-.034-.764-.83-18.644-2.038-24.831a15.93 15.93 0 00.8-3.594.502.502 0 00-.835-.397.5.5 0 00-.165.346 14.337 14.337 0 01-.688 3.125l-1.69.071c-.53-1.3-1.1-3.032-1.109-3.051a.5.5 0 00-.95.313c.028.083.668 2.022 1.236 3.37.026 1.477-1.59 20.415-2.05 24.436-.026.227-.185-.137 3.3 6.263a.506.506 0 00.438.258.503.503 0 00.437-.258c3.525-6.285 3.322-5.849 3.314-6.051zm-3.738 4.778l-2.736-5.034c.395-3.587 1.9-20.646 2.025-24.029l1.484-.063c1.11 6.085 1.882 22.545 1.96 24.249l-2.733 4.877z"/><path fill="#def6f8" fill-rule="evenodd" d="M59.66 73.979c-.62.459-5.04 2.956-9.919 6.189-4.048 2.68-3.2 7.253-2.625 11.32.444 3.166 1.747 14.718 4.37 16.855l.307 4.645 10.511-.444.4-8.014s6.437-5.066 8.027-7.142l-2.589-5.7s-5.672 2.329-5.73 2.287c-.06-.042-.44-19.187-.88-22.141l-.6-.68-1.273 2.825z" clip-rule="evenodd"/><path fill="#fff" fill-rule="evenodd" d="M61.676 71.809c-.231-.265-.445-.53-.646-.794a5.219 5.219 0 01-3.265-.466c-2.073-.844-3.192-4.2-1.684-5.143a1.785 1.785 0 012.484.695s-2.682-7.257 2.515-10.068c7.037-3.806 11.7.242 11.7.242a7.329 7.329 0 012.722 5.17c.126 3.244-.943 3.155-.136 5.78.807 2.625-2.883 7.487-6.7 7.671l.013 1.545c-.2.342-1.46 2.993-2.877 2.965-1.535-.029-4.018-4.271-4.018-4.271l-.108-3.326z" clip-rule="evenodd"/><path fill="#0e2238" fill-rule="evenodd" d="M55.608 58.084c.422-2.92 2.57-5.64 5.318-5.764 2.748-.124 2.567-1.811 6.185-2.419 3.618-.608 5.546.837 6.7 2.792.227.37.344.796.336 1.229a5 5 0 011.35 6.906s.52-2.467-2.585-4.447a4.862 4.862 0 01-.655-.488c-1.213-.691-3.525-.88-6.809.276a19.77 19.77 0 01-3.5.688 4.258 4.258 0 00-1.278 4.155c.252 1.135.376 2.294.371 3.456-1.045 1.132-.488 3.881-.488 3.881a3.858 3.858 0 01-1.988-2.249 1.407 1.407 0 00-2.179-.855 9.2 9.2 0 01-.778-7.161z" clip-rule="evenodd"/><path fill="#0e2238" d="M59.257 70.347a.5.5 0 01-.421-.229c-1.469-2.279-2.064-2.7-2.167-2.768a.5.5 0 01.1-.984c.237 0 .817-.028 2.905 3.211a.5.5 0 01-.417.77zm7.799-3.379a.5.5 0 01.833.552.749.749 0 00-.137.459c.016.045.117.083.147.094.586.21 1.238-.468 1.238-.468a.5.5 0 01.628-.087 2.484 2.484 0 001.874.338c.08-.031.214-.1.227-.175.047-.3-.528-1.021-1.073-1.474a.5.5 0 01.64-.77c.265.221 1.584 1.376 1.421 2.4a1.221 1.221 0 01-.846.947 3.208 3.208 0 01-2.43-.238c-1.734 1.37-3.599.026-2.522-1.578zm1.291 6.907c-1.9 0-2.378-3.585-.747-4.256a10.18 10.18 0 013.38-.508.5.5 0 01.313.119c.944.8-.95 4.645-2.946 4.645zm2.191-3.759c-.87.006-1.733.15-2.557.427-.688.283-.388 2.655.589 2.288a4.053 4.053 0 001.968-2.715zm-7.051-8.634a.5.5 0 01-.408-.787 3.967 3.967 0 014.552-1.351.498.498 0 01.32.64.499.499 0 01-.649.304 2.985 2.985 0 00-3.407.985.501.501 0 01-.408.209zm11.805.323a.5.5 0 01-.474-.342 1.625 1.625 0 00-1.834-1.193.508.508 0 01-.575-.409.5.5 0 01.4-.576 2.626 2.626 0 012.954 1.863.501.501 0 01-.47.657zm-12.948-7.712a.501.501 0 01.184-.983 3.574 3.574 0 002.113-.435 11.138 11.138 0 013.292-1.008.489.489 0 01.563.427.5.5 0 01-.428.563 10.377 10.377 0 00-2.95.9 4.588 4.588 0 01-2.774.536z"/><path fill="#0e2238" d="M59.65 55.024a.5.5 0 01.493-.87 5.155 5.155 0 003.386.464c1.817-.45 7.66-4.778 9.492-.483a.5.5 0 01-.92.393c-1.366-3.2-6.229.543-8.333 1.061a6.013 6.013 0 01-4.118-.565z"/><path fill="#0e2238" d="M76 61.426a6.921 6.921 0 00-.031-.434.418.418 0 00.017-.061c.023-.11.51-2.612-2.414-4.706a3.553 3.553 0 001.075-2.347.5.5 0 10-1-.006 2.67 2.67 0 01-.882 1.748c-1.365-.947-4.091-1.31-7.554-.093a14.423 14.423 0 01-7.138.724 3.5 3.5 0 00-2.885 1.559.5.5 0 00.077.638 12.378 12.378 0 00.486 6.575c-1.856 1.272-.5 5.044 1.824 5.988a7.3 7.3 0 002.495.582 30.421 30.421 0 00-3.064 10.977.5.5 0 00.8.451 6.275 6.275 0 013.281-1.121c-.862.861-2.239 2.262-3.18 3.331a.5.5 0 00-.067.563c.032.061 3.191 6.082 4.282 8.244a.533.533 0 00.494.37.5.5 0 00.5-.5c-.031-6.678-.194-11.109-.2-11.265 1.136-1.172 2.572-2.356 3.156-2.327.66.033 2.343 1.378 3.37 2.372a140.836 140.836 0 01.827 21.464c-.319 5.18-1.431 12.192-1.442 12.262a.501.501 0 00.79.494.496.496 0 00.197-.336c.012-.071 1.131-7.13 1.453-12.358.544-8.831-.912-23.847-1.189-25.543a16.54 16.54 0 00-.91-3.315c4.367-.506 7.54-5.473 6.677-8.28-.732-2.376.281-2.451.155-5.65zm-19.6-3.5c1.214-1.132 1.966-.488 4.4-.527a4.858 4.858 0 00-.622 3.745c.232 1.032.35 2.087.352 3.145a4.727 4.727 0 00-.623 3.01 4.445 4.445 0 01-.888-1.391 1.874 1.874 0 00-2.368-1.329 11.641 11.641 0 01-.245-6.652l-.006-.001zm1.721 23.742a28.197 28.197 0 012.941-9.8l.128.151c.106 3.957 0 2.031.52 8.9a7.09 7.09 0 00-3.583.75l-.006-.001zm.759 3.969c.927-1.031 2.173-2.294 2.955-3.075a.5.5 0 00.08.232c.023.66.135 4.024.181 9.013-1.139-2.214-2.708-5.207-3.21-6.169l-.006-.001zm3.87-4.241l-.345-4.551a13.231 13.231 0 002.649 2.779 11.51 11.51 0 00-2.298 1.776l-.006-.004zm3.057-2.491c-.47-.061-2.074-1.85-3.535-3.935l-.052-1.887a8.6 8.6 0 005.941 2.32l.01.9c-.579.93-1.919 2.575-2.358 2.603l-.006-.001zm3.518 2.325a10.482 10.482 0 00-2.548-1.747 10.571 10.571 0 001.964-2.237c.337 1.304.535 2.64.59 3.985l-.006-.001zm5.557-13.86c.7 2.281-2.278 6.821-6.161 7.02a8.167 8.167 0 01-7.3-3.68.5.5 0 00-.549-.173 4.9 4.9 0 01-2.925-.452 3.777 3.777 0 01-2.047-2.98c-.127-1.458 1.345-2.087 2.224-.773a4.073 4.073 0 002.43 2.517.5.5 0 00.491-.6c-.14-.7-.347-2.672.365-3.444a.5.5 0 00.133-.336 15.947 15.947 0 00-.389-3.593A3.748 3.748 0 0162.2 57.3a16.327 16.327 0 003.348-.828c4.04-1.421 6.085-.64 7.917.936a4.05 4.05 0 011.568 2.832.501.501 0 00-.116.42 9.159 9.159 0 01-.164 3.533 5.17 5.17 0 00.135 3.178l-.006-.001z"/><path fill="#0e2238" d="M73.72 85.092a.5.5 0 01-.341-.134c-1.549-1.443-2.717-3.012-3.405-3.216a.5.5 0 010-.959 7.387 7.387 0 013.985-.019.5.5 0 11-.3.954 6.5 6.5 0 00-2.249-.193c.615.565 1.689 1.8 2.654 2.7a.5.5 0 01-.344.867z"/><path fill="#fff" fill-rule="evenodd" d="M74.32 73.8a3.667 3.667 0 00-3.468 3.81 4.102 4.102 0 001.382 3.266l1.452 16.154s2.524 1.215 3.388-.882l-.734-15.442c2.377-2.28 1.109-6.82-2.02-6.906z" clip-rule="evenodd"/><path fill="#0e2238" d="M77.053 74.693c-2.352-2.885-6.593-.982-6.7 2.9a4.643 4.643 0 001.4 3.518l1.435 15.96a.499.499 0 00.281.405 4.51 4.51 0 001.755.4 2.355 2.355 0 002.313-1.541c.062-.152.088.861-.687-15.442a4.847 4.847 0 00.203-6.2zm-2.9 21.987l-1.332-14.859a3.43 3.43 0 003.063-.163l.685 14.4c-.444.942-1.424.973-2.412.622h-.004zm2.918-18.9c-.046 1.692-1.25 3.386-2.954 3.324a3.456 3.456 0 01.186-6.805c1.673.047 2.82 1.724 2.772 3.482l-.004-.001z"/><path fill="#fff" fill-rule="evenodd" d="M69.856 95.708a39.92 39.92 0 01-1.714-4.02s2.563-2.367 2.741-4.133c.178-1.766.07-2.661 2.145-3.818 2.076-1.157 5.415-1.263 4.384 2.378 0 0 1.194.345.38 2.3a1.71 1.71 0 01-.015 2 1.71 1.71 0 01-.488 2.166s-1.3-2.03-2.915-.981-.66 1.949-2.3 2.911c-.713.445-1.454.845-2.218 1.197z" clip-rule="evenodd"/><path fill="#0e2238" d="M78.345 88.375a2.143 2.143 0 00-.357-2.5c.352-1.6-.163-2.422-.68-2.831-1.153-.911-3.153-.507-4.523.258-2.148 1.2-2.2 2.182-2.4 4.2-.115 1.188-1.635 2.893-2.4 3.643-3 1.325-7.1 3.427-9.92 4.905-.449-2.667-1.627-10.6-1.627-10.6a.5.5 0 00-.989.146s1.227 8.264 1.685 10.945c-2.026 1.07-3.437 1.838-3.472 1.857a.499.499 0 10.48.877c.085-.046 8.29-4.515 13.684-6.963.463 1.066 1.608 3.673 2.334 5.063-2.14 3.291-15.278 13.085-18.357 10.579a.496.496 0 00-.553-.053.51.51 0 00-.242.297.502.502 0 00.163.531c4.013 3.268 17.843-7.694 19.858-10.86.158-.247.286-.46.143-.723-.16-.292-.352-.674-.558-1.1 1.746-1.3 2.522-1.17 3.1-2.81a1.982 1.982 0 01.936-1.221 1.2 1.2 0 011.48.074c.288.21.538.467.741.76a.5.5 0 00.71.138 2.125 2.125 0 00.77-2.5 2.167 2.167 0 00-.006-2.112zm-.736 1.289a8.429 8.429 0 00-3.995-1.064.5.5 0 10-.016 1c.8.014 3 .258 3.8 1.208a1.224 1.224 0 01-.069 1.025 2.4 2.4 0 00-3.227-.651 2.962 2.962 0 00-1.334 1.728c-.41 1.17-.743.905-2.59 2.22a155.34 155.34 0 01-1.469-3.288c.68-.667 2.512-2.6 2.671-4.234.181-1.861.118-2.442 1.891-3.43 1.112-.62 2.693-.92 3.415-.347a1.61 1.61 0 01.377 1.555 5.854 5.854 0 00-3.915-.451.5.5 0 10.3.954 5.107 5.107 0 013.722.667c.1.055.238.064.34.3.073.202.088.42.043.63a7.11 7.11 0 00-3.97-1.172.5.5 0 00.014 1c.025-.012 2.675-.02 3.79 1.4.18.282.259.617.222.95z"/><path fill="#fff" fill-rule="evenodd" d="M39.3 117.06l-2.259 1.012-.093-3.587 9.848-4.944 58.064-1.4-.162 4.035-7.263.157-11.9 77.775L54.437 195l-11.1-8.278L39.3 117.06z" clip-rule="evenodd"/><path fill="#0e2238" d="M104.843 107.641c-60.761 1.465-58.116 1.375-58.276 1.452l-9.848 4.945a.494.494 0 00-.276.46l.093 3.587a.501.501 0 00.7.443l1.6-.715 4 68.938c.021.384-.523-.209 11.3 8.649.262.2-1.829.464 31.464-4.8a.499.499 0 00.416-.419l11.842-77.36 6.843-.147a.501.501 0 00.488-.48l.162-4.034a.5.5 0 00-.508-.519zm-67.326 9.668l-.066-2.519 8.959-4.5.47 2.822-9.363 4.197zm2.3.066l7.734-3.464.692-.015 4.657 79.332-9.073-6.768-4.01-69.085zm45.272 72.3l-30.518 4.8-.622-.464-4.709-80.137 47.607-1.029-11.758 76.83zm19.126-77.985l-56.357 1.21-.479-2.877 56.955-1.373-.119 3.04zM77.487 61.269l-5.444-.07a.5.5 0 00-.5.487l-.035 1.3-1.716-.046.037-1.375a.499.499 0 00-.493-.513c-6.726-.1-6.341-.131-6.518-.02L57.685 64.5a.5.5 0 00.561.828l4.308-2.915-.095 3.525a.5.5 0 00.482.514l6.264.234a.5.5 0 00.5-.486l.06-2.264 1.716.046-.059 2.2a.5.5 0 00.481.514l5.453.212a.5.5 0 00.5-.486l.124-4.638a.5.5 0 00-.493-.515zm-14.014 4.2l.094-3.51 5.248.08-.1 3.628-5.242-.198zm13.4.418l-4.435-.172.092-3.515 4.437.059-.094 3.628z"/><path fill="#0e2238" d="M65.448 63.761c-.033 1.252.808 1.338 1.113.72a1.658 1.658 0 00-.116-1.621c-.368-.387-.969-.068-.997.901zm8.587-.693c-.367-.386-.97-.07-1 .9-.013.482.165 1.094.617 1.094.694 0 .86-1.493.383-1.994z"/></svg>