<svg xmlns="http://www.w3.org/2000/svg" fill="none" viewBox="0 0 200 200" height="700" width="700"><path fill="#def6f8" fill-rule="evenodd" d="M5.061 88.3H195c-3.361 5.73-8.369 8.47-20.927 11.058-12.558 2.588-9.384 10.15-16.68 15.349-7.296 5.199-16.949 0-28.458 0-11.509 0-16.694 10.619-28.9 10.311-12.206-.308-13.173-6.771-26.219-7.511-13.046-.74-13.75 7.243-26.376 11.149-12.626 3.906-14.186-4.2-19.467-8.267-5.281-4.067-5.162-13.141-15.141-17.026-9.042-3.522-7.771-15.062-7.771-15.062z" clip-rule="evenodd"/><path fill="#0e2238" d="M28.947 119.647c-5.367-4.138-8.626-12.822-15.635-15.543a12.427 12.427 0 01-6.018-4.874.5.5 0 11.837-.547 11.445 11.445 0 005.543 4.489c7.351 2.854 10.661 11.656 15.883 15.682 5.427 4.185 5.481 13.113 17.732 9.32C59.809 124.3 60.556 116.26 73.84 117c13.072.742 14.992 6.528 27 6.831 10.051.3 14.352-5.75 22.8-8.712a15.722 15.722 0 015.292-.919c11.531 0 21.091 5.134 28.168.092 7.149-5.092 4.032-12.786 16.869-15.43 3.8-.784 6.667-1.489 9.006-2.216a.502.502 0 01.3.955c-2.371.737-5.263 1.449-9.1 2.239-12.3 2.537-9.028 9.95-16.491 15.267-7.517 5.357-17.244.093-28.748.093a14.767 14.767 0 00-4.961.862c-8.3 2.912-12.7 9.025-23.159 8.769-12.365-.312-14.084-6.1-27.031-6.833-12.788-.709-13.537 7.211-26.2 11.128-13.011 4.026-13.485-5.512-18.638-9.479z"/><path fill="#00bac7" fill-rule="evenodd" d="M64.429 124.362L47.6 79.41l-28.13 7.064-3.984 3.327 19.1 54.626 104.577 24.349 24.47-24.348v-5.225l-99.204-14.841z" clip-rule="evenodd"/><path fill="#0e2238" d="M163.988 138.855a.499.499 0 00-.707-.006L139.158 162.6l-99.785-23.571 27.153-14.491a.502.502 0 00-.09-.92.496.496 0 00-.381.037L38.249 138.5 19.941 86.319a.5.5 0 00-.944.332l18.5 52.726c.089.1.15.272.357.321L138.8 163.541l-.123 4.61L34.966 144 16.072 89.964 17.8 88.52a.499.499 0 00-.09-.828.5.5 0 00-.552.06l-1.99 1.666a.5.5 0 00-.151.549l19.1 54.626a.503.503 0 00.359.322l104.46 24.322c.1-.027.674.321.734-.622l.141-5.253 24.175-23.8a.503.503 0 00.002-.708z"/><path fill="#fff" fill-rule="evenodd" d="M152.233 119.143S143.6 67.437 149.1 48.791l4.622-.4s3.95 38.55 8.668 47.265c4.718 8.715 9.122 14.5 10.485 23.064-2.534 0-3.649 1.93-4.781 2.058-2.847.322-4.858-2.443-6.665-2.44-1.375 0-4.316 2.313-5.972 3.3-2.571 1.523-3.224-2.495-3.224-2.495z" clip-rule="evenodd"/><path fill="#0e2238" d="M69.207 96.327c-.164 0-.2.011-.378.419a2.065 2.065 0 01-1.18 1.255 1.535 1.535 0 01-1.2-.028 2.363 2.363 0 01-1.078-1.257.5.5 0 01.939-.343c.037.1.363.922.988.69.337-.125.454-.355.617-.721a1.359 1.359 0 011.291-1.01c1.363 0 2.155 2.573 3.766 2.134 1.727-.459 1.608-1.591 3.362-1.419a.502.502 0 01-.093 1 1.2 1.2 0 00-1.144.4 4.277 4.277 0 01-1.867.994c-2.239.578-3.393-2.114-4.023-2.114zm101.655-3.199c-.163 0-.2.012-.377.419A2.067 2.067 0 01169.3 94.8a1.785 1.785 0 01-2.277-1.284.497.497 0 01.297-.642.501.501 0 01.642.298c.036.1.367.924.989.69.336-.124.453-.355.616-.72a1.362 1.362 0 011.291-1.012c1.361 0 2.149 2.57 3.766 2.136 1.739-.463 1.594-1.584 3.362-1.42a.5.5 0 01.452.545.507.507 0 01-.545.452 1.199 1.199 0 00-1.144.4 4.304 4.304 0 01-1.867.994c-2.222.58-3.396-2.11-4.02-2.11zm-38.086 15.329c-2.376 0-2.835-2.449-4.816-3.123-1.689-.576-4.364 1.049-5.254 1.724a.497.497 0 01-.7-.1.497.497 0 01.1-.7c.148-.112 3.655-2.735 6.181-1.874 2.449.835 2.722 3.4 4.926 3.032 2.365-.391 4.283-3.942 7.582-3.435a2.628 2.628 0 012.375 2.009c.307.814.528 1.4 2.271 1.458a.504.504 0 01.349.157c.09.097.139.226.135.358a.51.51 0 01-.516.485c-2.41-.078-2.834-1.2-3.175-2.106a1.681 1.681 0 00-1.586-1.373c-3.018-.436-4.783 3.486-7.872 3.488zM128.277 98.3a2.963 2.963 0 01-2.458-1.477c-.465-.6-.719-.883-1.341-.84-1.439.114-2.8 2.228-4.931 1.72a1.832 1.832 0 01-1.5-1.5c-.14-.5-.217-.775-1.167-.888a.503.503 0 01-.46-.558.512.512 0 01.196-.34.5.5 0 01.382-.094c1.49.176 1.8.861 2.012 1.608.124.442.186.662.769.8 1.59.376 2.868-1.606 4.623-1.742 1.892-.15 2.1 1.688 3.276 2.2.935.414 2.6-.42 3.165-.775a.5.5 0 01.533.846 6.743 6.743 0 01-3.099 1.04z"/><path fill="#0e2238" d="M174.4 117.965c-.413.052-.788.109-1.135.171-1.479-8.426-5.9-14.328-10.438-22.72-4.617-8.527-8.572-46.692-8.611-47.077a.499.499 0 00-.54-.447l-4.622.4a.501.501 0 00-.436.357c-5.474 18.543 2.765 68.46 3.118 70.575a.501.501 0 00.987-.164c-.086-.514-8.456-51.2-3.241-69.8l3.79-.328c.495 4.706 4.2 38.692 8.675 46.962 4.539 8.382 8.905 14.227 10.34 22.45-3.255.8-2.975 2-4.988 2-2.413 0-3.493-3.23-6.783-2.363a12.478 12.478 0 00-5.432 3.318.503.503 0 00.032.707.503.503 0 00.707-.033 11.658 11.658 0 014.947-3.025c2.718-.71 3.654 2.4 6.529 2.4s1.885-1.719 7.224-2.384a.498.498 0 00.237-.884.502.502 0 00-.36-.108v-.007zm-31.256 6.924a2.336 2.336 0 00-3.249-.346 2.752 2.752 0 00-1.946-.691 2.965 2.965 0 00-3.039 2.779.5.5 0 00.46.54.5.5 0 00.54-.46c.036-.513.268-.992.649-1.338.38-.347.879-.533 1.393-.521a1.768 1.768 0 011.853 1.819c0 .133.053.26.146.354a.504.504 0 00.708 0 .504.504 0 00.146-.354 3.162 3.162 0 00-.307-1.317c.905-.5 1.478-.325 1.87.162a.498.498 0 00.701.074.502.502 0 00.078-.701h-.003zM175.7 133.5a3.03 3.03 0 01-2.066-.7 1.04 1.04 0 01-.431-1.166c.322-.9 2.228-1.1 3.336-1.142a.516.516 0 01.518.481.5.5 0 01-.48.519c-.511.019-2.659.224-2.279.56.982.871 2.976.237 3.662-.079a.501.501 0 01.421.906 7.132 7.132 0 01-2.681.621zM40.25 166.75a.5.5 0 01-.313-.89 4.067 4.067 0 014.667-.1.507.507 0 01.233.513.503.503 0 01-.59.405.49.49 0 01-.182-.076 3.049 3.049 0 00-3.506.038.504.504 0 01-.309.11zm22.333-4.088a.5.5 0 01-.327-.878 3.057 3.057 0 013.55-.18.503.503 0 01.163.689.497.497 0 01-.688.163 2.057 2.057 0 00-2.377.089.497.497 0 01-.321.117zm104.234-.007a.498.498 0 01-.469-.671c.03-.086.782-2.1 2.488-2.454 1.158-.248 2.405.345 3.712 1.734a.498.498 0 01-.021.707.504.504 0 01-.707-.021c-1.052-1.119-1.99-1.607-2.778-1.442-1.159.236-1.75 1.8-1.755 1.819a.5.5 0 01-.47.328zM17.2 113.544a.504.504 0 01-.473-.337c-.068-.2-1.738-4.837-6.744-4.046a4.754 4.754 0 01-4.244-.952 4.944 4.944 0 01-1.192-3.835.498.498 0 01.556-.421.502.502 0 01.436.544 3.995 3.995 0 00.9 3 3.834 3.834 0 003.39.677c5.853-.928 7.826 4.654 7.845 4.71a.5.5 0 01-.474.66zm35.021 54.548a.497.497 0 01-.468-.321.501.501 0 01.134-.552 2.14 2.14 0 012.532-.137.502.502 0 01.042.843.507.507 0 01-.566.008 1.132 1.132 0 00-1.341.032.499.499 0 01-.333.127zm98.194 5.187a.496.496 0 01-.485-.376.498.498 0 01.245-.563c.119-.065 2.946-1.585 4.79-.46a.497.497 0 01-.143.913.496.496 0 01-.378-.059c-1.122-.686-3.116.117-3.79.484a.5.5 0 01-.239.061z"/><path fill="#fff" fill-rule="evenodd" d="M32.968 87.752s-7.64 5.49-13.506 4c0 0 1.646 4.76 3.082 6.473 0-.001 10.577.245 10.424-10.473zm.194 6.904s-4.663 5.99-11.368 8.233c0 0 .147 5.215 4.955 6.317 0 0 6.563-7.611 8.033-12.939l-1.62-1.61z" clip-rule="evenodd"/><path fill="#0e2238" d="M22.622 98.725a.53.53 0 01-.461-.18c-1.478-1.763-3.1-6.432-3.171-6.63a.5.5 0 01.6-.648c5.573 1.416 13.01-3.867 13.086-3.92a.5.5 0 01.792.4 10.419 10.419 0 01-2.823 7.878 12.106 12.106 0 01-8.023 3.1zm-2.387-6.312c.646 1.86 1.5 3.641 2.548 5.308a11.181 11.181 0 007.164-2.81 9.064 9.064 0 002.5-6.21c-2.022 1.3-7.453 4.4-12.212 3.712z"/><path fill="#def6f8" fill-rule="evenodd" d="M56.718 75.473s-1.385-10.24-11.581-7.979c-8.687 1.926-9.8 7.4-9.3 10.423.5 3.023 1 2.983 1 2.983s-11.551 3.361-11.957 7.87c-.227 2.53 13.069 2.268 23.857-1.586 10.788-3.854 19.236-7.019 18.588-9.415-.901-3.33-10.607-2.296-10.607-2.296z" clip-rule="evenodd"/><path fill="#0e2238" d="M28.563 90.781c-2.183 0-3.686-.367-4-1.284a3.036 3.036 0 01.213-2.4c1.863-3.74 10.52-6.673 11.029-6.842a10.275 10.275 0 00-.275-1.663c-.546-2.428-.8-8.395 8.588-11.362 4.748-1.5 8.925-.416 11.175 2.9a11.009 11.009 0 011.907 4.712c2.4-.1 9.628-.222 10.564 2.1a1.777 1.777 0 01-.079 1.48c-1.041 2.188-6.464 4.77-16.578 7.893-5.718 1.77-16.628 4.465-22.544 4.466zm7.362-9.5c-3.262 1.14-11.522 4.623-10.411 7.9.542 1.595 12.562.12 25.3-3.813 12.076-3.73 15.35-6.066 15.971-7.368 1.1-2.313-7.424-2.275-10.015-2.13a.5.5 0 01-.528-.5 9.326 9.326 0 00-1.773-4.672c-1.988-2.928-5.743-3.864-10.047-2.507-8.29 2.62-8.516 7.51-7.913 10.19.476 2.12.338 2.643-.084 2.868a.614.614 0 01-.5.028v.004z"/><path fill="#fff" fill-rule="evenodd" d="M51.138 95.5s.418-2.484 3.582-.535c2.783 1.714 6.851 3.53 9.477 5.3 2.155 1.45 5.8 8.407 8.409 11.5a51.988 51.988 0 019.7-5.12c.761-.256 5.19-1.009 5.744-.413 1.362 1.46-1.116 5.767-2.424 8.263-1.1 2.107-5.712 2.893-6.124 3.094-1.1.535-9.5 3.431-9.5 3.431S51.712 97.339 51.138 95.5z" clip-rule="evenodd"/><path fill="#def6f8" fill-rule="evenodd" d="M43.21 105.288c-.431.218 1.575 13.441 4.933 22.209 2.78 2.622 7.348 6.593 8.777 7.586 0 0 8.4-6.048 16.083-11.383 1.053.191-4.442-6.176-9.844-13.063 0 0 1.7-3.806-.618-6.395-2.318-2.589-11.982-10.707-11.982-10.707L39.9 94.962l3.31 10.326z" clip-rule="evenodd"/><path fill="#00bac7" d="M49.321 101.608a.5.5 0 00-.7.069l-1.876 2.286a.5.5 0 00.241.796c.063.019.129.026.194.019a.492.492 0 00.338-.18l1.877-2.286a.501.501 0 00-.074-.704zm2.761 24.846a.493.493 0 00-.322-.218.49.49 0 00-.38.078.508.508 0 00-.21.328.499.499 0 00.088.378l1.675 2.436a.507.507 0 00.322.218.509.509 0 00.38-.078.504.504 0 00.204-.525.502.502 0 00-.082-.181l-1.675-2.436zm-.412-11.855a.5.5 0 00.16-.974l-2.8-.948a.498.498 0 00-.604.694.5.5 0 00.283.253c.962.397 1.951.723 2.961.975zM55.164 99.8h2.957a.5.5 0 000-1h-2.957a.5.5 0 000 1zm-9.595-2.644a.5.5 0 00-.568.42l-.433 2.926a.5.5 0 10.99.147l.433-2.926a.5.5 0 00-.422-.567zm9.517 10.643l-2.921.459a.501.501 0 10.155.989l2.922-.459a.501.501 0 10-.156-.989zm10.745 20.566l-2.181-2a.492.492 0 00-.364-.142.5.5 0 00-.31.88l2.181 2a.508.508 0 00.364.142.5.5 0 00.31-.88zm-.889-13.539a.503.503 0 00.522-.479.5.5 0 00-.479-.521l-2.585-.225a.512.512 0 00-.542.454.5.5 0 00.455.542s2.615.229 2.629.229zm-1.631-7.61a.5.5 0 00.412-.783l-1.676-2.434a.493.493 0 00-.322-.218.49.49 0 00-.38.078.508.508 0 00-.204.526.498.498 0 00.082.18l1.677 2.434a.499.499 0 00.411.217zm-3.69 2.753l-1.876 2.285a.5.5 0 10.772.635l1.876-2.285a.504.504 0 00.066-.561.508.508 0 00-.3-.247.508.508 0 00-.387.043.503.503 0 00-.151.13zm-1.876 18.888l-1.877 2.285a.505.505 0 00-.055.554.5.5 0 00.296.243c.063.019.129.025.194.019a.51.51 0 00.338-.181l1.876-2.285a.498.498 0 00-.235-.807.509.509 0 00-.387.043.514.514 0 00-.15.129z"/><path fill="#0e2238" fill-rule="evenodd" d="M56.605 80.5s2.543.014 2.8 1.377c.257 1.363-.631 1.531-.631 1.531s3.576-.208 3.026 1.35a2 2 0 01-2.34 1.155 3.583 3.583 0 011.556 2.7c-.017 1.661-2.558.574-2.558.574s2.639 2 1.255 3.192c-1.384 1.192-2.808-.657-2.808-.657s.8 2.888-.72 3.286a2.475 2.475 0 01-2.43-.63s.581.841-.975 1.36c-1.556.519-2.4-1.746-2.4-1.746s-2.469 1.741-2.531-.575c-.062-2.316 8.756-12.917 8.756-12.917z" clip-rule="evenodd"/><path fill="#0e2238" d="M52.379 96.237c-1.2 0-1.995-1.322-2.293-2.475a.5.5 0 11.968-.251 3.005 3.005 0 001.012 1.644.669.669 0 00.562.038c.674-.225.817-.465.845-.533a.549.549 0 01.2-.692.508.508 0 01.68.11 1.582 1.582 0 001.71.448c.792-.208.573-1.921.365-2.669a.5.5 0 01.878-.44c.328.43.794.735 1.321.861A.977.977 0 0059.39 92a.548.548 0 00.228-.466c-.023-.708-1.087-1.668-1.458-1.95a.5.5 0 01.5-.858c.507.216 1.412.438 1.735.226.323-.212.116-1.68-1.206-2.624a.5.5 0 01.387-.905 1.478 1.478 0 001.758-.833c.056-.159.017-.21 0-.237-.282-.374-1.645-.5-2.523-.452a.489.489 0 01-.525-.439.5.5 0 01.4-.551c.051-.015.383-.149.231-.947-.149-.776-1.762-.964-2.317-.964a.5.5 0 01.005-1c.3 0 2.964.065 3.292 1.782a2.39 2.39 0 01-.023 1.137 3.206 3.206 0 012.251.837 1.2 1.2 0 01.149 1.169 2.181 2.181 0 01-1.6 1.456c1.173 1.452 1.285 3.637-.67 3.66.894 1.2.711 2.134.033 2.72a2.018 2.018 0 01-2.43.217c.059 1.122-.221 2.238-1.3 2.518a2.673 2.673 0 01-2.048-.211 2.68 2.68 0 01-1.88.952z"/><path fill="#0e2238" d="M56.533 140.864A28.12 28.12 0 0149 129.243a.503.503 0 01.338-.636.506.506 0 01.538.181c.04.054.069.115.085.181a27.185 27.185 0 006.837 10.787c1.73-2.207 9.668-12.045 16.388-15.612-1.251-1.874-6.086-8.979-10.376-13.143a.503.503 0 01-.123-.525c.014-.038 1.324-3.872-.765-6.2a51.934 51.934 0 00-9.409-8.194.5.5 0 01.535-.846 51.96 51.96 0 019.619 8.372c2.132 2.381 1.363 5.843 1.06 6.9 4.977 4.926 10.544 13.481 10.6 13.569a.5.5 0 01-.2.721c-7.308 3.56-16.773 15.881-16.868 16a.502.502 0 01-.726.066z"/><path fill="#fff" fill-rule="evenodd" d="M91.508 112.7a145.218 145.218 0 00-27.892 17.727c-8.025 6.434-9.905 6.662-9.905 6.662s7.255 11.86 19.8 5.117c.643-.345 2.083-.757 2.8-1.2a29.947 29.947 0 008.771-3.92c2.494-1.686 8.544-5.788 12.737-11.863 1.48 2.177 4.74 6.356 7.493 7.953 5 2.9 11.981 5.741 13.8 8.7 1.819 2.959-1.058 6.691 2.087 7.6 3.145.909 3.177-.961 8.189.2 2.738.635 3.511 1.594 5.565.857 0 0 1.653 2.638 3.405.719a1.299 1.299 0 00.984.004 1.281 1.281 0 00.699-.693 1.452 1.452 0 001.472-.916 1.328 1.328 0 001.071-.342 1.318 1.318 0 00.421-1.042c.4-.011.677.184 1.163-.274a2.516 2.516 0 00.5-2.978 3.107 3.107 0 00-1.883-1.841c-1.715-.787-2.547-1-8.095-3.708s-8.248-4.749-11.195-9.248c-4.216-6.437-14.063-20.218-18.229-23.7-2.399-1.999-5.537.814-13.758 6.186zM40.509 96.438a14.515 14.515 0 00-2.645 3.483c-1.9 3.206-3.373 5.946-2.066 9.275 2.6 6.63 2.809 18.385 8.926 19.163 4.761.606 25.053-9.2 29.056-11.812s4.593-1.334 5.353-2.413c.76-1.079-3.937-1.065-3.937-1.065s.544-.95 4.154-1.129c3.61-.179 3.112.228 2.562-.678-.55-.906-3.906-1.9-6-1.151a7.07 7.07 0 013.437-.941c2.423-.191 4.976.454 4.776-1-.241-1.758-4.752-2.527-8.213-1.581 0 0 2.04-.214 5.235-.286 3.195-.072 2.078-1.213.764-1.818a6.3 6.3 0 00-6.462.375c-2.81 1.945-4.953 7.375-7.383 9.244-2.124 1.633-14.647 2.487-19.927 4.913l-3.791-10.847s.162-5.181-3.839-11.733z" clip-rule="evenodd"/><path fill="#fff" fill-rule="evenodd" d="M42.536 88.468l.691 6.5c1.266 2.625 4.475 6.414 8.265 6.1 3.79-.314-1.588-5.6-1.588-5.6l.641-1.933c4.177.681 7.013-5.122 7.649-7.746.335-1.384 0-2.013-.684-3.724-.61-1.527.309-2.654-.223-5a18.549 18.549 0 00-1.78-3.985c-2.623 0-5.228.422-7.718 1.247C33.8 79.44 37.717 85.015 37.477 84.4c1.896 3.507 4.758 3.465 5.059 4.068z" clip-rule="evenodd"/><path fill="#0e2238" d="M53.082 86.68c-.258-.05-.614-.114-.691-.041a.5.5 0 11-.686-.726c.8-.76 2.018.19 2.761-.251.374-.222-.107-1.254-.34-1.621a.5.5 0 11.844-.538c.626.989 1.023 2.419 0 3.02a2.563 2.563 0 01-1.888.157zm-.134 2.791a5.4 5.4 0 01-2.371-.675.502.502 0 01.315-.93.5.5 0 01.185.062c.727.44 1.589.603 2.426.458a1.306 1.306 0 00.777-.828.5.5 0 01.932.361 2.277 2.277 0 01-2.264 1.552zm-5.112-9.108a.5.5 0 01-.357-.85 4.358 4.358 0 013.812-.826.503.503 0 01.409.577.499.499 0 01-.577.409 3.414 3.414 0 00-2.937.548.5.5 0 01-.35.142zm7.079-1.943c.993-.34 2.732-.765 3.03.24a.5.5 0 01-.917.381 4.873 4.873 0 00-1.79.324.5.5 0 01-.323-.946zm-28.278 31.273c-5.126-1.175-5.341-6.734-5.343-6.79a.5.5 0 01.341-.488c6.487-2.17 11.086-8.007 11.132-8.066a.5.5 0 01.747-.048l1.621 1.612a.5.5 0 01.129.487c-1.483 5.375-7.866 12.818-8.137 13.132a.496.496 0 01-.49.161zm-4.314-6.458c.126 1.116.79 4.448 4.245 5.409 1.08-1.289 6.241-7.609 7.651-12.23L33.2 95.4a27.685 27.685 0 01-10.877 7.835zM49.25 83.786c.348 0 .634-.416.638-.935.004-.519-.276-.942-.624-.945-.348-.003-.634.416-.638.936-.004.52.274.941.624.944zm6.47-.201c.349 0 .635-.416.638-.935.003-.519-.275-.943-.623-.945-.348-.002-.634.416-.638.935-.004.52.275.942.623.945z"/><path fill="#0e2238" fill-rule="evenodd" d="M35.275 80.815c.606-.329.67-.853 1.209-1.137 10.19-3.72 10.135-3.29 10.135-3.29.28.617.418 1.288.406 1.964-.14.7-2.192 1.71-2.192 1.71s.9.337.72 1.115c-.18.778-2.27 1.442-2.27 1.442s.876.711.358 1.467c-.518.756-.979 1.266-1.517.331-.538-.935-2.008-2.556-3.206-.832C37.72 85.31 40.74 87.932 42 87.341c1.26-.59 2.887-.842 2.676.264a.927.927 0 01-1.144.86s1.484.4 1.115 1.474a.962.962 0 01-1.363.612s1.588.88 1.111 1.993a.955.955 0 01-1.014.643s1.169.01 1.2.965c.031.956-2.02 1.011-2.02 1.011s1.054 1.745-.088 2.166a1.992 1.992 0 01-1.929-.252s.2 1.02-.561 1.416c-.761.397-1.748-.407-1.748-.407a1.71 1.71 0 01-1.749.85 1.226 1.226 0 01-1.1-1.465 1.886 1.886 0 01-1.931.9c-1.314-.225-1.107-1.825-1.107-1.825s-1.444 1.558-2.411.273a1.26 1.26 0 01.475-1.99s-1.852 1.012-2.117.01c-.265-1.004 1.266-1.725 1.266-1.725s-1.776.437-1.467-.7c.309-1.137 3.313-2.114 3.313-2.114s-3.755.967-3.658-.476c.097-1.443 2.513-1.509 2.513-1.509s-2.018-.68-1.129-1.547a3.993 3.993 0 012.375-.907 1.41 1.41 0 01.143-1.852c.89-.825 3.035-.44 3.035-.44s-.986-1.896.589-2.754z" clip-rule="evenodd"/><path fill="#0e2238" d="M83.112 106.594a.971.971 0 00.492-.69c.153-.836-.813-1.713-1.538-1.9-.131-.033-.29-.086-.476-.146-5.6-1.819-7.8 1.284-11.1 6.225a21.246 21.246 0 01-2.757 3.638c-1.865 1.643-13.9 2.219-19.3 4.406l-3.592-10.059a28.212 28.212 0 00-3.215-11.035.5.5 0 10-.888.459 27.42 27.42 0 013.106 10.682c0 .118-.221-.566 3.6 10.144-1.785.042-2.834.25-3.114.623a.5.5 0 00.729.677c1-.298 2.047-.403 3.086-.309a.484.484 0 00.245-.073c5.274-2.4 17.687-2.721 20.006-4.765 2.073-1.827 4.636-7.338 7.338-9.208 2.575-1.784 4.948-.582 6.086-.289a1.308 1.308 0 01.807.727s-.223.229-1.376.1a7.269 7.269 0 00-5.595.348.498.498 0 00-.197.629.502.502 0 00.597.278c1.631-.4 3.323-.492 4.988-.272 1.008.267 1.926.8 2.656 1.545-.413.462-3.995.254-5.714.39-1.388.108-2.172.391-2.469.887-.33.552.058 1.147.561.968 1.963-.706 4.855.159 5.3.743-1.786.3-6.248-.173-6.753 1.226-.2.565.32 1.105.575 1.018a11.321 11.321 0 013.462.367c-.461.5-1.51-.183-5.156 2.191-4.3 2.8-24.9 13.332-28.963 11.657-5.254-2.18-5.374-11.249-7.966-17.854-1.119-2.85-.7-5.678 1.367-9.167.532-.9 1-1.406 1.4-2.077a.5.5 0 00-.861-.51c-.356.6-.87 1.183-1.4 2.077-2.236 3.781-2.68 6.877-1.438 10.042 2.629 6.7 2.662 15.985 8.515 18.413 4.742 1.963 25.692-9.008 29.891-11.743 4.109-2.673 4.528-1.163 5.522-2.574a.815.815 0 00.085-.869c-.312-.593-1.568-.836-2.92-.918.3-.039.669-.073 1.13-.1 3.248-.159 4.17-.03 4.519-.678a1.008 1.008 0 00-.133-.991 3.544 3.544 0 00-1.982-1.171c2.336-.008 3.793-.053 4.265-.78.554-.836-.527-1.765-1.425-2.282z"/><path fill="#0e2238" d="M71.122 110.549a.501.501 0 01-.434-.25c-2.237-3.878-6.574-9.517-8-10.4-2.706-1.676-5.189-3.415-8.906-4.29a.499.499 0 11.228-.972c3.9.917 6.471 2.718 9.2 4.412 1.715 1.065 6.152 6.961 8.34 10.753a.498.498 0 01-.428.747zm11.388-3.34a.504.504 0 01-.493-.443.499.499 0 01.379-.543c.09-.021 2.24-.522 4.551-.8a.498.498 0 01.371.1.492.492 0 01.185.338.5.5 0 01-.438.554c-2.683.323-4.347.794-4.555.794zm60.013 35.359c-2.767-1.489-1.555-1.3-7.362-3.419-5.59-2.037-7.972-5.055-11.268-9.232-3.207-4.062-13.186-19.022-18.281-23.757a.5.5 0 10-.681.732c5 4.643 14.939 19.542 18.177 23.645 3.4 4.305 5.853 7.417 11.71 9.551 5.677 2.069 4.439 1.856 7.232 3.361.463.249.913.492 1.306.739-2.124-.1-2.483.547-5.807-.623-1.025-.361-2.062-.862-3.26-1.405-2.619-1.188-5.4-2.115-7.75-3.654-1.753-1.148-17.068-18.224-21.948-25.223a25.948 25.948 0 00-3.525-4.29 3.47 3.47 0 00-2.7-1.051c-3.815.522-22.661 12.969-28.866 17.69-3.4 2.587-13.219 9.081-14.051 10.117-.347.457-.658.94-.931 1.444-.173.3-.41.362.863 1.92 1.507 1.844 6.974 7.678 14.078 5.292a39.991 39.991 0 006.428-2.864 41.818 41.818 0 0010.54-4.72 43.152 43.152 0 0011.438-10.782c1.663 2.685 4.371 6.033 7.216 7.581 4.511 2.454 10.547 4.968 12.8 7.178a4.41 4.41 0 011.418 3.142c.02 1.189-.769 4.107.692 5.343 2.017 1.7 4.506.336 6.516.391 4.4.168 5.809 2.072 8.419 1.358 1.07 1.382 2.519 1.9 3.787.7.357.09.733.06 1.071-.085.339-.144.621-.395.803-.715a1.565 1.565 0 001.322-1.05c1.072-.037 1.578-.587 1.657-1.242a1.26 1.26 0 00.155-.058 2.612 2.612 0 001.8-1.667c.951-2.356-1.814-3.715-2.998-4.347zm-56.657-6.575A33.23 33.23 0 0180.058 139a70.423 70.423 0 008.491-6.706c2.189-2.028 6.087-5.743 8.268-8 .135.233.3.513.479.811a41.95 41.95 0 01-11.43 10.888zm58.724 10.553c-.277.684-.484.789-1.211 1.1-.244-1.707-2.314-2.186-3.417-2.167a.498.498 0 00-.497.503.495.495 0 00.502.497c.034 0 2.437.014 2.459 1.466a.499.499 0 00.142.339c.03.373-.015.579-.706.6a3.132 3.132 0 00-1.014-1.484 3.13 3.13 0 00-1.662-.685.5.5 0 00-.1.994c.017 0 1.613.184 1.852 1.542a.448.448 0 00.047.128.508.508 0 01-.128.382.35.35 0 01-.068.048c-.384-1.406-2.279-1.833-2.367-1.853a.497.497 0 00-.52.764.499.499 0 00.316.215c.016 0 1.544.353 1.643 1.27-.021.031-.056.049-.069.085a.701.701 0 01-.839.474 2.744 2.744 0 00-2.183-1.456.51.51 0 00-.546.45.513.513 0 00.019.195.513.513 0 00.244.295c.058.031.122.05.187.056.011 0 1 .118 1.318.729a1.197 1.197 0 01-.882.363c-.7-.062-1.363-.9-1.56-1.216a.506.506 0 00-.6-.206c-2.357.868-3.589-1.109-8.4-1.3-2.115-.067-4.326 1.184-5.91-.155-.968-.819-.318-3.425-.337-4.595a5.373 5.373 0 00-1.718-3.841c-1.791-1.755-5.857-3.721-8.755-5.159-5.032-2.492-6.387-2.9-10.18-7.989-.6-.811-2.093-3.334-2.279-3.694a.509.509 0 00-.372-.266c-.591-.076.009.128-9.125 8.588-2.853 2.644-10.389 9.095-18.73 11.894-7.341 2.462-12.831-4.714-13.672-5.913.223-.409.477-.8.76-1.17.67-.834 10.68-7.513 13.877-9.947 6.81-5.182 24.99-17.028 28.395-17.5a2.554 2.554 0 011.867.775c2.372 2.327 2.948 3.65 5.067 6.459 4.61 6.105 18.636 21.917 20.558 23.176 2.5 1.635 5 2.407 8.608 4.059a19.213 19.213 0 005.451 1.829c1.382.171 2.918-.263 4.132.084.313.091.546.891.403 1.237z"/><path fill="#fff" fill-rule="evenodd" d="M36.281 79.938c-.038-.258 12.256-4.9 20.356-4.873a35.85 35.85 0 00-1.031-3.458s-7.857-.748-19.97 5.365l.645 2.966z" clip-rule="evenodd"/><path fill="#00bac7" fill-rule="evenodd" d="M85.663 112.588l6.646-30.743 26.624-6.363-7.427 32.018-25.347 8.287-22.738 9.645-.965-2.951 23.207-9.893z" clip-rule="evenodd"/><path fill="#0e2238" d="M116.066 87.814a.499.499 0 00-.6.374l-4.383 18.921L86 115.308l.135-2.573 5.258-24.328a.5.5 0 00-.977-.211l-5.211 24.139-22.944 9.666a.497.497 0 00-.281.616l.966 2.95a.501.501 0 00.671.305c23.688-10.057 21.816-9.326 21.994-9.383l26.051-8.516a.504.504 0 00.332-.362l4.446-19.195a.503.503 0 00-.374-.602zm-52.992 34.929l22.014-9.274-.115 2.191-21.246 9.077-.653-1.994z"/><path fill="#fff" fill-rule="evenodd" d="M132.575 167.249l-7.415-1.727-12.218 17.1-71.933-61.03L13.9 160.341l4.639 2.922 23-32.187 71.105 58.242 19.931-22.069z" clip-rule="evenodd"/><path fill="#0e2238" d="M112.646 189.817c-.274 0 2.841 2.473-71.009-58.016l-22.69 31.752a.501.501 0 01-.673.132l-4.639-2.923a.496.496 0 01-.224-.324c-.065-.325-1.785 2.469 27.188-39.135a.5.5 0 01.733-.095l71.52 60.679 11.9-16.657a.508.508 0 01.52-.2l7.415 1.726a.506.506 0 01.364.338.494.494 0 01-.106.484l-19.929 22.07a.486.486 0 01-.37.169zm-71.1-59.241c.274 0-2.8-2.437 71.053 58.052l19.041-21.086-6.263-1.459-12.023 16.828a.501.501 0 01-.345.205c-.333.047 4.178 3.756-71.9-60.79L14.612 160.2l3.8 2.391c24.078-33.704 22.727-32.015 23.129-32.015h.005zM58.038 82.79c-.616-1.548-.017-1.94.035-3.911a12.198 12.198 0 00-.823-3.645h-.056a.477.477 0 00.018-.294 23.527 23.527 0 00-1.126-3.49.5.5 0 00-.307-.2c-.3-.058-7.49-1.393-20.16 5.423a.5.5 0 00-.259.512l.359 2.493a3.548 3.548 0 00-1.979 2.677c.007.225.048.448.121.66a3.2 3.2 0 00-2.7.364 1.842 1.842 0 00-.522 1.9c-1.676.327-3.142 1.5-1.967 2.62a2.04 2.04 0 00-1.572 1.719c-.041.612.322 1.158 1.362 1.292-.457.278-.809.7-1 1.2a1 1 0 00.552 1.287c-.771.966-.414 2.3.951 2.2a1.928 1.928 0 001.661 2.05 2.13 2.13 0 001.149-.315 2 2 0 003.108 1.028 1.484 1.484 0 001.452.9 2.539 2.539 0 001.9-.592 1.6 1.6 0 002.56-1c.869.286 2.158.1 2.478-.812.054-.17.077-.348.069-.526 1.416 2.282 4.163 5.26 7.637 5.26.923 0 1.906-.192 2.225-1.059.58-1.585-1.861-4.3-2.744-5.214l.329-1.257c.192.032.385.052.579.06 3.222 0 5.324-3.663 6.659-6.535a5.178 5.178 0 00.011-4.794zM55.334 72.2c.152.42.447 1.385.733 2.376-7.106.09-16.913 3.572-19.424 4.508L36.4 77.39c10.848-5.761 17.586-5.355 18.934-5.19zM42.4 94.49a.5.5 0 00-.413.759c.253.376.375.825.347 1.277-.019.056-.055.113-.18.16a1.506 1.506 0 01-1.432-.163.5.5 0 00-.824.405s.017.782-.44 1.02c-.4.212-1.009-.383-1.009-.383a.489.489 0 00-.859.308c-.021.107-.288.387-1.251.387a.53.53 0 01-.447-.154 1.1 1.1 0 01-.158-.738.5.5 0 00-.931-.317 1.378 1.378 0 01-1.41.649c-.807-.138-.708-1.153-.7-1.266a.5.5 0 00-.862-.4c-.513.552-1.193.914-1.646.31a.833.833 0 01-.221-.665c.085-.238.257-.436.481-.553a.5.5 0 10-.477-.88c-.46.24-1.1.43-1.341.293-.13-.493.753-1.027 1-1.143a.5.5 0 00-.333-.937 2.134 2.134 0 01-.883.046c-.1-.51 1.531-1.417 3-1.9a.5.5 0 00.325-.615.506.506 0 00-.605-.345c-1.169.3-2.655.428-3 .139-.021-.018-.035-.03-.03-.1.064-.94 2.009-1.042 2.029-1.042a.5.5 0 00.145-.974 2.165 2.165 0 01-1.016-.616.36.36 0 01.076-.1 3.508 3.508 0 012.041-.766.5.5 0 00.4-.775 1.03 1.03 0 01.066-1.3c.458-.425 1.943-.158 2.851.166a.5.5 0 00.555-.788 2.334 2.334 0 01-.508-1.157 2.787 2.787 0 011.738-1.921.5.5 0 00.277-.306 98.41 98.41 0 019.367-2.947c.264.31.519.72.475.94a6.815 6.815 0 01-2.154 1.609.5.5 0 00.065.907s.486.187.407.538c-.057.255-1 .776-1.932 1.074a.5.5 0 00-.164.865s.514.423.26.794a2.2 2.2 0 01-.394.464.958.958 0 01-.277-.35c-1.052-1.833-2.848-2.6-4.05-.868-1.49 2.14 1.979 5.3 3.7 4.49a3.059 3.059 0 011.978-.41.319.319 0 01-.006.129c-.021.109-.1.55-.526.47a.5.5 0 00-.258.966c.304.077.573.253.766.5a.587.587 0 01-.244.673.621.621 0 01-.427-.023.5.5 0 00-.453.89c.012.008 1.179.69.893 1.357a.5.5 0 01-.392.349.603.603 0 01-.162-.01.5.5 0 00-.09.993c.058.01.145-.013.2.017.2.023.578.116.589.47 0 .02 0 .047-.042.092a2.8 2.8 0 01-1.484.406zm9.87 5.7c-.1.27-.529.359-.872.388-3.308.274-6.208-2.9-7.539-5.343.61-.221 1.1-.614 1.076-1.268a1.34 1.34 0 00-.453-1 1.67 1.67 0 00-.111-2.2c.039-.028.076-.057.112-.088a9.607 9.607 0 005.329 3.189l-.387 1.475a.5.5 0 00.131.482c1.27 1.263 3.013 3.529 2.709 4.361l.005.004zm4.85-13.026c-2.09 4.5-4.144 6.368-6.473 5.88a8.618 8.618 0 01-5.628-3.316 1.371 1.371 0 00-.425-1.317 1.4 1.4 0 00.066-1.975c-.867-.675-2.67.119-3.023.284-.375.178-1.351-.254-2.044-1.075-.29-.344-.912-1.223-.414-1.94.391-.56.71-.545.808-.542.528.022 1.181.69 1.555 1.338.117.2.475.826 1.089.85.562.023.978-.47 1.273-.9a1.387 1.387 0 00.055-1.515c.754-.31 1.771-.848 1.932-1.565a1.299 1.299 0 00-.3-1.175c.816-.5 1.854-1.256 1.982-1.892a1.942 1.942 0 00-.4-1.408 41.259 41.259 0 019.127-1.324c.417 1.049.676 2.154.767 3.279-.048 1.844-.7 2.444.035 4.307a4.186 4.186 0 01.018 4.006z"/><path fill="#00bac7" fill-rule="evenodd" d="M149.153 46.635s-7.934-2.567-11.879-.667c-3.945 1.9-14.057 14.526-14.774 17.715-.717 3.189 2 13.986 2.287 15.962a38.34 38.34 0 004.141-3.238s.839-7.705 1.57-9a31.35 31.35 0 011.626 4.944s3.768-3.474 4.083-4.7c.315-1.226 1.345-6.227 1.218-8.166 0 0 1.7 2.438 1.709 3.926 0 0 3.148-3.3 3.388-4.392.191-1.425.255-2.864.193-4.3a5.836 5.836 0 011.229 2.17s5.012-5.424 6.448-7.88c0 0 5.158 12.62 7.166 13.239 0 0 .821-2.8 1.608-3.342 0 0 1.019 5.92.6 7.719a26.417 26.417 0 002.4 4.818c.218-1.248.67-2.443 1.331-3.522 0 0 1.2 4.644 1.027 7.174 0 0 1.479 3.343 2.957 4.292 0 0 3.548-12.817 3.182-17.684-.268-3.554-4.24-8.29-16.824-15.364 0 0 5.561.244 9 .663a21.88 21.88 0 013.726-2.16c.492.88.856 1.826 1.083 2.809 0 0 4.017.846 5.268 1.1 0 0 2.581-2.09 3.793-2.353 0 0 .432 2.25.569 3.5 0 0 3.262 1.637 4.067 2.063.084-1.057.329-2.095.728-3.077A48.48 48.48 0 01184 53.922s3.187 4.45 4.541 5.206c0 0 .4-9.205-1.92-13.977s-11.219-10.778-16.258-11.1c-5.039-.322-16.376 8.756-18.7 12.138 0 0 3.877-5.433 7.381-9.363 0 0 .629-3.376 1.38-4.351 0 0 1.6 1.4 2.061 1.77 0 0 2.184-2.56 2.776-3.237.592-.677.018-3.85.018-3.85l3 1.065 3.391-3.983s-.6-3.336-.822-4.4a6.83 6.83 0 012.936.445c1.09.568 3.927-8.153 3.753-9.37-.174-1.217-10.851 2.517-17.1 6.97-6.249 4.453-8.992 12.833-9.782 26.28 0 0-1.043-13.348-4.287-19.174-3.244-5.826-6.155-8.465-15.016-6.837-8.861 1.628-11.181 4.17-11.181 4.17s5.328 3.836 6.358 3.762c1.03-.074 4.379-2.38 4.379-2.38s-.023 2.648-.814 3.65a20.198 20.198 0 004.551 1.28c1.631.1 5.021-2.171 5.021-2.171l.532 3.066s-8.247-2.755-18.076 2.16-9.846 17.3-9.839 20.886a10.54 10.54 0 003.023-1.82c1.005-1.027 5.129-7.781 5.129-7.781l-.309 4.182s4.511-1.842 5.673-3.052c0 0 3.633-3.721 4.41-5.812a22.078 22.078 0 010 3.6c1.713-.3 3.399-.735 5.043-1.3a23.1 23.1 0 003.253-3.086 7.025 7.025 0 01-.112 3.1s9.119 3.67 10.76 6.027z" clip-rule="evenodd"/><path fill="#0e2238" d="M151.666 46.693a.502.502 0 00.408-.21c.039-.054 3.9-5.457 7.346-9.32a.504.504 0 00.119-.242c.224-1.25.565-2.478 1.019-3.665.513.448 1.312 1.14 1.62 1.384a.5.5 0 00.622-.783c-.46-.365-2.042-1.754-2.042-1.754a.498.498 0 00-.726.07c-.737.957-1.311 3.713-1.45 4.427-3.458 3.9-7.284 9.248-7.322 9.3a.5.5 0 00.406.793zm19.222-26.353a6.395 6.395 0 012.672.389.499.499 0 00.717-.595.5.5 0 00-.256-.292 7.287 7.287 0 00-3.2-.5.503.503 0 00-.298.878.49.49 0 00.365.12zm-5.772 7.292c1.028.444 2.087.81 3.17 1.094a.498.498 0 00.495-.415.5.5 0 00-.328-.557l-3-1.065a.5.5 0 10-.334.943h-.003zm-38.542-1.045a12.791 12.791 0 003.785-1.9 5.369 5.369 0 01-.65 2.365.502.502 0 00.2.774 20.333 20.333 0 004.709 1.316c1.352.1 3.575-1.163 4.687-1.846.415 2.4.376 2.418.544 2.588l.006.014c8.481 8.115 9.839 15.818 9.851 15.9a.497.497 0 00.574.413.503.503 0 00.413-.575c-.053-.325-1.4-8.018-10.027-16.336l-.5-2.911a.504.504 0 00-.296-.374.5.5 0 00-.475.044c-.9.606-3.512 2.183-4.712 2.089a16.858 16.858 0 01-3.857-1.039 10.08 10.08 0 00.59-3.387.496.496 0 00-.265-.446.5.5 0 00-.518.029 17.46 17.46 0 01-4.126 2.292c-.588-.005-3.591-1.908-6.036-3.669a.498.498 0 00-.556-.019.507.507 0 00-.223.311.494.494 0 00.195.521c1.646 1.176 5.588 3.897 6.687 3.846zm62.213 32.104c-1.009-.564-3.407-3.713-4.322-4.983a50.604 50.604 0 00-1.926-5.037.496.496 0 00-.636-.266c-.08.03-.15.08-.205.145a6.855 6.855 0 00-.751 2.625c-.988-.5-2.592-1.312-3.2-1.616-.162-1.273-.526-3.18-.543-3.266a.51.51 0 00-.075-.184.514.514 0 00-.326-.214.501.501 0 00-.199.004 13.824 13.824 0 00-3.816 2.3c-1.191-.244-3.827-.8-4.727-.988-.24-.92-.597-1.805-1.061-2.635a.501.501 0 00-.606-.212 20.903 20.903 0 00-3.681 2.11c-3.432-.4-8.794-.642-8.849-.644a.5.5 0 10-.044 1c.056 0 5.589.187 8.963.66a.492.492 0 00.352-.09 24.323 24.323 0 013.208-1.932c.992 1.991.625 2.541 1.207 2.662 0 0 4.021.848 5.273 1.1a.494.494 0 00.413-.1 19.189 19.189 0 013.093-2.075c.136.746.365 2.054.457 2.887a.495.495 0 00.273.392s3.254 1.634 4.058 2.058a.5.5 0 00.731-.389c.062-.577.163-1.218.274-1.746a35.024 35.024 0 011.47 3.956c.333.465 3.293 4.565 4.7 5.353a.5.5 0 00.488-.873l.007-.002zm-21.03 20.266c-1.065-.685-2.278-3-2.72-3.965a31.797 31.797 0 00-1.05-7.2.504.504 0 00-.364-.36.503.503 0 00-.49.15 7.131 7.131 0 00-1.176 2.605 34.486 34.486 0 01-1.668-3.613c.351-2.025-.587-7.519-.628-7.758a.493.493 0 00-.3-.376c-.86-.367-1.777 2.13-2.077 3.017-1.37-1.41-4.2-7.19-6.428-12.64a.495.495 0 00-.427-.31.503.503 0 00-.467.246 64.631 64.631 0 01-5.816 7.171 8.594 8.594 0 00-1.049-1.536.502.502 0 00-.79.042.504.504 0 00-.089.286 24.878 24.878 0 01-.182 4.2 15.26 15.26 0 01-2.588 3.428 13.194 13.194 0 00-1.61-3.139.498.498 0 00-.828.009.503.503 0 00-.082.308 41.835 41.835 0 01-1.2 8.01c-.166.647-1.86 2.467-3.3 3.852a41.132 41.132 0 00-1.466-4.163.5.5 0 00-.9-.053c-.723 1.281-1.468 7.716-1.614 9.033a33.658 33.658 0 01-3.308 2.592c-.558-2.829-2.775-12.222-2.153-14.992a.497.497 0 00-.379-.6.507.507 0 00-.6.38c-.746 3.325 2 14.16 2.28 16.141a.506.506 0 00.295.388.502.502 0 00.485-.048 36.457 36.457 0 004.238-3.325.5.5 0 00.115-.27c.253-2.32.7-5.684 1.125-7.559.46 1.139.822 2.315 1.079 3.516a.496.496 0 00.594.422.498.498 0 00.24-.122c.647-.595 3.893-3.638 4.229-4.942a56.76 56.76 0 001.168-6.6 5.77 5.77 0 01.774 2.24c.001.1.032.196.089.278a.494.494 0 00.518.204.502.502 0 00.254-.143c.542-.568 3.258-3.462 3.516-4.627a15.3 15.3 0 00.21-2.81c.112.187.188.393.225.608a.505.505 0 00.335.432.497.497 0 00.53-.132 88.966 88.966 0 005.983-7.147c.781 1.867 5.711 13.568 7.5 12.606a.51.51 0 00.243-.3c.22-.749.497-1.48.829-2.187.934 6.283.255 6.137.436 6.605a26.27 26.27 0 002.475 4.946.501.501 0 00.884-.213c.154-.768.37-1.522.647-2.254.498 1.966.754 3.984.763 6.012.063.142 1.557 3.492 3.143 4.511a.5.5 0 10.541-.84l.006-.014z"/><path fill="#0e2238" d="M129.8 40.1c.014.58-.011 1.159-.072 1.735a.493.493 0 00.154.426.5.5 0 00.435.127 29.776 29.776 0 005.262-1.395 34.084 34.084 0 002.563-2.273c.063.56.002 1.126-.177 1.66a.505.505 0 00-.028.407.497.497 0 00.285.293c2.494 1.005 9.247 4.012 10.524 5.845a.5.5 0 00.82-.572c-1.511-2.17-8.655-5.241-10.531-6.02a8.928 8.928 0 00-.021-2.895.498.498 0 00-.908-.2 22.012 22.012 0 01-3.073 2.924 25.965 25.965 0 01-4.254 1.118 26.27 26.27 0 00-.06-3.022.502.502 0 00-.757-.389.502.502 0 00-.211.257c-.73 1.966-4.264 5.6-4.3 5.638a20.615 20.615 0 01-4.753 2.619l.249-3.365a.495.495 0 00-.344-.515.501.501 0 00-.581.215c-1.14 1.866-4.269 6.883-5.06 7.693-.85.72-1.813 1.294-2.85 1.7a.502.502 0 00-.283.648.504.504 0 00.649.283 10.9 10.9 0 003.2-1.936 66.254 66.254 0 004.122-6.13l-.159 2.144a.502.502 0 00.688.5c.188-.078 4.623-1.9 5.841-3.165a37.071 37.071 0 003.63-4.354z"/></svg>