<svg xmlns="http://www.w3.org/2000/svg" fill="none" viewBox="0 0 200 200" height="100" width="100"><path fill="#def6f8" fill-rule="evenodd" d="M176.558 111.832l3.038-8.054-26.882-6.507-4.042 8.078L85.527 91.96l-6.469 17.244-31.27-7.862 15.484 67.865L144.302 195l42.66-80.602-10.404-2.566z" clip-rule="evenodd"/><path fill="#0e2238" fill-rule="evenodd" d="M88.042 48.05l-5.136 11.92s17.094-2.562 26.775-.554c15.628 3.242 5.258 20.339 5.258 20.339l-9.9-1.03 9.479 27.9 26.916-21.975-10.813-1.863s10.208-14.6-1.052-27.385c-12.718-14.443-41.527-7.351-41.527-7.351z" clip-rule="evenodd"/><path fill="#fff" fill-rule="evenodd" d="M175.52 22.933L151.183 16.6s-15.93 12.347-7.064 35.253l22.494 4.74s-9.581-22.66 8.907-33.66zM13.038 115.474l20.406-7.447S42.55 126.45 47.2 133.899l-17.523 13.656s-7.753-9.456-16.639-32.081zm42.408-70.361L55.13 75s-35.715 13.25-39.9 15.24c0 0-2.965-24.062-2-32.665 0 .003 24.246-9.226 42.216-12.46z" clip-rule="evenodd"/><path fill="#fff" d="M96.812 23.282s-21.637 13-23.767 14.573c0 0-9.678-16.12-11.623-21.365 0 0 14.966-9.211 25.708-12.77l9.682 19.562z"/><path fill="#0e2238" d="M97.261 23.06L87.578 3.5a.494.494 0 00-.606-.253C76.3 6.782 61.31 15.97 61.16 16.064a.5.5 0 00-.207.6c1.94 5.228 11.267 20.789 11.663 21.449a.5.5 0 00.726.145C75.428 36.72 96.854 23.84 97.07 23.71a.5.5 0 00.191-.651zm-24.06 14.08c-1.546-2.594-9.17-15.473-11.162-20.44 2.3-1.39 15.223-9.085 24.836-12.365L96.16 23.09c-2.877 1.73-19.51 11.746-22.96 14.05z"/><path fill="#def6f8" fill-rule="evenodd" d="M16.822 86.39s-1.5-21.3-1.009-26.97c0 0 25.252-8.355 37.091-11.337v24.75L16.822 86.39zm57.012-53.165s-7.343-12.635-8.716-16.08c0 0 13.9-7.275 20.728-10.128l7.5 14.825-19.512 11.383z" clip-rule="evenodd"/><path fill="#00bac7" fill-rule="evenodd" d="M16.406 79.926l7.986-12.249 9.956 7.03L44.58 61.5l8.4 9.506-.08 1.827L16.822 86.39l-.416-6.464zm57.428-46.701l-2.347-4.093 1.86-7.863 8.686 3.18 2.494-8.432 8.057 4.322.76 1.5-19.51 11.386z" clip-rule="evenodd"/><path fill="#def6f8" fill-rule="evenodd" d="M23.737 60.122a2.772 2.772 0 010 5.518 2.772 2.772 0 010-5.518zM70.49 16.853a2.61 2.61 0 012.458 1.428c.455.913.092 1.755-.809 1.88a2.609 2.609 0 01-2.457-1.43c-.455-.912-.093-1.754.808-1.878z" clip-rule="evenodd"/><path fill="#def6f8" d="M65.276 84.74l6.954.58a18.128 18.128 0 00.376 12.114L67.044 99.1s-3.362-5.449-1.768-14.36zM19.655 20.339a47.018 47.018 0 00-2.374 6.745l9.887 4.887a52.267 52.267 0 013.532-7.262l-11.045-4.37zm150.474 63.273s2.573-3.86 5.468-8.387l6.55 2.218a78.18 78.18 0 01-5.213 8.142l-6.805-1.973z"/><path fill="#0e2238" d="M139.5 124.237a.5.5 0 00-.377-.448L47.91 100.856a.507.507 0 00-.473.129.496.496 0 00-.136.471l15.484 67.866a.498.498 0 00.335.365C147.293 196.5 144.18 195.5 144.3 195.5a.508.508 0 00.367-.159.507.507 0 00.133-.378l-5.3-70.726zm-75.8 44.581l-15.243-66.793 90.068 22.647 5.223 69.627L63.7 168.818zm50.342-62.033a.505.505 0 00.474.339c.263 0-.391.47 8.793-7.032a.503.503 0 00.072-.704.502.502 0 00-.705-.072l-7.918 6.465-2.958-8.71a.502.502 0 00-.923-.061.498.498 0 00-.025.382l3.19 9.393zm61.604-84.335l-24.337-6.338a.493.493 0 00-.432.088c-.163.126-16.122 12.842-7.224 35.829a.503.503 0 00.363.309l22.494 4.74a.5.5 0 00.563-.683c-.094-.222-9.2-22.378 8.7-33.032a.502.502 0 00.119-.761.5.5 0 00-.246-.152zm-9.822 33.463l-21.336-4.5c-7.9-20.78 5.091-32.8 6.817-34.271l22.964 5.98c-15.349 10.028-9.934 28.564-8.445 32.79z"/><path fill="#0e2238" d="M151.786 20.92c18.084 4.605 17.021 4.34 17.124 4.34a.5.5 0 00.123-.984l-17-4.325a.498.498 0 00-.544.738.498.498 0 00.298.231h-.001zm14.687 6.671l-17.32-4.218a.496.496 0 00-.545.178.5.5 0 00.309.793l17.32 4.217a.503.503 0 00.546-.177.498.498 0 00.02-.573.508.508 0 00-.33-.22zm-2.379 3.426L146.773 26.8a.501.501 0 00-.565.75.497.497 0 00.328.22l17.321 4.218a.502.502 0 00.62-.363.5.5 0 00-.383-.608zm-2.477 8.041L144.3 34.841a.5.5 0 10-.236.97l17.32 4.218a.5.5 0 10.236-.97h-.003zm0 4.219L144.3 39.06a.5.5 0 10-.236.971l17.32 4.218a.5.5 0 10.236-.97h-.003zm0 4.223L144.3 43.277a.5.5 0 10-.236.97l17.32 4.219a.5.5 0 10.236-.971l-.003.005zM15.45 90.693c4.112-1.957 39.5-15.09 39.854-15.223a.5.5 0 00.326-.463l.316-29.889a.5.5 0 00-.588-.5c-17.81 3.207-42.063 12.4-42.3 12.488a.5.5 0 00-.32.412c-.957 8.564 1.883 31.8 2 32.782a.5.5 0 00.711.393zM13.7 57.936C16.45 56.9 38.335 48.8 54.94 45.714l-.306 28.94C50.99 76.005 21.582 86.935 15.65 89.506c-.462-3.908-2.718-23.708-1.95-31.57z"/><path fill="#0e2238" d="M17 86.858L53.158 73.3a.5.5 0 00.325-.47c0-.233.017 2.708-.159-24.75a.498.498 0 00-.624-.48c-11.719 2.95-36.792 11.26-37.044 11.345a.501.501 0 00-.34.432c-.492 5.643.946 26.177 1.007 27.048a.501.501 0 00.677.433zm.277-1.172c-.068-1.006-.2-3.065-.357-5.626l7.61-11.674 9.533 6.73a.5.5 0 00.683-.1l9.862-12.73 7.872 8.9v1.3l-35.203 13.2zm-.988-25.9C19.183 58.83 41.214 51.6 52.4 48.72v20.943l-7.442-8.493a.5.5 0 00-.769.024l-9.942 12.828-9.566-6.753a.5.5 0 00-.708.135l-7.154 10.974c-.37-6.452-.77-15.028-.532-18.59l.003-.003zM73.4 33.475a.5.5 0 00.432.25c.21 0-1.118.707 19.762-11.453a.5.5 0 00.195-.657c-15.114-29.927-1.708-3.4-7.5-14.825a.5.5 0 00-.639-.236C78.888 9.384 65.025 16.63 64.886 16.7a.5.5 0 00-.232.63c1.37 3.44 8.446 15.63 8.746 16.146zm.613-.935a561.4 561.4 0 01-1.857-3.242l1.4-7.292 8.028 3.1a.5.5 0 00.66-.319l2.532-8.232 7.632 4.535.28.554L74.013 32.54zM85.61 7.658l5.955 11.772-6.826-4.057a.5.5 0 00-.734.282l-2.563 8.326-8.087-3.125a.5.5 0 00-.67.373L71.4 27.954c-2.073-3.669-4.67-8.375-5.639-10.579 2.288-1.193 13.663-7.076 19.85-9.717z"/><path fill="#0e2238" d="M23.737 66.14a3.27 3.27 0 000-6.518 3.269 3.269 0 000 6.517zm0-5.518a2.274 2.274 0 010 4.517 2.275 2.275 0 010-4.517zM73.46 19.825c.813-1.543-1.146-3.727-3.039-3.468a1.678 1.678 0 00-1.187 2.6c.884 1.772 3.434 2.363 4.225.868zm-3.4-2.169c.34-.649 1.886-.271 2.444.849.273.545.178 1.076-.429 1.161-1.16.163-2.41-1.266-2.02-2.01h.004zm-36.788 89.902l-20.406 7.447a.507.507 0 00-.284.264.498.498 0 00-.01.388c8.813 22.44 16.641 32.12 16.719 32.216a.498.498 0 00.694.077l17.526-13.657a.5.5 0 00.116-.66c-4.587-7.34-13.644-25.642-13.735-25.827a.5.5 0 00-.62-.248zm13.27 26.222l-16.777 13.073c-1.493-1.972-8.373-11.6-16.074-31.085l19.5-7.117c1.341 2.691 9.064 18.154 13.351 25.129z"/><path fill="#0e2238" d="M32.871 112.592l-15.26 6.445a.501.501 0 00.388.922l15.261-6.445a.504.504 0 00.267-.655.498.498 0 00-.656-.267zm-13.856 10.944a.501.501 0 00.667.236l14.775-7.046a.504.504 0 00.204-.651.498.498 0 00-.634-.249l-14.776 7.044a.499.499 0 00-.236.666zm1.671 3.669a.499.499 0 00.666.235l15.048-7.191a.5.5 0 00-.431-.9l-15.05 7.192a.502.502 0 00-.233.664zm3.052 5.802a.5.5 0 00.678.2l14.322-7.807a.499.499 0 00-.102-.911.5.5 0 00-.376.033l-14.323 7.812a.499.499 0 00-.199.673zm2.194 4.084a.496.496 0 00.508.227.5.5 0 00.182-.07l14.31-9.033a.5.5 0 10-.534-.846l-14.31 9.03a.499.499 0 00-.156.692zm2.307 3.068a.498.498 0 00.689.158l14.137-8.845a.5.5 0 10-.53-.847L28.4 139.469a.496.496 0 00-.23.507.5.5 0 00.069.183zm30.392 35.529a.5.5 0 00-.787-.333l-7.8 5.611a.503.503 0 00-.114.699.502.502 0 00.698.114l6.668-4.795c-1.069 3.031-4.733 11.058-13.655 11.454a9.574 9.574 0 01-9.379-5.491c12.332-1.26 10.837-11.927 3.371-11.475-4.87.263-6.443 5.769-4.828 10.555a32.68 32.68 0 01-6.552-.446c-4.994-.808-8.568-3-10.62-6.508-4.5-7.693-.31-19.325-.268-19.441a.499.499 0 00-.68-.627.503.503 0 00-.259.281c-.182.494-4.395 12.185.341 20.289 2.211 3.782 6.022 6.135 11.327 6.992a33.44 33.44 0 007.1.463 10.537 10.537 0 009.912 6.42c7.127 0 12.274-4.842 14.863-11.422l.95 6.394a.499.499 0 00.99-.147l-1.278-8.587zm-20.6-3.226c3.794 0 5.481 3.349 3.563 6.08-1.357 1.931-4.09 3.1-7.755 3.419-1.574-4.294-.32-9.499 4.193-9.499z"/></svg>